<?xml version="1.0" encoding="UTF-8"?>
<svg id="Layer_1" data-name="Layer 1" xmlns="http://www.w3.org/2000/svg" viewBox="0 0 800 200">
  <defs>
    <style>
      .cls-1 {
        fill: #fff;
      }
    </style>
  </defs>
  <path class="cls-1" d="M117.48,168.34H17.83V32.14h50.76v99.89h48.89v36.31ZM24.86,161.3h85.58v-22.24h-48.89V39.17H24.86v122.13Z"/>
  <path class="cls-1" d="M227.12,168.34h-109.22V32.14h109.22v36.5h-58.46v13.73h53.58v35.07h-53.58v14.4h58.46v36.5ZM124.94,161.3h95.15v-22.43h-58.46v-28.47h53.58v-21h-53.58v-27.8h58.46v-22.43h-95.15v122.13Z"/>
  <path class="cls-1" d="M292.98,169.11c-25.19,0-42.69-6.44-52.02-19.13h0c-9.09-12.36-13.7-29.25-13.7-50.21s4.79-38.32,14.24-50.35c4.91-6.25,12.16-10.98,21.52-14.05,9.05-2.97,20.38-4.47,33.67-4.47,12.35,0,22.95,1.33,31.49,3.96,8.85,2.72,15.8,6.91,20.66,12.45,9.39,10.7,14.49,22.52,15.17,35.14l.2,3.71h-50.66l-.28-3.21c-.9-10.18-3.18-12.67-4.12-13.27-1.7-1.08-5.23-2.37-12.37-2.37-5.81,0-10.44,1.43-13.75,4.24-1.42,1.21-4.74,6.52-4.74,29.66,0,17.06,2.75,23.62,5.05,26.13,3.32,3.61,7.84,5.37,13.82,5.37,6.91,0,10.03-1.29,11.43-2.37.87-.67,2.31-2.47,3.27-7.24h-16.4v-32.49h68.56v77.74h-30.25l-3.79-9.97c-7.82,7.07-20.23,10.68-37.02,10.74ZM296.7,37.93c-24.7,0-41.41,5.33-49.67,15.83-8.45,10.76-12.74,26.24-12.74,46s4.15,34.91,12.33,46.04h0c7.93,10.79,23.53,16.27,46.34,16.27,17.71-.06,29.62-4.23,35.4-12.39l3.82-5.39,6.46,17.01h18.36v-63.67h-54.49v18.41h18.39l-1.52,4.57c-.91,7.61-3.03,12.61-6.47,15.27-3.34,2.59-8.49,3.85-15.74,3.85-7.95,0-14.34-2.57-19-7.64-4.65-5.06-6.91-15.16-6.91-30.89,0-25.9,4.12-32.39,7.22-35.02,4.62-3.92,10.78-5.91,18.3-5.91s12.47,1.13,16.14,3.47c3.67,2.33,5.93,7.26,7.01,15.38h36.71c-1.31-9.63-5.7-18.76-13.08-27.17-8.16-9.3-23.93-14.02-46.87-14.02Z"/>
  <path class="cls-1" d="M512.81,168.34h-52.51l-6.51-27.65h-31.85l-6.6,27.65h-52.5l41.57-136.3h66.73l41.67,136.3ZM465.87,161.3h37.43l-37.36-122.23h-56.31l-37.27,122.23h37.44l6.6-27.65h42.97l6.51,27.65ZM454.16,112.18h-32.48l13.28-54.78h5.92l13.28,54.78ZM430.63,105.14h14.59l-7.3-30.09-7.3,30.09Z"/>
  <path class="cls-1" d="M570.05,169.11c-13.43,0-24.86-1.55-33.99-4.62-9.44-3.17-16.72-8.06-21.63-14.52h0c-9.43-12.4-14.21-29.26-14.21-50.11s4.78-37.75,14.22-50.03c4.91-6.39,12.18-11.22,21.6-14.36,9.1-3.03,20.51-4.57,33.91-4.57s25,1.48,33.97,4.39c9.34,3.04,16.34,7.74,20.8,13.96,8.47,11.82,12.76,25.11,12.76,39.51v3.52h-51.33v-3.52c0-4.49-.38-15.22-3.95-17.98-2.89-2.24-7.11-3.38-12.53-3.38s-9.92,1.36-13.39,4.15c-1.45,1.16-4.81,6.25-4.81,28.31s3.35,27.39,4.79,28.56c3.43,2.81,7.82,4.18,13.42,4.18s9.55-1.16,12.47-3.46c1.5-1.18,4.01-5.06,4.01-17.8v-3.52h51.33v3.52c0,13.95-4.31,27.1-12.8,39.11-4.47,6.32-11.47,11.1-20.78,14.19-8.94,2.97-20.33,4.47-33.85,4.47ZM569.96,37.93c-24.88,0-41.68,5.44-49.93,16.18-8.47,11.02-12.76,26.41-12.76,45.74s4.3,34.7,12.77,45.85h0c8.25,10.86,25.08,16.36,50.01,16.36s41.52-5.28,48.89-15.69c6.91-9.77,10.74-20.36,11.4-31.53h-37.22c-.38,10.24-2.52,16.58-6.64,19.82-4.19,3.29-9.85,4.96-16.81,4.96s-13.2-1.94-17.87-5.77c-3.16-2.59-7.36-8.93-7.36-34.01s4.24-31.22,7.44-33.79c4.7-3.79,10.69-5.7,17.8-5.7s12.68,1.63,16.84,4.85c4.11,3.18,6.24,9.59,6.61,20.03h37.23c-.64-11.55-4.45-22.26-11.35-31.89-7.33-10.23-23.84-15.42-49.05-15.42Z"/>
  <path class="cls-1" d="M727.61,168.34h-50.66v-48.25l-54.67-87.95h55.71l24.37,45.83,24.11-45.83h55.71l-54.56,88.05v48.15ZM683.98,161.3h36.59v-43.12l48.96-79.01h-38.82l-26.12,49.66h-4.43l-26.41-49.66h-38.82l49.05,78.91v43.22Z"/>
</svg>