<svg width="296" height="56" viewBox="0 0 296 56" fill="none" xmlns="http://www.w3.org/2000/svg">
<rect x="1.5" y="1.5" width="293" height="53" rx="26.5" fill="white"/>
<rect x="1.5" y="1.5" width="293" height="53" rx="26.5" stroke="url(#paint0_linear_617_248)" stroke-width="3"/>
<path d="M32.3401 37.788C30.9001 37.788 29.6761 37.532 28.6681 37.02C27.6761 36.508 26.8201 35.836 26.1001 35.004L28.2361 32.94C28.8121 33.612 29.4521 34.124 30.1561 34.476C30.8761 34.828 31.6681 35.004 32.5321 35.004C33.5081 35.004 34.2441 34.796 34.7401 34.38C35.2361 33.948 35.4841 33.372 35.4841 32.652C35.4841 32.092 35.3241 31.636 35.0041 31.284C34.6841 30.932 34.0841 30.676 33.2041 30.516L31.6201 30.276C28.2761 29.748 26.6041 28.124 26.6041 25.404C26.6041 24.652 26.7401 23.972 27.0121 23.364C27.3001 22.756 27.7081 22.236 28.2361 21.804C28.7641 21.372 29.3961 21.044 30.1321 20.82C30.8841 20.58 31.7321 20.46 32.6761 20.46C33.9401 20.46 35.0441 20.668 35.9881 21.084C36.9321 21.5 37.7401 22.116 38.4121 22.932L36.2521 24.972C35.8361 24.46 35.3321 24.044 34.7401 23.724C34.1481 23.404 33.4041 23.244 32.5081 23.244C31.5961 23.244 30.9081 23.42 30.4441 23.772C29.9961 24.108 29.7721 24.588 29.7721 25.212C29.7721 25.852 29.9561 26.324 30.3241 26.628C30.6921 26.932 31.2841 27.156 32.1001 27.3L33.6601 27.588C35.3561 27.892 36.6041 28.436 37.4041 29.22C38.2201 29.988 38.6281 31.068 38.6281 32.46C38.6281 33.26 38.4841 33.988 38.1961 34.644C37.9241 35.284 37.5161 35.844 36.9721 36.324C36.4441 36.788 35.7881 37.148 35.0041 37.404C34.2361 37.66 33.3481 37.788 32.3401 37.788ZM51.9559 30.42H44.9719V37.5H41.8039V20.748H44.9719V27.612H51.9559V20.748H55.1239V37.5H51.9559V30.42ZM69.4219 37.5L68.0779 33.228H62.1259L60.8059 37.5H57.5899L63.2059 20.748H67.1419L72.7099 37.5H69.4219ZM65.1499 23.628H65.0299L62.8939 30.516H67.3099L65.1499 23.628ZM78.3469 37.5H75.1789V20.748H82.7389C83.5069 20.748 84.1949 20.868 84.8029 21.108C85.4109 21.348 85.9229 21.7 86.3389 22.164C86.7709 22.612 87.0989 23.156 87.3229 23.796C87.5629 24.436 87.6829 25.148 87.6829 25.932C87.6829 27.084 87.4189 28.076 86.8909 28.908C86.3789 29.74 85.6029 30.332 84.5629 30.684L87.9949 37.5H84.4669L81.3469 31.044H78.3469V37.5ZM82.4269 28.38C83.0349 28.38 83.5149 28.22 83.8669 27.9C84.2189 27.564 84.3949 27.092 84.3949 26.484V25.38C84.3949 24.772 84.2189 24.308 83.8669 23.988C83.5149 23.668 83.0349 23.508 82.4269 23.508H78.3469V28.38H82.4269ZM91.1164 37.5V20.748H102.156V23.556H94.2844V27.612H101.244V30.42H94.2844V34.692H102.156V37.5H91.1164ZM121.547 37.5L120.203 33.228H114.251L112.931 37.5H109.715L115.331 20.748H119.267L124.835 37.5H121.547ZM117.275 23.628H117.155L115.019 30.516H119.435L117.275 23.628ZM145.624 25.476H145.528L144.232 28.14L140.8 34.476L137.368 28.14L136.072 25.476H135.976V37.5H132.976V20.748H136.552L140.848 28.932H140.944L145.192 20.748H148.624V37.5H145.624V25.476ZM152.57 37.5V20.748H163.61V23.556H155.738V27.612H162.698V30.42H155.738V34.692H163.61V37.5H152.57ZM179.608 25.476H179.512L178.216 28.14L174.784 34.476L171.352 28.14L170.056 25.476H169.96V37.5H166.96V20.748H170.536L174.832 28.932H174.928L179.176 20.748H182.608V37.5H179.608V25.476ZM193.13 37.788C192.026 37.788 191.026 37.604 190.13 37.236C189.234 36.868 188.466 36.316 187.826 35.58C187.202 34.844 186.714 33.94 186.362 32.868C186.01 31.796 185.834 30.548 185.834 29.124C185.834 27.716 186.01 26.476 186.362 25.404C186.714 24.316 187.202 23.404 187.826 22.668C188.466 21.932 189.234 21.38 190.13 21.012C191.026 20.644 192.026 20.46 193.13 20.46C194.234 20.46 195.234 20.644 196.13 21.012C197.026 21.38 197.794 21.932 198.434 22.668C199.074 23.404 199.562 24.316 199.898 25.404C200.25 26.476 200.426 27.716 200.426 29.124C200.426 30.548 200.25 31.796 199.898 32.868C199.562 33.94 199.074 34.844 198.434 35.58C197.794 36.316 197.026 36.868 196.13 37.236C195.234 37.604 194.234 37.788 193.13 37.788ZM193.13 34.98C194.33 34.98 195.282 34.58 195.986 33.78C196.706 32.98 197.066 31.86 197.066 30.42V27.828C197.066 26.388 196.706 25.268 195.986 24.468C195.282 23.668 194.33 23.268 193.13 23.268C191.93 23.268 190.97 23.668 190.25 24.468C189.546 25.268 189.194 26.388 189.194 27.828V30.42C189.194 31.86 189.546 32.98 190.25 33.78C190.97 34.58 191.93 34.98 193.13 34.98ZM206.808 37.5H203.64V20.748H211.2C211.968 20.748 212.656 20.868 213.264 21.108C213.872 21.348 214.384 21.7 214.8 22.164C215.232 22.612 215.56 23.156 215.784 23.796C216.024 24.436 216.144 25.148 216.144 25.932C216.144 27.084 215.88 28.076 215.352 28.908C214.84 29.74 214.064 30.332 213.024 30.684L216.456 37.5H212.928L209.808 31.044H206.808V37.5ZM210.888 28.38C211.496 28.38 211.976 28.22 212.328 27.9C212.68 27.564 212.856 27.092 212.856 26.484V25.38C212.856 24.772 212.68 24.308 212.328 23.988C211.976 23.668 211.496 23.508 210.888 23.508H206.808V28.38H210.888ZM222.648 37.5V30.924L216.912 20.748H220.464L224.328 27.828H224.376L228.144 20.748H231.6L225.84 30.9V37.5H222.648Z" fill="#0021A5"/>
<path d="M264.656 20.75V32.5313C264.656 32.7716 264.56 33.0021 264.39 33.1721C264.22 33.342 263.99 33.4375 263.75 33.4375C263.509 33.4375 263.279 33.342 263.109 33.1721C262.939 33.0021 262.843 32.7716 262.843 32.5313V22.9375L249.891 35.8912C249.721 36.0612 249.49 36.1568 249.25 36.1568C249.009 36.1568 248.778 36.0612 248.608 35.8912C248.438 35.7211 248.343 35.4905 248.343 35.25C248.343 35.0095 248.438 34.7789 248.608 34.6088L261.562 21.6563H251.968C251.728 21.6563 251.497 21.5608 251.327 21.3908C251.158 21.2209 251.062 20.9904 251.062 20.75C251.062 20.5096 251.158 20.2791 251.327 20.1092C251.497 19.9392 251.728 19.8438 251.968 19.8438H263.75C263.99 19.8438 264.22 19.9392 264.39 20.1092C264.56 20.2791 264.656 20.5096 264.656 20.75Z" fill="#0021A5"/>
<defs>
<linearGradient id="paint0_linear_617_248" x1="296" y1="28" x2="0" y2="28" gradientUnits="userSpaceOnUse">
<stop stop-color="#774219"/>
<stop offset="1" stop-color="#F2A900"/>
</linearGradient>
</defs>
</svg>
