<svg width="302" height="6" viewBox="0 0 302 6" fill="none" xmlns="http://www.w3.org/2000/svg">
<path d="M2.87657 0.0305095C4.56889 -0.0476489 6.78725 0.0359211 8.47318 0.150626C9.00155 0.186202 8.734 0.345226 9.09874 0.376944C9.8121 0.438775 10.4767 0.360783 11.1816 0.434439C11.4153 0.459627 11.1244 0.711522 11.3694 0.732167C12.7118 0.84349 13.9818 0.77933 15.3416 0.832875C22.0399 1.09706 28.6242 1.19161 35.4044 1.30638C37.6401 1.34401 40.3577 1.57262 42.6669 1.47264C42.9365 1.46075 42.7758 1.23965 42.827 1.22142C43.6315 0.942449 43.364 1.3888 43.8892 1.44811C45.9738 1.68226 48.2919 1.70263 50.298 1.6173C51.1515 1.58035 50.2958 1.14119 51.1551 1.38768C51.2148 1.40434 50.9983 1.63913 51.2323 1.66417C51.7631 1.72049 52.7702 1.67853 53.1816 1.69713C53.9744 1.73417 54.1056 1.73181 54.8555 1.73448C55.8807 1.74018 57.1 1.8569 58.1999 1.8037C58.4347 1.79164 58.1238 1.55096 58.4983 1.51C58.873 1.46911 59.8644 1.48951 60.1987 1.54625C60.533 1.60302 60.3906 1.7922 60.4498 1.83556C60.9365 2.20155 62.0834 1.69465 62.2309 1.68212C64.9212 1.46852 67.2283 1.75728 69.7537 1.75646C71.6709 1.75522 73.7208 1.65989 75.545 1.67296C77.7183 1.68947 79.5602 1.81989 81.6716 1.79747C81.8944 1.79538 81.6333 1.51239 81.9054 1.50926C84.7968 1.47633 87.668 1.50718 90.5469 1.69823C90.8356 1.71764 90.4635 1.9661 90.7519 2.00035C92.518 2.20455 95.3123 2.69507 96.3612 1.61327C97.5575 1.65551 99.0098 1.69916 100.08 1.91722C100.77 2.05757 100.1 2.32825 100.948 2.21275C101.139 2.18702 100.89 1.94997 101.177 1.92931C102.384 1.84253 103.703 1.91958 104.897 1.79711C105.14 1.77164 105.073 1.55923 105.142 1.52098C105.72 1.21122 106.683 1.72328 106.893 1.76048C108.492 2.03795 109.659 1.92876 111.148 1.93553C111.493 1.93722 111.085 1.65192 111.417 1.6433C113.142 1.60241 114.928 1.62693 116.616 1.75353C116.992 1.78237 116.647 2.0254 116.826 2.05162C117.617 2.16427 117.793 1.70525 118.552 1.80443C118.712 1.82475 118.622 2.0328 118.651 2.05565C119.108 2.41433 119.505 1.9061 119.622 1.89488C121.108 1.74157 122.058 2.27213 123.494 2.19701C123.666 2.18748 123.279 1.92424 123.761 1.91356C126.978 1.84089 130.38 1.9132 133.564 2.12376C134.059 2.15615 133.706 2.3539 133.737 2.37828C134.245 2.75918 134.573 2.24882 134.735 2.2296C136.008 2.09124 137.198 2.51924 138.063 1.91136C143.456 2.12232 148.824 1.78096 154.173 2.32555C154.241 2.33185 154.119 2.58321 154.255 2.59471C155.888 2.73584 155.575 2.34519 156.656 1.86742C156.928 1.74745 157.756 2.32428 157.83 2.36656C158.097 2.52237 157.82 2.89632 157.909 2.9265C158.649 3.16345 158.528 1.92678 159.526 1.92638C159.558 1.92844 159.427 2.15606 159.51 2.1787C159.771 2.24975 160.029 2.1593 160.283 2.23766C160.866 2.41896 161.074 3.01988 161.964 2.67015C162.077 2.62476 161.905 1.92327 162.796 1.95641C163.151 1.97021 164.724 1.95819 165.165 2.00365C165.605 2.04905 165.303 2.27511 165.334 2.2849C166.52 2.58382 166.07 2.7077 166.665 3.15025C167.259 3.59113 167.094 2.53959 167.336 2.42223C167.579 2.30519 168.448 2.55182 168.662 2.63756C168.876 2.72333 168.609 2.86697 168.799 2.91551C170.059 3.23264 169.352 2.39357 169.767 2.22667C170.745 1.83149 171.507 2.61131 172.403 2.68773C172.645 2.70836 172.447 2.53075 172.663 2.51414C173.518 2.45071 174.032 2.69404 175.004 2.47093C175.163 2.43457 175.949 1.96572 176.458 2.3098C176.53 2.35941 176.325 2.55374 176.69 2.59727C177.234 2.6626 178.214 2.70508 178.799 2.64012C179.231 2.59206 178.736 2.27185 179.279 2.37132C179.521 2.41574 179.073 2.60306 179.527 2.67088C179.979 2.73868 181.133 2.73045 181.572 2.72398C182.01 2.71737 181.77 2.47448 181.806 2.45811C182.02 2.36438 182.862 2.24725 182.936 2.24754C186.686 2.21789 190.145 2.62732 193.796 2.49181C194.083 2.48152 193.892 2.22539 193.936 2.22118C194.917 2.11386 194.143 2.79487 194.828 3.02281C194.729 2.50304 195.134 2.59715 195.825 2.54015C196.158 2.51225 195.977 2.31099 196.007 2.29039C196.501 1.9847 196.845 2.37954 196.933 2.46031C197.26 2.75743 197.616 2.40636 197.839 2.60496C198.061 2.80208 197.549 3.0943 198.212 3.09056C198.398 2.9045 197.906 2.41827 198.409 2.33946C200.307 2.04138 203.851 2.42288 205.378 2.46251C206.901 2.5021 207.393 2.46777 208.281 2.53502C209.884 2.6566 209.297 2.29585 210.292 2.13072C211.291 1.96562 210.805 2.85324 210.949 3.04405C211.09 3.23478 211.244 3.03844 211.419 3.14329C211.594 3.24812 211.215 3.37786 211.626 3.41722C212.038 3.45654 213.162 3.11722 213.307 2.91771C213.615 2.49501 213.109 2.05138 214.197 2.20726C214.259 2.21651 214.056 2.44991 214.296 2.47349C216.198 2.65317 218.175 2.66431 220.075 2.82323C220.337 2.84544 220.103 3.10509 220.255 3.12095C221.839 3.28703 221.273 2.84923 222.141 2.3629C221.946 3.01011 222.426 3.40607 223.628 3.40989C224.351 3.41242 224.227 3.12975 224.694 2.93052C224.834 2.87047 225.346 3.06456 225.438 2.93162C225.744 2.49708 225.262 2.01063 226.502 2.20433C226.556 2.21354 226.383 2.4514 226.571 2.4658C227.785 2.56009 227.931 2.10557 229.243 2.05052C230.272 2.00733 232.103 2.2845 233.274 2.32957C233.25 3.05722 234.357 2.8906 234.805 2.3889C235.566 2.40944 236.387 2.38108 237.122 2.45042C237.375 2.47407 237.209 2.68474 237.241 2.7075C237.73 3.06459 238.061 2.57649 238.225 2.55736C240.004 2.37134 241.453 2.74128 243.151 2.37975C243.211 2.36672 243.309 1.86128 243.763 2.23033C243.792 2.25577 243.231 2.48574 244.03 2.50352C244.829 2.52135 246.334 2.7923 247.443 2.55809C247.712 2.5017 248.39 2.09138 248.935 2.41197C249.008 2.45551 248.928 2.60047 249.033 2.68114C249.372 2.93817 249.557 2.42729 249.955 2.86131C250.353 3.29531 251.181 3.62035 252.299 3.3209C252.335 3.3122 252.6 2.90728 252.951 2.91368C253.513 2.92425 254.31 3.0086 254.896 3.00596C255.177 3.00456 254.997 2.75312 255.046 2.74852C256.933 2.60762 258.276 2.83178 260.298 2.92906C260.668 2.94739 261.734 2.60452 262.451 2.87559C263.239 3.17234 262.429 4.40674 264.24 4.11265C264.97 3.99502 265.895 2.42896 267.208 3.24034C269.753 3.03928 272.108 3.45454 274.66 3.16746C274.775 3.15474 275.138 2.71767 275.408 2.72362C275.809 2.73329 276.029 2.93758 276.315 2.95103C277.513 3.01257 278.61 2.83779 279.766 2.86497C280.205 2.87485 280.052 3.08608 280.575 3.09788C281.098 3.10949 281.447 2.83135 282.155 2.96568C282.691 3.06808 283.226 3.63659 283.937 3.70286C283.964 3.14208 284.452 3.15363 285.319 3.0056C285.486 2.97688 285.307 2.78169 285.386 2.75804C285.707 2.65744 286.004 2.81921 286.309 2.7097C286.383 2.6834 286.386 2.49189 286.447 2.45958C286.962 2.17754 287.811 2.60833 287.957 2.68333C288.516 2.96819 288.777 2.71911 289.206 2.83128C289.634 2.94344 288.994 3.08365 289.494 3.15172C290.53 3.2925 291.862 3.26157 292.914 3.27037C293.334 3.2727 293.048 3.01706 293.108 3.01146C293.976 2.94662 294.854 3.21854 295.336 2.70933C295.938 4.02596 295.86 2.58163 297.101 2.8452C297.199 2.86652 297.323 3.48914 296.948 3.58055C296.572 3.67187 296.003 3.47724 295.482 3.61973C295.359 3.65317 294.652 4.23661 294.556 4.27195C293.801 4.54816 293.694 3.61773 293.654 3.56663C293.201 3.01514 292.338 3.64368 292.11 3.68711C291.07 3.88612 290.186 3.75527 289.317 3.89732C288.748 3.98913 288.692 4.59859 288.245 4.57993C286.76 4.51827 286.242 3.66807 284.842 4.40525C284.542 4.56248 284.84 5.22861 283.765 4.70481C283.697 4.67179 282.899 4.19261 282.438 4.49571C282.38 4.53392 282.382 4.72805 282.305 4.74436C281.793 4.84985 281.452 4.69519 280.894 4.76926C280.336 4.84334 279.666 4.95376 279.029 4.88792C278.645 4.84854 278.153 4.48685 277.969 4.39829C277.45 4.1432 276.894 4.56145 276.573 4.25254C276.249 3.94208 276.882 3.4706 276.032 3.27C276.001 3.77437 275.929 4.29206 275.878 4.79929C274.016 4.78153 272.183 4.61844 270.315 4.64072C270.083 4.64399 270.32 4.91514 270.072 4.92564C269.024 4.96871 268.109 4.77542 267.022 4.85239C266.181 4.91302 265.259 5.20011 264.379 5.27244C263.842 4.69529 262.537 4.89122 261.589 4.83848C261.257 4.82025 261.279 4.66611 261.043 4.61582C260.152 4.42984 260.57 4.93985 260.325 5.02012C259.277 5.36267 259.188 4.20827 257.952 4.23679C257.887 4.23792 257.087 4.85326 256.976 4.89158C256.276 5.14145 256.861 4.6774 256.422 4.63194C255.622 4.54885 255.066 4.4019 254.127 4.58213C253.854 4.63552 253.197 5.01905 252.666 4.72239C252.596 4.68354 252.634 4.48015 252.578 4.46824C251.559 4.26969 251.532 4.90878 250.95 5.12522C250.368 5.34162 249.469 4.90044 249.285 4.77329C248.807 4.44436 249.652 4.63272 249.678 4.60044C249.983 4.2163 249.327 4.28244 248.826 4.24998C248.753 3.62335 248.052 3.66096 248.306 4.21885C248.335 4.27979 248.725 4.22135 248.826 4.24998C248.386 4.86479 247.616 4.94353 246.765 4.369C246.367 4.09972 246.743 3.78576 245.533 3.90061C244.984 3.95246 245.196 4.38393 244.712 4.50156C243.605 4.76996 242.167 4.36747 241.025 4.43089C240.611 4.45391 241.015 4.69009 240.732 4.71397C239.98 4.77806 239.318 4.60085 238.563 4.69163C238.495 4.70015 238.662 4.94739 238.427 4.95054C236.649 4.97925 235.1 4.82089 233.243 4.8165C232.346 4.8145 230.742 4.95085 229.813 4.92344C228.202 4.87738 226.22 4.51786 224.844 4.6052C223.946 4.66111 224.143 4.90839 223.759 5.07688C223.016 5.40348 221.703 4.81847 221.526 4.72788C221.52 4.72488 222.293 4.66659 221.881 4.53965C221.641 4.27515 221.535 4.72674 221.526 4.72788C221.41 4.66936 219.867 4.61323 219.56 4.6605C219.394 4.68633 219.487 4.92062 219.4 4.92966C217.337 5.13933 215.271 5.19888 213.178 5.08933C213.141 5.0846 213.197 4.82253 213.11 4.81467C211.899 4.69815 211.123 5.01874 210.124 5.20908C209.125 5.39934 208.333 5.33561 207.742 4.88572C206.988 4.94236 205.907 4.74347 205.284 4.62278C204.662 4.5021 204.575 5.01223 204.521 5.02231C202.813 5.3451 201.826 5.05311 200.054 5.00767C199.212 4.98519 197.541 5.05918 196.629 5.11497C195.908 5.15991 195.474 5.04035 194.81 5.1168C194.72 5.12701 194.811 5.35414 194.784 5.36289C194.042 5.63465 194.399 5.07937 194.246 4.9802C193.691 4.61956 193.348 4.42749 192.399 4.59715C192.18 4.636 191.542 5.43552 191.143 5.48227C190.624 5.5416 190.82 5.25502 190.277 5.32444C190.23 5.33012 190.24 5.50692 189.905 5.49912C188.348 5.46526 186.651 5.36238 185.034 5.3801C184.813 5.38184 185.096 5.66227 184.777 5.66941C183.279 5.70265 181.637 5.69227 180.178 5.56101C179.819 5.52782 180.044 5.33147 179.966 5.27317C179.487 4.92041 178.808 5.43296 178.696 5.44272C176.025 5.68903 173.98 5.22518 171.257 5.44602C171.108 5.45898 169.967 6.00844 169.458 5.53721C169.423 5.50585 168.92 5.02373 168.474 5.35337C168.447 5.37399 168.761 5.6222 168.213 5.5969C167.665 5.57166 166.784 5.73741 166.031 5.4647C165.793 5.37879 165.229 4.89786 164.518 5.28123C164.472 5.30799 163.374 6.17484 162.983 5.57676C162.919 5.47831 162.986 4.8454 162.137 5.1699C161.975 5.23281 162.269 5.37398 161.842 5.46213C161.188 5.598 160.321 5.42848 159.516 5.71042C159.376 5.76034 158.779 6.18992 158.3 5.86386C158.225 5.8128 158.367 5.6015 158.114 5.57786C156.911 5.46443 155.651 5.60576 154.43 5.45957C153.997 5.4082 154.218 5.06661 153.767 4.97507C153.316 4.88357 152.408 4.79554 151.936 4.95164C151.464 5.1078 151.979 5.65221 151.272 5.69577C148.198 5.88498 145.152 5.56561 142.082 5.5189C141.627 5.51192 142.004 5.70672 141.333 5.71042C138.86 5.72492 134.589 5.90757 132.442 5.49363C130.722 5.16208 132.886 4.90967 131.572 4.77476C130.938 4.7104 130.252 5.34333 130.099 5.36326C128.603 5.56567 127.564 5.28529 126.218 5.37131C125.94 5.38916 126.212 5.6457 125.976 5.65806C125.167 5.70254 124.318 5.58804 123.546 5.60898C123.2 5.61897 123.263 5.8149 122.945 5.79978C122.182 5.76585 121.507 5.68349 120.764 5.49985C120.696 5.48312 121.153 5.23939 120.589 5.23032C119.675 5.21634 118.542 5.03518 117.491 5.22227C117.179 5.27854 117.167 5.72634 116.497 5.41709C116.356 5.3525 116.535 4.81479 115.755 5.27939C115.623 5.3566 114.312 5.98326 113.668 5.57932C113.499 5.47301 113.065 5.033 112.69 5.10215C112.639 5.11318 112.843 5.35371 112.532 5.37717C111.437 5.45567 110.29 5.43001 109.165 5.50535C108.865 5.52594 109.312 5.77484 108.864 5.79758C107.633 5.86049 106.096 5.79712 104.892 5.71921C104.448 5.69002 104.755 5.48384 104.723 5.4614C104.203 5.09645 103.896 5.58905 103.724 5.61777C102.652 5.78976 101.835 5.55837 100.847 5.6196C100.575 5.63588 100.768 5.87075 100.714 5.8917C100.151 6.09633 100.57 5.67452 100.214 5.62803C99.2153 5.49637 98.1024 5.51525 97.0928 5.54526C96.7219 5.55663 97.1387 5.82898 96.8059 5.83603C94.8361 5.88296 92.7884 5.8569 90.866 5.70676C90.504 5.678 90.7318 5.46828 90.6563 5.42038C90.1364 5.08527 89.3744 5.54237 89.199 5.58591C88.4017 5.78472 88.0921 5.59927 87.388 5.63389C83.9485 5.80623 79.7018 5.6834 76.4551 5.60752C72.2244 5.50986 68.9415 5.31035 64.9071 5.36216C64.6506 5.36519 64.9092 5.64417 64.6882 5.65036C61.8344 5.71762 59.0249 5.6086 56.1654 5.68918C55.9307 5.6953 56.269 5.95978 55.8923 5.97849C55.1198 6.01872 54.1412 6.00434 53.3601 5.91989C52.9792 5.87921 53.4902 5.65226 53.1067 5.61594C52.2138 5.53085 51.2567 5.51202 50.3395 5.55442C49.9492 5.57304 50.5381 5.84353 50.0308 5.84665C46.575 5.87349 43.1811 5.92007 39.6889 5.5698C39.4495 5.54574 39.2394 4.99599 38.7304 5.10142C38.692 5.25399 38.6941 5.43346 38.6774 5.59653C33.6467 5.68438 28.6673 5.4938 23.6225 5.46433C23.4098 5.46315 23.7774 5.75444 23.3656 5.75364C20.9822 5.74933 18.6678 5.83002 16.2299 5.5405C15.988 5.51219 16.1121 4.99974 15.3993 5.07725C15.2735 5.09139 14.1999 5.15973 13.9223 5.27097C13.8846 5.28775 14.0805 5.52694 13.7346 5.53391C11.7241 5.57023 9.61727 5.51563 7.6103 5.36948C7.2864 5.34544 7.63133 5.09072 7.40063 5.07139C5.76414 4.93617 3.9841 5.1298 2.42036 4.89854C1.37364 4.74282 1.76117 4.30252 1.20495 3.86912C1.12628 3.80797 0.478126 3.79828 0.444608 3.54612C0.358557 2.91204 0.672504 2.21773 0.543683 1.54186C0.516467 1.39628 -0.351584 1.55308 0.162358 1.20128C0.198262 1.17774 0.827604 1.06098 0.982611 0.941639C1.09053 0.859129 0.896055 0.602682 1.11625 0.497061C1.33642 0.391538 1.57837 0.606507 1.94341 0.482412C2.3083 0.356782 2.14786 0.0650439 2.87657 0.0305095ZM202.483 4.08335C201.906 3.83837 201.821 4.73565 202.445 4.52097C202.475 4.50953 202.512 4.09537 202.483 4.08335ZM272.194 3.94163C271.441 3.54586 270.925 4.1278 271.456 4.43345C271.988 4.73877 272.423 4.0616 272.194 3.94163ZM280.005 3.65269C279.124 3.34065 278.986 4.61303 279.929 4.35581C279.983 4.34128 280.056 3.67081 280.005 3.65269ZM3.78437 3.74571C3.77642 3.73379 3.3105 3.72218 3.29937 3.73399C3.05127 4.01896 3.98292 4.04199 3.78437 3.74571ZM287.756 3.33812C287.481 3.166 286.689 3.36469 287.031 3.57872C287.306 3.7509 288.098 3.55222 287.756 3.33812ZM172.427 3.12571C172.418 3.11234 172.084 3.1003 172.091 3.17589C172.113 3.41932 172.578 3.35061 172.427 3.12571ZM300.929 3.32347C298.983 3.27557 297.803 2.22452 299.922 2.34312C300.306 2.36458 299.095 2.6783 299.584 2.77305C300.477 2.94569 301.071 2.28576 301.983 2.63939C302.148 2.70411 301.04 3.32854 300.926 3.32493C300.927 3.32444 300.928 3.32396 300.929 3.32347ZM202.151 3.0056C202.139 2.99373 201.677 2.98248 201.666 2.99425C201.415 3.27911 202.347 3.30194 202.151 3.0056ZM152.936 2.57091C152.91 2.54562 151.837 2.52198 151.802 2.54527C151.242 3.0111 153.412 3.06029 152.936 2.57091ZM233.293 2.34898C233.797 2.06241 234.401 2.02867 234.803 2.38853C234.302 2.36943 233.797 2.36662 233.293 2.34898Z" fill="#FA4616"/>
</svg>
