<svg width="497" height="332" viewBox="0 0 497 332" fill="none" xmlns="http://www.w3.org/2000/svg">
<path d="M0.333264 128.394C0.331937 129.414 0.321889 133.521 0.318642 135.298C0.314681 133.283 0.338199 124.711 0.333264 128.394ZM1.20273 310.738C1.19653 309.264 1.19037 307.789 1.18424 306.314C1.18766 310.505 1.19865 316.139 1.20016 320.029C1.20038 320.665 1.18612 319.015 1.18765 320.52C1.18916 322.026 1.2052 321.735 1.21003 323.925C1.21235 324.986 1.21444 327.685 1.21642 330.724L0.614258 330.121C4.61366 330.119 9.20112 330.116 11.4145 330.113C25.9825 330.093 40.6758 330.064 55.273 330.054C40.2031 330.086 55.3887 330.081 59.6097 330.071C60.545 330.068 60.3956 330.033 75.5153 330.024C85.1241 330.019 76.2493 330.081 92.2833 330.037C79.9535 330.014 92.0784 330.003 101.744 329.991C103.41 329.989 116.866 329.98 122.81 329.972C124.844 329.97 127.943 329.946 130.641 329.943C132.497 329.94 133.901 329.95 136.658 329.947C149.509 329.931 162.148 329.918 175.021 329.911C167.498 329.973 180.927 329.929 181.53 329.931C184.597 329.944 170.725 329.96 176.211 329.965C183.877 329.957 191.544 329.949 199.21 329.941C192.918 329.939 207.54 329.886 210.232 329.903C209.047 329.852 245.173 329.922 250.672 329.902C251.817 329.897 244.32 329.876 261.712 329.877C263.596 329.877 262.883 329.893 263.871 329.891C264.463 329.89 268.044 329.836 271.859 329.862C273.252 329.872 264.339 329.911 283.912 329.886C276.117 329.838 311.052 329.842 317.48 329.853C316.196 329.847 314.911 329.84 313.627 329.833C319.981 329.85 321.128 329.831 322.559 329.831C328.327 329.833 336.257 329.848 341.631 329.844C347.919 329.839 347.94 329.805 355.27 329.816C353.531 329.809 351.792 329.802 350.052 329.795C355.115 329.795 360.178 329.795 365.24 329.795C353.517 329.844 367.77 329.796 368.709 329.795C370.206 329.792 368.054 329.812 370.559 329.809C370.818 329.808 370.444 329.791 374.304 329.787C382.37 329.781 381.095 329.803 384.482 329.802C384.792 329.802 383.706 329.786 389.555 329.781C408.146 329.763 389.463 329.793 388.75 329.795C387.813 329.798 394.187 329.863 378.395 329.844C383.698 329.85 384.231 329.879 384.828 329.88C385.357 329.88 394.544 329.874 395.05 329.873C399.566 329.861 395.592 329.842 396.473 329.838C397.192 329.835 408.261 329.859 410.855 329.797C416.151 329.852 407.808 329.849 398.927 329.86C397.632 329.872 407.384 329.881 407.897 329.88C420.476 329.878 413.512 329.833 416.262 329.803C417.706 329.787 422.832 329.817 418.1 329.777C429.517 329.77 422.593 329.796 423.33 329.799C424.443 329.804 428.438 329.791 428.938 329.793C429.672 329.795 427.121 329.81 430.015 329.815C430.496 329.815 435.159 329.79 429.146 329.779C437.179 329.781 436.518 329.76 439.242 329.802C444.775 329.721 443.257 329.849 445.436 329.854C451.229 329.865 449.548 329.801 449.854 329.798C451.962 329.778 468.001 329.798 471.972 329.789C470.405 329.835 459.258 329.791 456.765 329.8C448.455 329.83 468.478 329.822 462.443 329.88C464.973 329.864 467.503 329.848 470.034 329.832C474.673 329.868 468.091 329.885 480.577 329.871C482.618 329.839 471.749 329.876 473.93 329.851C475.215 329.836 482.455 329.833 482.597 329.825C482.74 329.815 476.197 329.827 477.228 329.812C479.48 329.781 503.345 329.81 485.178 329.827C489.585 329.827 492.134 329.874 495.614 329.873L494.764 330.724C494.764 330.202 494.763 329.66 494.76 329.088C494.756 328.025 494.741 329.595 494.725 330.724L495.614 329.834C495.614 329.834 495.614 329.834 495.614 329.834C494.648 329.82 494.006 329.806 495.614 329.796L494.687 330.724C494.678 329.185 494.673 325.589 494.678 318.249C494.707 317.738 494.686 327.838 494.689 328.1C494.692 328.468 494.758 326.641 494.761 326.325C494.772 325.206 494.737 300.714 494.771 295.539C494.733 297.588 494.766 277.032 494.755 274.793C494.752 274.197 494.729 276.425 494.726 275.788C494.712 271.813 494.755 261.062 494.757 256.074C494.76 250.493 494.74 251.2 494.74 250.888C494.741 248.432 494.754 250.394 494.755 248.892C494.755 246.624 494.761 231.038 494.759 230.255C494.758 230.026 494.735 232.571 494.731 229.173C494.731 228.584 494.757 228.957 494.749 218.894C494.738 206.775 494.713 227.31 494.686 222.274C494.729 214.489 494.689 214.742 494.693 212.631C494.694 211.9 494.729 206.46 494.729 200.552C494.733 204.793 494.737 209.033 494.742 213.273C494.749 209.105 494.744 201.01 494.752 197.575C494.756 195.9 494.783 197.281 494.783 193.641C494.783 192.869 494.717 189.804 494.744 199.338C494.72 200.1 494.737 195.563 494.731 193.459C494.73 193.141 494.691 191.885 494.716 189.198C494.723 188.553 494.836 195.578 494.759 177.459C494.757 176.875 494.741 178.904 494.739 178.334C494.737 177.944 494.745 173.318 494.743 172.807C494.741 172.285 494.724 174.519 494.721 173.896C494.707 170.706 494.771 166.518 494.763 173.097C494.772 170.898 494.781 168.699 494.789 166.501C494.741 168.854 494.777 163.047 494.777 160.005C494.777 140.507 494.741 153.563 494.727 150.211C494.704 144.819 494.782 148.937 494.762 140.933C494.76 140.193 494.721 149.868 494.75 130.976C494.75 133.764 494.75 136.552 494.75 139.341C494.795 137.733 494.752 129.272 494.752 128.622C494.75 121.203 494.763 126.218 494.746 115.202C494.745 114.218 494.757 112.075 494.753 109.972C494.736 101.251 494.732 121.478 494.714 122.032C494.705 122.293 494.721 100.541 494.726 99.7939C494.746 96.623 494.727 109.655 494.752 107.171C494.76 106.264 494.764 75.2603 494.777 69.0401C494.793 61.8623 494.852 58.6311 494.788 58.5853C494.852 56.5595 494.811 54.7706 494.812 53.852C494.826 42.7522 494.826 42.7317 494.828 33.2131C494.828 31.1113 494.848 29.3365 494.846 28.5931C494.844 28.1605 494.824 28.9692 494.819 26.8496C494.813 23.9052 494.849 6.21037 494.86 4.8952C494.872 3.58006 494.859 12.3678 494.878 10.7929C494.881 7.3906 494.883 4.0628 494.886 0.723511L495.614 1.4522C492.71 1.45034 489.798 1.44833 486.82 1.4449C484.16 1.44179 485.527 1.43086 484.378 1.42963C483.888 1.42912 474.705 1.4317 475.094 1.4364C475.73 1.44418 489.757 1.45543 495.614 1.46627L494.871 0.723511C494.867 3.2522 494.862 4.25801 494.857 2.00614C494.857 1.70721 494.858 1.25131 494.859 0.723511L495.614 1.47841C493.598 1.47252 490.534 1.45781 491.175 1.48547C465.839 1.45501 440.502 1.42267 415.166 1.38868C429.723 1.38089 446.106 1.41795 461.353 1.43023C463.443 1.43192 470.508 1.44167 469.649 1.42403C456.683 1.40816 440.563 1.40117 428.113 1.37827C427.714 1.37753 429.177 1.36469 427.685 1.36098C424.895 1.35417 415.812 1.3678 414.285 1.36031C414.023 1.35873 419.193 1.34542 417.621 1.33208C413.585 1.29814 412.561 1.36365 409.092 1.35914C406.409 1.35552 388.38 1.30567 383.89 1.32019C379.115 1.33549 397.177 1.34669 395.842 1.36234C383.622 1.36584 371.248 1.3332 359.701 1.32156C359.497 1.32135 361.264 1.33611 358.687 1.33469C354.204 1.33217 353.027 1.31306 350.845 1.30762C348.491 1.30181 340.168 1.29402 339.056 1.28639C338.914 1.28542 340.6 1.2705 340.856 1.27031C344.481 1.26755 345.769 1.29132 346.099 1.29203C347.338 1.29439 348.556 1.28726 349.687 1.28911C351.548 1.29216 352.573 1.30139 355.03 1.30504C356.726 1.30758 355.09 1.29015 356.724 1.29276C357.323 1.29366 363.793 1.33719 364.396 1.30116C364.583 1.28993 311.677 1.21488 306.388 1.21583C310.924 1.22536 315.46 1.23494 319.997 1.24458C310.785 1.22375 299.72 1.23499 298.936 1.19652C264.777 1.15125 230.618 1.10269 196.459 1.05109C190.36 1.03996 193.704 1.02822 183.669 1.0189C186.262 1.02767 188.855 1.03661 191.449 1.0457C186.305 1.03435 163.515 0.994356 159.826 0.991713C159.349 0.991371 158.686 1.00324 152.991 0.995127C147.938 0.987904 147.126 0.977632 144.424 0.971766C142.156 0.966859 139.609 0.965117 138.936 0.963574C138.419 0.962383 138.215 0.956903 136.972 0.954106C133.048 0.945383 136.228 0.964307 132.333 0.942209C133.281 0.943037 134.23 0.943851 135.178 0.944649C130.442 0.935061 123.973 0.918819 130.948 0.925258C132.147 0.926342 131.118 0.929635 132.012 0.930914C167.038 0.979566 139.069 0.930562 126.794 0.920707C123.642 0.909513 105.974 0.888387 105.387 0.886184C104.571 0.883422 107.594 0.882961 103.631 0.873606C102.797 0.871851 79.1754 0.841934 87.6814 0.847258C89.4366 0.848293 100.762 0.864728 103.493 0.868108C97.0687 0.84847 82.0103 0.844433 80.3171 0.840939C73.4866 0.830363 93.4394 0.849944 78.0512 0.828767C66.2187 0.812593 77.3275 0.832984 72.7766 0.829319C70.2192 0.826856 56.8285 0.802874 57.192 0.809842C52.5956 0.803726 55.2858 0.80442 54.7183 0.803346C54.1635 0.802448 45.1263 0.790987 42.1927 0.785609C41.8369 0.784979 42.9572 0.784071 42.5893 0.783341C41.8737 0.782027 33.1583 0.770339 32.808 0.769958C32.5852 0.769731 34.663 0.774477 33.8088 0.773663C32.8135 0.772682 24.4268 0.759764 23.9646 0.759414C23.3113 0.758969 33.6648 0.774304 31.9394 0.773531C27.167 0.76568 19.3916 0.754474 16.2415 0.749843C17.0135 0.750933 21.6408 0.758495 23.247 0.761239C22.4909 0.762073 12.5552 0.744596 15.9519 0.749454C13.7932 0.74636 15.267 0.749141 14.0511 0.747499C13.7322 0.747059 10.6643 0.741615 10.0731 0.740684C9.99621 0.740549 13.1616 0.746679 12.5279 0.745748C11.3803 0.744052 2.07898 0.726278 1.31779 0.724845C-0.824326 0.720853 6.75915 0.734935 7.39175 0.735704C7.48152 0.735723 1.03149 0.724125 0.933848 0.724061C0.556669 0.723408 7.73406 0.735545 6.9134 0.733803C5.13843 0.730831 3.36339 0.72792 1.58843 0.725069C8.43497 0.73579 21.1014 0.755422 24.3674 0.758597C14.2165 0.744314 3.59303 0.727681 3.61517 0.727574C3.62239 0.727471 8.00172 0.73274 7.83234 0.732361C7.1866 0.731191 1.10698 0.724235 0.883485 0.723843C0.69862 0.723614 0.614281 0.723511 0.614258 0.723511C0.614651 0.723623 9.28063 0.733602 9.71433 0.733862C10.4435 0.734306 6.58633 0.729299 6.59239 0.729272C6.72669 0.729432 12.8982 0.734909 10.8158 0.7325C8.70898 0.730176 3.30715 0.725785 3.11796 0.725595C2.08631 0.724777 11.5348 0.732067 11.8166 0.732003C11.9653 0.73196 6.891 0.727836 6.74345 0.727714C6.61694 0.727559 10.4732 0.729906 11.9929 0.730223C13.1258 0.730444 9.82666 0.728364 10.4067 0.728639C10.8213 0.728827 19.7489 0.733432 20.188 0.733523C20.8417 0.733657 18.7505 0.731864 19.055 0.731833C19.4867 0.731746 22.3695 0.733303 21.9945 0.732817C21.7124 0.732075 10.5359 0.7259 10.6081 0.725966C10.7358 0.725432 22.5719 0.729266 11.5586 0.724312C11.4816 0.724299 8.80075 0.724258 8.72614 0.724228C7.07183 0.723911 15.6657 0.723122 5.1573 0.723424C24.7053 0.721871 7.5899 0.722304 10.4822 0.721273C11.5992 0.72067 19.1771 0.718244 19.2124 0.718097C18.4759 0.717344 16.0616 0.718833 15.2407 0.718685C14.7891 0.718725 21.569 0.715218 20.0432 0.715034C19.2543 0.715001 12.0571 0.718363 11.76 0.718446C8.91174 0.719414 12.4046 0.71735 11.7788 0.717355C11.3631 0.717385 7.0202 0.719851 6.90708 0.719899C6.72414 0.720048 12.6212 0.715907 13.8497 0.714668C14.7834 0.713774 11.2783 0.715855 11.9299 0.715327C15.8559 0.711838 24.2084 0.707549 16.1597 0.710815C15.6683 0.711051 12.6237 0.71361 12.5341 0.713656C10.6526 0.714697 16.2582 0.709867 17.2612 0.708277C18.9828 0.705491 10.9259 0.713882 17.6262 0.706635C12.5997 0.710873 9.79908 0.714045 3.91729 0.720107C20.2029 0.703896 25.951 0.691996 7.8701 0.714564C13.6217 0.707613 12.9837 0.707129 14.6994 0.704844C15.7663 0.703307 24.1059 0.694455 20.2824 0.69513C19.8025 0.695289 14.7368 0.70321 16.3233 0.700023C28.4817 0.68236 16.5812 0.69892 16.5688 0.698972C16.7261 0.696361 46.4351 0.652242 51.5397 0.644964C57.4632 0.635451 62.7274 0.621307 64.015 0.61916C68.2513 0.61248 64.7358 0.62127 65.683 0.620985C66.6433 0.62093 78.6895 0.595702 79.2912 0.594953C81.6245 0.593021 79.2563 0.601329 79.4989 0.601166C82.388 0.59983 98.5666 0.572523 103.096 0.567326C102.956 0.563553 93.8621 0.576846 99.5398 0.562381C106.151 0.544995 106.53 0.561791 106.703 0.562382C136.995 0.519369 167.287 0.478931 197.579 0.441093C197.202 0.425183 177.397 0.463027 176.947 0.461494C174.301 0.453577 207.757 0.408545 211.861 0.40991C208.743 0.410115 205.625 0.410493 202.508 0.411044C207.831 0.384345 219.613 0.394368 227.313 0.375654C229.801 0.369378 225.024 0.367472 225.123 0.366833C227.919 0.354869 232.405 0.355245 229.051 0.370795C235.876 0.351208 234.879 0.364319 240.116 0.358648C240.386 0.358321 238.137 0.352342 242.281 0.343218C244.223 0.338906 254.579 0.325544 255.965 0.315497C256.535 0.311109 251.282 0.282196 250.634 0.314076C239.37 0.314494 247.035 0.332804 242.659 0.337897C241.988 0.338627 243.532 0.319762 232.512 0.34267C234.611 0.310387 247.3 0.314514 249.476 0.308131C253.961 0.293814 235.476 0.304982 232.084 0.332775C233.669 0.307706 230.773 0.331623 226.653 0.336558C222.142 0.342072 224.108 0.332667 221.667 0.336232C214.993 0.346048 217.76 0.356934 212.258 0.351587C217.622 0.38556 202.838 0.370243 198.53 0.367288C205.539 0.354398 212.549 0.341508 219.559 0.328627C219.158 0.326991 218.757 0.325367 218.357 0.323753C220.203 0.321196 222.049 0.318658 223.896 0.316141C223.6 0.318786 223.304 0.321424 223.008 0.324056C232.529 0.295167 234.852 0.30801 235.628 0.307148C245.622 0.29432 257.165 0.27771 267.269 0.263705C268.785 0.261693 267.745 0.24625 278.794 0.244133C282.319 0.243584 278.991 0.261419 282.986 0.254119C287.983 0.210787 287.889 0.240099 289.375 0.238268C293.638 0.232653 296.244 0.219867 296.638 0.219227C301.906 0.210722 309.621 0.202212 315.408 0.19333C315.517 0.193023 312.506 0.184778 316.264 0.183466C317.584 0.182583 329.423 0.221316 339.773 0.191982C337.081 0.191388 334.389 0.190886 331.698 0.190477C334.863 0.191767 357.042 0.151723 351.619 0.142897C348.295 0.137843 340.179 0.183409 339.288 0.150328C346.669 0.150968 387.432 0.0869943 390.606 0.0924801C391.045 0.093254 388.344 0.108474 388.95 0.10936C389.42 0.110022 398.757 0.0969738 399.997 0.100466C400.734 0.102536 396.608 0.114503 396.944 0.118602C397.238 0.121393 408.898 0.114953 409.564 0.0984318C406.7 0.107678 398.652 0.11055 402.873 0.0929209C403.416 0.0906876 406.229 0.0978791 406.889 0.0951101C413.009 0.0692142 394.72 0.0934542 391.89 0.0965244C403.378 0.0638351 421.147 0.0686163 434.458 0.0418866C439.837 0.0502874 426.484 0.0707301 432.569 0.0760732C445.194 0.0876628 435.929 0.0537385 436.321 0.05168C439.457 0.0343223 450.137 0.0998372 450.143 0.0422254C454.72 0.0466101 453.239 0.0553665 459.698 0.0418137C458.848 0.0385359 457.998 0.0352747 457.149 0.0320301C464.32 -0.00909442 479.498 0.0642387 478.36 0.0723282C475.301 0.0925845 467.397 0.0713486 466.722 0.0726794C465.723 0.0747102 462.961 0.136061 452.025 0.0925574C447.547 0.135564 469.357 0.105069 459.433 0.140178C465.41 0.131212 487.982 0.136706 495.614 0.123723L496.215 0.124305L496.214 0.723511C496.216 1.65036 496.218 2.35678 496.22 2.78663C496.223 3.26006 496.263 1.05428 496.246 7.86609C496.238 11.0999 496.232 3.30204 496.224 4.78189C496.199 9.33504 496.255 71.2625 496.262 83.0259C496.262 83.7892 496.248 83.5092 496.249 84.2596C496.25 86.5642 496.276 94.9638 496.271 99.0889C496.293 90.5423 496.303 107.14 496.302 111.363C496.301 117.771 496.276 117.375 496.271 120.143C496.255 130.814 496.323 147.347 496.268 155.637C496.325 155.183 496.246 169.975 496.247 176.704C496.248 181.974 496.288 189.621 496.309 182.507C496.31 191.605 496.323 201.182 496.329 209.717C496.33 211.128 496.312 209.185 496.314 211.593C496.315 211.811 496.331 212.113 496.334 214.18C496.353 231.242 496.315 222.94 496.305 226.132C496.299 227.919 496.297 229.237 496.296 230.205C496.29 220.259 496.281 208.788 496.28 205.72C496.243 208.337 496.292 227.763 496.283 233.453C496.283 233.65 496.262 232.963 496.262 233.163C496.262 233.167 496.262 233.171 496.262 233.176C496.261 235.308 496.271 248.887 496.295 246.092C496.301 245.341 496.3 239.091 496.297 231.678C496.302 233.684 496.324 232.186 496.325 232.54C496.338 236.833 496.317 247.352 496.315 251.083C496.314 251.936 496.329 251.875 496.329 252.014C496.326 255.408 496.283 254.016 496.328 257.497C496.276 263.642 496.318 245.98 496.284 247.224C496.258 248.181 496.277 287.411 496.319 287.294C496.314 287.429 496.309 287.969 496.302 289.075C496.289 291.529 496.294 302.448 496.302 304.332C496.303 304.65 496.344 304.523 496.344 304.918C496.345 305.904 496.314 319.25 496.338 324.235C496.344 321.543 496.349 318.851 496.355 316.159C496.356 332.415 496.368 329.903 496.38 324.487C496.38 324.216 496.382 323.952 496.382 323.694C496.391 319.496 496.399 314.114 496.403 314.032C496.41 313.845 496.416 323.952 496.411 330.724V331.52H495.614C495.614 331.52 495.614 331.52 495.614 331.52C491.24 331.516 488.257 331.508 490.339 331.493C490.663 331.491 493.292 331.493 495.614 331.494H496.385V330.724C496.385 327.742 496.384 325.266 496.369 328.817C496.368 329.091 496.367 329.803 496.367 330.724C496.367 330.724 496.367 330.724 496.367 330.724V331.476H495.614C492.825 331.476 488.113 331.48 487.79 331.478C486.14 331.467 491.309 331.453 495.614 331.438H496.329V330.724C496.318 327.515 496.306 324.786 496.294 325.72C496.304 327.26 496.308 328.955 496.31 330.724V331.419H495.614C495.614 331.419 495.614 331.419 495.614 331.419C492.396 331.423 488.934 331.419 485.719 331.423C483.452 331.426 482.896 331.447 482.616 331.447C478.437 331.452 480.782 331.431 479.387 331.431C478.638 331.432 470.403 331.477 471.96 331.414C444.826 331.459 464.454 331.46 481.099 331.457C475.84 331.48 465.528 331.468 460.901 331.473C459.24 331.475 460.225 331.496 457.42 331.5C451.648 331.509 424.09 331.481 416.91 331.474C421.319 331.467 420.03 331.444 416.627 331.445C413.223 331.446 416.082 331.477 415.418 331.48C414.707 331.484 398.739 331.466 396.082 331.469C408.104 331.461 405.392 331.438 395.189 331.433C396.664 331.427 398.138 331.421 399.613 331.415C393.633 331.423 381.06 331.386 377.602 331.395C377.06 331.396 379.008 331.416 378.704 331.417C375.672 331.424 365.355 331.402 364.875 331.408C364.468 331.413 368.869 331.43 367.236 331.438C366.895 331.439 362.652 331.413 358.474 331.418C356.924 331.42 357.857 331.438 357.467 331.438C354.212 331.446 356.133 331.417 350.185 331.42C345.827 331.422 342.58 331.45 336.557 331.438C356.333 331.482 339.709 331.461 331.44 331.469C330.115 331.47 331.251 331.502 323.333 331.484C340.183 331.433 318.529 331.452 314.1 331.449C313.857 331.449 313.773 331.428 311.601 331.427C311.417 331.427 311.681 331.441 309.662 331.441C290.513 331.443 302.757 331.433 299.119 331.418C297.57 331.411 288.258 331.427 285.75 331.426C285.173 331.426 285.439 331.411 283.207 331.411C279.26 331.41 275.723 331.424 273.118 331.423C272.813 331.423 272.801 331.401 267.862 331.406C266.473 331.407 264.914 331.414 266.886 331.422C273.427 331.446 285.835 331.415 293.228 331.44C299.969 331.463 278.711 331.455 277.605 331.454C277.2 331.454 281.351 331.445 277.133 331.44C273.531 331.437 266.948 331.472 261.58 331.461C261.171 331.46 256.882 331.425 257.08 331.423C257.259 331.422 263.846 331.418 262.889 331.408C262.775 331.407 258.589 331.405 258.043 331.398C257.374 331.389 255.569 331.305 254.675 331.303C252.381 331.296 253.874 331.316 252.391 331.314C249.209 331.31 238.172 331.28 237.813 331.309C239.636 331.311 241.46 331.314 243.283 331.316C233.139 331.314 237.463 331.328 236.025 331.333C234.478 331.338 234.913 331.313 231.494 331.309C230.75 331.308 216.442 331.306 216.702 331.316C224.614 331.304 221.681 331.333 222.046 331.334C223.432 331.337 225.203 331.32 227.062 331.322C240.144 331.331 226.951 331.352 230.04 331.36C231.103 331.363 233.22 331.35 233.671 331.351C235.137 331.354 235.161 331.373 236.139 331.372C238.42 331.37 235.757 331.341 235.937 331.34C237.976 331.323 245.965 331.349 240.992 331.376C243.977 331.389 244.327 331.352 246.694 331.368C251.401 331.4 244.35 331.389 242.439 331.392C235.586 331.406 233.553 331.391 223.852 331.39C220.359 331.389 216.221 331.404 214.6 331.404C213.579 331.404 203.938 331.338 203.654 331.431C199.906 331.419 194.026 331.354 190.165 331.355C186.699 331.355 187.801 331.388 187.478 331.389C186.982 331.391 182.79 331.385 181.372 331.389C179.711 331.393 180.54 331.406 177.904 331.409C171.344 331.416 171.516 331.384 170.842 331.381C163.015 331.351 166.442 331.4 164.705 331.402C163.09 331.404 140.433 331.368 135.663 331.376C137.604 331.371 139.545 331.366 141.486 331.362C138.013 331.339 134.331 331.368 134.266 331.333C133.561 331.389 126.393 331.345 124.239 331.345C123.391 331.345 123.457 331.354 122.395 331.354C118.246 331.352 108.891 331.336 106.64 331.339C96.9076 331.349 121.795 331.406 123.755 331.411C119.833 331.407 97.6433 331.396 107.843 331.433C109.419 331.438 112.213 331.417 113.098 331.417C119.092 331.416 114.378 331.434 114.848 331.436C115.647 331.44 119.592 331.423 120.633 331.427C120.98 331.428 118.744 331.446 124.46 331.452C121.648 331.468 105.582 331.436 103.474 331.438C102.724 331.439 107.43 331.484 93.6806 331.43C93.84 331.434 93.9995 331.438 94.159 331.442C86.503 331.435 78.8471 331.428 71.1912 331.42C72.0232 331.413 76.3218 331.401 70.9079 331.399C67.791 331.397 70.0971 331.418 69.8127 331.418C67.0157 331.421 17.5092 331.352 7.9149 331.34C6.3204 331.338 3.33337 331.338 0.614258 331.337L-0.000138819 331.336L0.00075227 330.724C0.00134343 327.877 0.00162929 325.325 0.00201595 324.97C0.00666213 320.822 0.0359934 306.134 0.0386351 303.204C0.0402614 301.375 0.0252543 303.114 0.0283021 301.48C0.0311557 299.96 0.0407378 301.534 0.0419173 301.083C0.0511902 297.345 0.0801448 268.952 0.101575 262.21C0.0914797 266.33 0.0823905 286.894 0.0916101 286.48C0.092878 286.391 0.108724 281.393 0.106005 280.362C0.118111 278.659 0.0972798 272.811 0.107961 269.631C0.109128 269.271 0.123291 270.688 0.134503 265.011C0.138267 263.055 0.133814 257.935 0.155067 252.781C0.15988 245.32 0.238715 206.094 0.229456 203.402C0.228895 203.323 0.214987 208.846 0.215482 205.114C0.216292 200.153 0.234191 204.609 0.245621 198.826C0.247227 197.955 0.271078 181.868 0.270684 181.341C0.26628 176.469 0.236717 190.526 0.23543 190.329C0.232255 189.839 0.250797 178.159 0.252584 177.684C0.254147 177.232 0.254466 186.758 0.267993 175.311C0.263729 176.622 0.259433 177.934 0.255105 179.245C0.26081 173.862 0.273112 173.348 0.276037 172.044C0.285013 167.99 0.276945 163.604 0.308104 157.108C0.316223 155.39 0.31703 158.242 0.318202 158.027C0.328496 155.964 0.314823 153.331 0.333542 150.228C0.334842 149.995 0.331036 157.216 0.351772 144.595C0.349108 145.464 0.346426 146.332 0.343727 147.201C0.343787 145.421 0.36414 132.643 0.367779 130.924C0.37818 125.902 0.378592 130.282 0.386151 125.234C0.369709 128.471 0.395802 113.122 0.402572 114.005C0.39581 111.861 0.427258 98.822 0.438241 92.6925C0.445209 88.825 0.456285 80.9362 0.459051 79.7075C0.462312 78.2105 0.466545 78.6654 0.472476 75.9624C0.47399 75.1916 0.485648 67.145 0.502696 60.0819C0.506059 58.7131 0.517249 55.8383 0.514551 58.3825C0.510262 62.7373 0.490907 70.9754 0.495558 70.8703C0.50064 70.7468 0.515359 59.6508 0.520857 56.6641C0.545318 42.8757 0.535931 50.8378 0.537853 50.4832C0.542003 49.5636 0.552696 42.0296 0.553384 41.7153C0.556108 40.4124 0.550438 45.7511 0.551948 45.8317C0.553982 45.929 0.56642 38.667 0.564877 40.3179C0.562951 42.6812 0.551855 49.355 0.551382 49.7782C0.546826 55.2863 0.561074 47.7363 0.565262 45.6555C0.5666 45.0247 0.565157 47.538 0.565913 47.015C0.576992 39.0316 0.561347 45.3321 0.567951 40.0221C0.573824 35.2845 0.569518 41.3801 0.569975 41.1991C0.570386 40.9652 0.576591 35.3007 0.578308 34.4139C0.578686 33.9769 0.569751 48.6999 0.573623 48.0851C0.576926 43.3874 0.58044 38.6898 0.58417 33.9922C0.587033 33.6239 0.579415 40.3807 0.579051 41.0795C0.578533 42.4864 0.583304 38.5634 0.58404 38.7318C0.584465 38.8221 0.583414 43.4264 0.5872 39.2668C0.588387 37.8372 0.588792 34.837 0.594105 29.6303C0.584373 47.7505 0.594613 35.1935 0.595433 34.6594C0.596479 34.1362 0.594761 42.7869 0.599243 32.2864C0.604138 31.8312 0.600636 32.5128 0.600297 35.4965C0.600071 39.1517 0.604873 30.7039 0.598848 44.063C0.6022 43.303 0.604892 32.5654 0.605261 31.9969C0.605537 31.506 0.606021 33.8928 0.606617 33.0418C0.612671 22.9756 0.609439 29.8895 0.612233 26.9741C0.612556 26.7148 0.613631 17.2007 0.613671 24.4438C0.614385 37.6397 0.609685 43.1547 0.619171 45.3722C0.621495 35.6116 0.6152 23.7854 0.615551 20.8183C0.615187 16.2768 0.616324 20.9814 0.616557 20.4217C0.616611 20.2274 0.616086 16.3138 0.616135 16.2612C0.618333 13.4706 0.619001 33.6835 0.620144 40.0473C0.620842 38.3415 0.621418 36.6358 0.621873 34.93C0.62241 37.2442 0.622952 39.5584 0.623498 41.8726C0.62292 30.8478 0.623749 41.4839 0.630457 44.233C0.632001 44.8501 0.626939 37.6073 0.633765 45.8695C0.632041 39.7756 0.633752 41.7194 0.629988 36.2015C0.631678 36.3439 0.640388 48.7588 0.644706 53.6555C0.637417 36.3566 0.635258 46.2215 0.631106 31.2668C0.627745 28.4936 0.631652 35.6317 0.63099 35.0496C0.628901 32.9613 0.627803 28.0656 0.622367 22.159C0.621611 21.1972 0.62131 25.2668 0.619651 19.2447C0.619528 18.5787 0.619238 14.7415 0.619262 14.7947C0.620091 15.3034 0.621316 19.1005 0.621721 19.2573C0.62212 19.4044 0.620186 15.1681 0.620261 15.1534C0.621035 15.0233 0.622139 18.6881 0.622196 18.1558C0.622843 17.0063 0.615359 1.76817 0.626423 21.6554C0.616119 5.13694 0.624041 19.5406 0.627923 25.9733C0.628951 27.6137 0.630092 28.0292 0.631808 30.3667C0.634042 33.3735 0.635564 36.8927 0.636678 38.4485C0.638045 40.1219 0.634942 30.6141 0.642852 44.3651C0.641451 37.3668 0.630188 25.0052 0.626747 18.1306C0.617797 4.26105 0.636971 27.8011 0.639707 30.2534C0.640369 30.9067 0.639805 28.7164 0.640254 29.1519C0.641121 29.8641 0.652053 43.224 0.654868 44.5414C0.657714 45.8552 0.650373 39.6479 0.651527 39.2353C0.652053 38.9556 0.670313 55.0725 0.662403 46.3478C0.656395 40.3344 0.642023 29.2502 0.643274 27.3832C0.652997 36.2267 0.662814 45.0701 0.672712 53.9135C0.66988 49.0732 0.66639 44.233 0.662225 39.3927C0.675069 49.3185 0.682151 57.8994 0.697221 67.3266C0.677582 44.6734 0.713888 74.6819 0.71573 75.0119C0.716854 75.1223 0.712518 66.2058 0.711456 64.7712C0.725439 72.6722 0.763783 96.6805 0.753591 82.6343C0.755048 85.1838 0.771552 91.3577 0.772052 91.2763C0.776257 90.4923 0.750017 77.0266 0.758079 79.2228C0.767618 81.7678 0.766905 85.3342 0.774026 89.2496C0.810782 109.341 0.834844 103.829 0.867965 123.975C0.868556 123.574 0.869135 123.174 0.869702 122.773C0.909742 144.671 0.946758 166.568 0.980896 188.466C1.01217 197.034 1.06432 219.835 1.08108 231.034C1.08463 233.289 1.09209 244.361 1.09134 245.196C1.09008 246.743 1.07507 238.236 1.07429 242.081C1.07437 242.892 1.09831 261.637 1.10863 260.296C1.1068 258.196 1.09042 251.622 1.09158 250.546C1.1007 242.989 1.17332 300.776 1.18535 303.639C1.18804 302.359 1.19068 301.079 1.19327 299.799C1.19654 303.446 1.1997 307.092 1.20273 310.738ZM0.324722 143.179C0.32138 140.99 0.337188 135.506 0.341315 132.265C0.346675 127.787 0.337274 120.175 0.355634 123.453C0.344863 130.028 0.334563 136.603 0.324722 143.179ZM0.142975 239.28C0.156403 234.87 0.175749 238.29 0.159762 241.904C0.158005 242.305 0.124689 245.245 0.142975 239.28ZM0.231758 193.055C0.23171 193.24 0.224599 197.051 0.224038 197.184C0.209527 200.601 0.23139 189.113 0.231758 193.055ZM86.2471 331.404C81.3887 331.4 84.907 331.439 87.9276 331.428C88.1176 331.427 86.5666 331.404 86.2471 331.404ZM82.7915 331.399C79.0183 331.364 71.4188 331.418 77.4603 331.419C78.0463 331.419 82.9661 331.401 82.7915 331.399ZM0.178534 223.563C0.185093 224.059 0.174162 228.607 0.169181 230.55C0.162341 230.497 0.17624 225.468 0.178534 223.563ZM8.77092 331.328C8.86966 331.324 4.77781 331.317 0.614258 331.312L0.0248052 331.311L0.0256601 330.724C0.0304403 326.751 0.0332561 322.714 0.0289751 322.188C0.0294049 323.362 0.0235111 327.089 0.0178934 330.724L0.0170273 331.319L0.614258 331.32C4.70235 331.326 8.67476 331.332 8.77092 331.328ZM49.3123 331.368C48.9116 331.366 43.4504 331.361 43.6097 331.369C46.2756 331.383 51.1166 331.377 49.3123 331.368ZM129.892 331.456C130.188 331.454 126.098 331.394 135.789 331.44C137.212 331.447 132.131 331.457 132.636 331.459C133.695 331.464 134.532 331.467 135.204 331.468C130.69 331.468 126.002 331.465 125.548 331.462C123.419 331.444 129.76 331.457 129.892 331.456ZM172.195 331.451C173.125 331.442 179.064 331.452 180.416 331.457C180.648 331.458 179.636 331.483 182.31 331.483C184.457 331.483 181.25 331.454 185.432 331.462C189.659 331.469 184.012 331.484 184.381 331.485C184.876 331.487 191.414 331.481 191.21 331.496C191.059 331.507 184.055 331.494 182.323 331.495C180.105 331.496 182.794 331.517 179.088 331.51C176.758 331.505 178.05 331.474 177.558 331.471C177.146 331.47 169.005 331.482 172.208 331.451C172.204 331.451 172.2 331.451 172.195 331.451ZM136.425 331.468C136.085 331.468 135.686 331.468 135.204 331.468C135.614 331.468 136.021 331.468 136.425 331.468ZM0.307278 155.918C0.299046 158.21 0.306253 151.407 0.316118 148.831C0.320271 148.787 0.308547 155.553 0.307278 155.918ZM140.611 331.446C147.315 331.46 142.384 331.467 136.425 331.468C138.317 331.464 138.359 331.441 140.611 331.446ZM0.106005 280.362C0.103972 280.645 0.101176 280.824 0.096976 280.847C0.102622 280.104 0.105151 280.037 0.106005 280.362ZM0.0759533 296.004C0.0816756 301.366 0.0963337 290.471 0.0869641 290.54C0.0833966 290.573 0.0757225 295.789 0.0759533 296.004ZM92.4784 331.412C91.988 331.41 99.6078 331.366 88.5445 331.394C94.4493 331.406 88.2195 331.405 88.3116 331.409C88.5525 331.423 98.4711 331.421 100.667 331.429C102.387 331.407 94.0977 331.42 92.491 331.412C92.4868 331.412 92.4826 331.412 92.4784 331.412ZM248.438 331.521C247.094 331.536 242.83 331.528 239.953 331.525C241.297 331.51 245.561 331.518 248.438 331.521ZM319.915 0.175133C339.629 0.138807 342.182 0.183396 324.144 0.187031C323.791 0.187044 318.718 0.18127 319.915 0.175133ZM489.105 0.00700128C490.962 0.0320311 484.815 0.0412551 480.777 0.033812C479.864 0.0321055 476.485 0.00857115 480.343 -5.57303e-05C480.22 0.0317892 486.185 0.0391383 489.105 0.00700128ZM144.4 331.433C146.352 331.417 152.362 331.435 155.528 331.44C153.596 331.453 147.2 331.441 144.4 331.433ZM384.695 0.123197C386.773 0.122683 388.176 0.101256 387.817 0.0999902C386.211 0.0942273 382.328 0.114566 384.695 0.123197ZM125.001 331.412C124.726 331.402 132.686 331.399 133.24 331.425C131.539 331.422 125.198 331.419 125.001 331.412ZM243.012 331.509C241.777 331.502 248.176 331.496 250.112 331.503C249.956 331.515 243.822 331.513 243.012 331.509ZM418.149 0.0810482C420.01 0.0809618 424.659 0.0768846 425.174 0.0678043C425.813 0.0564295 418.996 0.067131 418.149 0.0810482ZM71.9269 0.586955C71.6921 0.586697 78.8918 0.566895 82.0921 0.562466C88.1698 0.554653 72.1814 0.587169 71.9269 0.586955ZM365.026 0.154922C359.158 0.143458 365.673 0.153626 365.416 0.134808C361.467 0.138685 351.644 0.149246 358.398 0.159897C359.713 0.161984 363.185 0.155747 365.026 0.154922ZM370.439 0.155359C371.068 0.148466 375.297 0.123892 371.641 0.12945C369.951 0.132098 367.226 0.156918 370.439 0.155359ZM116.534 0.504587C121.794 0.501896 97.6835 0.540098 96.9906 0.540736C96.6244 0.540888 96.3845 0.540849 96.2479 0.540698C95.3625 0.543998 90.8083 0.552337 90.281 0.549288C91.6465 0.54712 95.3745 0.539966 95.8073 0.539657C95.994 0.53952 96.133 0.539459 96.229 0.539479C97.8359 0.532673 115.526 0.504829 116.534 0.504587ZM156.484 0.445452C150.466 0.467178 149.4 0.448434 149.919 0.446991C156.471 0.427631 152.198 0.449995 152.399 0.450326C152.857 0.450804 157.511 0.436084 156.465 0.445482C156.472 0.445472 156.478 0.445462 156.484 0.445452ZM124.723 0.493192C124.476 0.493826 119.423 0.501952 119.216 0.502065C115.075 0.503764 129.372 0.480225 124.723 0.493192ZM204.082 331.438C207.699 331.446 204.151 331.463 201.747 331.454C201.549 331.453 200.891 331.431 204.082 331.438ZM373.328 0.147943C374.167 0.149744 395.621 0.138946 394.332 0.115481C392.51 0.120049 368.124 0.134484 373.328 0.147943ZM496.327 38.7709C496.324 34.9875 496.356 39.1125 496.346 41.1313C496.343 41.8797 496.327 39.7246 496.327 38.7709ZM114.269 331.379C110.341 331.389 111.153 331.343 114.559 331.362C114.692 331.363 114.423 331.379 114.269 331.379ZM496.32 8.54587C496.347 21.5938 496.257 18.5038 496.274 1.54035C496.278 2.07122 496.283 2.60194 496.287 3.13281C496.287 2.25528 496.287 1.45369 496.287 0.723511L496.287 0.0517263L495.614 0.0510737C484.483 0.0521936 489.933 0.0488284 495.614 0.0437943L496.295 0.044454L496.294 0.723511C496.296 2.98544 496.298 5.2843 496.301 6.58836C496.304 8.41036 496.317 6.88271 496.32 8.5333C496.32 8.53751 496.32 8.54166 496.32 8.54587ZM496.339 58.6671C496.282 71.2327 496.309 47.2441 496.296 40.3634C496.326 47.0335 496.329 55.7182 496.347 43.9071C496.365 61.1762 496.334 53.9872 496.332 54.6765C496.33 55.4926 496.341 58.1314 496.339 58.6671ZM496.315 25.5215C496.313 24.7955 496.322 19.3227 496.318 17.3516C496.341 20.1082 496.331 30.3439 496.315 25.5215ZM198.366 0.373518C197.912 0.382437 196.788 0.390046 192.468 0.393465C193.803 0.387462 196.562 0.379792 198.366 0.373518ZM0.363814 139.025C0.369142 136.05 0.381082 130.127 0.372092 131.944C0.371234 132.142 0.360258 139.016 0.363814 139.025ZM435.641 0.0967184C436.274 0.0979136 452.634 0.0844346 446.983 0.0726004C445.279 0.069001 430.393 0.0852276 435.641 0.0967184ZM350.92 0.181957C352.289 0.180543 357.852 0.171845 357.97 0.168587C358.346 0.157351 351.519 0.171132 350.92 0.181957ZM0.394274 124.019C0.395439 123.627 0.40947 114.542 0.405418 115.541C0.397508 117.436 0.390022 125.362 0.394274 124.019ZM217.243 331.407C218.003 331.406 219.007 331.426 219.27 331.426C219.888 331.427 233.79 331.428 228.479 331.449C227.593 331.453 207.59 331.43 204.988 331.426C203.982 331.4 212.527 331.43 214.606 331.429C214.972 331.428 215.207 331.407 217.237 331.407C217.239 331.407 217.241 331.407 217.243 331.407ZM175.864 0.416325C175.251 0.424388 158.907 0.453375 159.096 0.445441C164.686 0.435715 170.275 0.426009 175.864 0.416325ZM184.166 0.404791C187.654 0.404731 179.486 0.418604 177.079 0.420047C177.053 0.415368 183.658 0.404792 184.166 0.404791ZM381.919 0.19703C383.562 0.192196 378.511 0.178116 379.641 0.173315C380.365 0.170256 384.035 0.173724 385.205 0.166548C385.537 0.16427 381.794 0.150101 380.711 0.152055C379.173 0.154706 380.665 0.167238 378.986 0.169064C373.414 0.175066 368.474 0.170412 363.251 0.176336C362.779 0.176877 366.437 0.182622 362.414 0.186773C361.792 0.187407 358.056 0.17718 353.243 0.184674C342.613 0.239504 334.808 0.205998 321.318 0.236767C321.827 0.239903 331.915 0.239027 332.509 0.238852C343.785 0.233282 363.985 0.213452 375.795 0.202042C378.826 0.199116 377.354 0.190887 378.659 0.189237C379.691 0.187952 378.464 0.207112 381.919 0.19703ZM0.365575 140.604C0.3757 139.187 0.378619 134.214 0.384206 131.037C0.375704 132.155 0.372238 137.501 0.365575 140.604ZM257.545 0.310035C259.137 0.307402 264.073 0.305082 264.481 0.300462C265.007 0.294363 257.882 0.300526 257.545 0.310035ZM295.632 331.456C295.786 331.455 299.616 331.458 299.761 331.459C303.183 331.48 291.695 331.471 295.632 331.456ZM387.258 331.493C390.162 331.491 393.092 331.483 394.068 331.504C392.217 331.5 386.917 331.507 387.258 331.493ZM496.396 312.672C496.369 313.272 496.386 304.53 496.389 302.878C496.401 303.49 496.416 312.232 496.396 312.672ZM198.995 0.40835C193.651 0.415084 194.779 0.430387 191.386 0.427338C190.832 0.42677 189.042 0.394712 194.917 0.399199C195.974 0.400122 191.838 0.414183 198.995 0.40835ZM493.668 0.0649456C492.309 0.0809244 488.06 0.0796867 485.19 0.0807442C485.833 0.0692505 491.626 0.0675569 493.668 0.0649456ZM0.426441 107.61C0.436513 105.103 0.450932 93.5214 0.442725 96.3873C0.441486 96.7948 0.429235 105.985 0.426441 107.61ZM157.989 331.377C162.755 331.364 152.884 331.352 149.769 331.365C151.179 331.365 157.668 331.378 157.989 331.377ZM483.302 331.491C483.531 331.49 488.583 331.492 488.81 331.493C492.95 331.514 478.654 331.508 483.302 331.491ZM357.127 331.453C358.948 331.437 370.917 331.453 373.599 331.47C371.018 331.493 354.868 331.472 357.127 331.453ZM220.988 0.373347C217.175 0.378858 213.557 0.381454 210.055 0.383196C210.791 0.376032 220.585 0.369017 220.988 0.373347ZM496.38 324.487C496.38 324.216 496.382 323.952 496.382 323.694C496.381 323.964 496.381 324.228 496.38 324.487ZM306.332 0.272562C309.527 0.272225 308.864 0.257685 308.667 0.25745C306.263 0.255356 302.714 0.273027 306.332 0.272562ZM0.382797 136.954C0.391351 135.846 0.394279 130.472 0.400678 127.38C0.394211 128.277 0.385884 134.463 0.382797 136.954ZM496.305 72.1243C496.285 76.1391 496.25 59.8052 496.262 56.3634C496.276 56.1092 496.308 71.5366 496.305 72.1243ZM143.191 331.337C142.871 331.323 136.013 331.335 137.47 331.343C138.393 331.348 143.383 331.347 143.191 331.337ZM496.267 48.1494C496.261 46.615 496.274 43.0377 496.284 44.2973C496.298 45.914 496.268 48.546 496.267 48.1494ZM405.353 0.186748C406.024 0.188196 415.048 0.166472 411.32 0.156248C408.733 0.149237 408.322 0.168794 407.713 0.169395C407.034 0.169896 392.548 0.160137 405.353 0.186748ZM496.334 163.605C496.326 160.201 496.332 156.084 496.33 152.521C496.342 153.973 496.348 162.157 496.334 163.605ZM169.64 331.353C168.813 331.347 146.289 331.326 159.084 331.354C159.831 331.356 172.151 331.373 169.64 331.353ZM198.995 0.40835C199.67 0.40751 200.447 0.406804 201.35 0.406327C200.454 0.40725 199.674 0.407804 198.995 0.40835ZM259.697 0.330548C258.467 0.338875 264.666 0.333265 266.495 0.327357C267.059 0.318086 259.867 0.329385 259.697 0.330548ZM496.313 152.25C496.305 150.197 496.311 146.471 496.309 143.929C496.321 144.359 496.324 151.363 496.313 152.25ZM496.333 296.42C496.339 292.344 496.336 287.327 496.321 287.25C496.323 287.165 496.326 286.967 496.328 286.639C496.331 286.308 496.323 281.94 496.328 280.043C496.357 268.683 496.349 323.911 496.305 291.901C496.314 293.408 496.323 294.914 496.333 296.42ZM340.932 331.414C338.618 331.396 332.138 331.415 333.819 331.423C334.991 331.428 343.248 331.432 340.932 331.414ZM429.971 331.424C429.279 331.421 422.952 331.432 422.789 331.441C426.426 331.452 433.122 331.439 429.971 331.424ZM323.144 331.388C321.692 331.385 319.839 331.411 320.01 331.413C321.486 331.423 325.584 331.404 323.144 331.388ZM210.067 0.427825C212.228 0.428929 219.117 0.411308 220.616 0.400536C220.895 0.401897 221.648 0.403188 223.027 0.404211C223.023 0.404216 223.019 0.404221 223.014 0.404226C224.877 0.404976 280.551 0.345028 243.206 0.369814C242.037 0.370635 243.635 0.3773 238.876 0.381454C238.561 0.38172 238.405 0.374998 237.435 0.375853C235.2 0.377754 223.298 0.38851 220.906 0.396787C220.885 0.395613 220.731 0.394665 220.402 0.394037C217.469 0.388685 208.391 0.427253 210.067 0.427825ZM442.515 331.423C441.242 331.418 437.211 331.422 436.794 331.434C438.793 331.441 445.47 331.435 442.515 331.423ZM168.941 331.31C166.347 331.3 159.772 331.311 161.759 331.321C162.978 331.327 171.933 331.322 168.941 331.31ZM402.144 331.423C417.019 331.44 405.694 331.423 407.972 331.405C406.029 331.411 404.087 331.417 402.144 331.423ZM141.22 0.500951C143.592 0.498897 140.805 0.51395 138.193 0.511576C137.373 0.510866 139.893 0.502177 141.22 0.500951ZM34.1109 0.667612C36.1355 0.666868 26.2478 0.681278 30.1015 0.673572C30.2804 0.673204 33.9661 0.66773 34.1109 0.667612ZM108.956 0.554257C110.566 0.546623 111.614 0.54429 116.15 0.538963C109.436 0.55044 115.663 0.546113 108.956 0.554257ZM496.319 287.294C496.32 287.268 496.32 287.245 496.321 287.25C496.32 287.279 496.319 287.292 496.319 287.294ZM309.159 331.388C307.297 331.37 302.078 331.369 303.632 331.387C303.782 331.389 308.395 331.4 309.159 331.388ZM220.616 0.400536C220.369 0.399331 220.495 0.398198 220.906 0.396787C220.925 0.397893 220.819 0.399093 220.616 0.400536ZM337.181 331.383C336.994 331.397 344.937 331.404 345.256 331.403C349.815 331.381 340.46 331.384 337.181 331.383ZM116.422 331.257C116.012 331.258 118.654 331.288 120.274 331.278C121.528 331.27 117.956 331.254 116.422 331.257ZM93.5539 0.578736C91.0389 0.582418 87.4974 0.587603 86.8443 0.585296C88.5297 0.583239 93.606 0.576022 93.5539 0.578736ZM37.9819 0.663333C40.9548 0.656916 47.7453 0.645805 52.081 0.639375C52.161 0.642359 40.772 0.658254 37.9819 0.663333ZM203.244 0.431947C203.451 0.432112 209.758 0.427801 208.896 0.421214C207.638 0.411616 201.465 0.430184 203.244 0.431947ZM128.67 331.281C131.491 331.273 125 331.239 122.024 331.26C120.495 331.27 128.195 331.282 128.67 331.281ZM292.863 331.359C289.14 331.367 298.366 331.387 299.654 331.371C297.94 331.369 294.185 331.356 292.863 331.359ZM419.51 331.376C407.78 331.322 414.169 331.418 416.249 331.41C416.543 331.408 419.796 331.377 419.51 331.376ZM0.493758 78.5052C0.495 76.8447 0.480776 83.0354 0.482829 83.8365C0.484204 84.3315 0.493043 79.5672 0.493758 78.5052ZM496.296 230.205C496.296 230.7 496.296 231.191 496.297 231.678C496.296 231.313 496.295 230.833 496.296 230.205ZM259.075 331.28C267.332 331.351 266.465 331.299 267.182 331.299C268.733 331.301 272.336 331.32 275.258 331.319C271.911 331.325 268.565 331.331 265.218 331.337C267.862 331.343 290.827 331.379 291.308 331.368C291.997 331.352 284.771 331.354 284.561 331.353C284.257 331.35 283.128 331.306 282.458 331.304C281.355 331.301 262.153 331.292 259.075 331.28ZM394.981 331.38C396.867 331.386 397.403 331.404 398.279 331.4C398.578 331.398 398.626 331.381 399.645 331.376C398.09 331.378 396.536 331.379 394.981 331.38ZM244.29 331.334C241.952 331.313 252.432 331.325 252.768 331.328C254.561 331.342 246.2 331.351 244.29 331.334ZM333.215 331.367C332.833 331.366 324.785 331.356 324.85 331.368C326.979 331.378 337.739 331.384 333.215 331.367ZM400.904 331.375C403.731 331.378 409.076 331.397 408.463 331.37C408.459 331.37 408.455 331.37 408.451 331.37C405.935 331.372 403.419 331.374 400.904 331.375ZM138.326 331.242C133.086 331.204 135.568 331.249 140.208 331.264C141.613 331.249 139.185 331.248 138.326 331.242ZM121.558 331.205C120.1 331.198 105.079 331.194 107.371 331.214C108.185 331.221 116.823 331.211 117.221 331.212C117.824 331.214 115.069 331.232 119.676 331.232C119.406 331.225 122.057 331.207 121.558 331.205ZM133.989 331.217C128.782 331.187 127.612 331.235 131.528 331.238C133.058 331.239 134.732 331.221 133.989 331.217ZM155.257 331.234C153.384 331.229 148.394 331.219 144.954 331.233C149.557 331.237 154.16 331.242 158.763 331.246C159.294 331.237 156.897 331.24 155.245 331.234C155.249 331.234 155.253 331.234 155.257 331.234ZM6.69309 0.715795C10.8302 0.710966 1.29918 0.722703 0.896053 0.723165C-0.300946 0.724705 4.84351 0.718065 6.69309 0.715795ZM0.600966 46.1905C0.602045 45.041 0.604485 44.2895 0.603922 41.7593C0.601694 44.3043 0.599179 46.8493 0.596381 49.3943C0.600108 51.372 0.599795 47.4469 0.600966 46.1905ZM0.61547 36.4721C0.615561 36.8316 0.620409 34.8678 0.617432 39.5123C0.61477 42.6503 0.613234 25.5855 0.614704 22.5051C0.615482 25.9088 0.614822 33.3775 0.61547 36.4721ZM0.618025 6.58066C0.617929 6.38389 0.622365 12.8672 0.622769 13.6176C0.6246 17.558 0.618318 7.64519 0.618025 6.58066ZM0.63041 27.2636C0.62922 24.2231 0.633953 30.9588 0.634738 32.9662C0.633998 33.1609 0.630586 27.7333 0.63041 27.2636ZM48.5877 0.759366C51.8779 0.766515 54.8209 0.758203 49.7584 0.756927C49.5169 0.756878 48.4475 0.75906 48.5877 0.759366ZM0.623795 12.919C0.625736 15.9595 0.620538 9.22377 0.619164 7.21638C0.619161 7.02969 0.623483 12.456 0.623795 12.919ZM50.904 0.772182C55.2737 0.779839 53.7348 0.766393 53.1889 0.765569C50.9395 0.762119 43.2271 0.760308 41.6514 0.759644C53.1953 0.767892 48.8465 0.768722 50.904 0.772182ZM71.0583 0.781449C75.112 0.782786 64.752 0.772092 62.775 0.774462C64.7898 0.775842 69.9053 0.781008 71.0583 0.781449ZM95.6625 0.807122C97.8422 0.809627 104.325 0.817009 105.412 0.814307C103.033 0.812972 96.5824 0.804499 95.6625 0.807122ZM100.597 0.82144C104.004 0.829339 104.822 0.816101 100.893 0.816834C100.74 0.816861 100.472 0.821069 100.597 0.82144ZM119.751 0.844516C121.986 0.8531 124.537 0.839561 120.915 0.836001C119.839 0.834996 119.514 0.843569 119.751 0.844516ZM56.3737 0.790716C59.5744 0.795943 63.6979 0.794592 56.8647 0.786592C59.2649 0.788358 61.6651 0.790009 64.0653 0.791547C55.1143 0.779226 55.7715 0.787443 53.2014 0.784201C49.6101 0.779721 49.8934 0.774685 50.6145 0.773618C47.67 0.774238 35.1598 0.760984 27.9299 0.753547C34.2843 0.761099 44.5956 0.774642 50.8662 0.782817C52.6567 0.785149 54.394 0.785505 55.9205 0.787373C58.368 0.790421 56.1942 0.790444 56.3612 0.790702C56.3653 0.790707 56.3695 0.790711 56.3737 0.790716ZM144.928 0.86795C151.497 0.88261 147.343 0.859987 143.631 0.860204C143.472 0.860307 144.764 0.86758 144.928 0.86795ZM0.61848 4.20772C0.6289 12.9848 0.619484 6.60494 0.642825 24.9662C0.632167 17.2522 0.640983 24.5396 0.638514 23.0339C0.636637 21.826 0.632342 17.2999 0.634073 19.9308C0.631702 16.4727 0.615007 1.45926 0.614331 0.78993C0.614337 0.796224 0.614344 0.802518 0.614351 0.808812C0.613885 0.406809 0.615048 1.40698 0.61848 4.20772ZM95.694 0.840028C97.8851 0.858097 98.7446 0.834208 103.052 0.852403C108.787 0.839366 87.2097 0.833815 84.5972 0.816643C108.031 0.842417 69.1151 0.786982 85.4721 0.824612C71.997 0.802336 81.0565 0.822012 78.9764 0.82212C76.7513 0.822033 69.1291 0.81006 69.5162 0.814723C69.5204 0.814729 69.5245 0.814734 69.5287 0.814739C74.1907 0.820349 78.8526 0.825846 83.5146 0.831234C78.9514 0.815276 88.4783 0.828998 91.7098 0.842614C93.0378 0.841855 94.366 0.840993 95.694 0.840028ZM69.3084 0.800666C69.7679 0.80142 79.9081 0.81085 79.2534 0.808023C77.8992 0.805432 63.5081 0.792026 69.3084 0.800666ZM24.6821 0.752015C28.3228 0.756207 33.9525 0.76373 35.9362 0.764205C32.2947 0.760025 26.6643 0.75308 24.6821 0.752015ZM212.157 0.94696C216.798 0.943209 202.509 0.928451 206.643 0.941116C206.847 0.941725 211.929 0.947121 212.157 0.94696ZM106.25 0.849539C110.968 0.860035 108.738 0.840786 105.242 0.841517C105.04 0.841542 106.032 0.849047 106.25 0.849539ZM0.627255 11.3202C0.628099 11.6359 0.643454 24.3705 0.646049 26.6279C0.643423 25.3454 0.626424 10.9582 0.627255 11.3202ZM18.2745 0.747161C25.5188 0.760044 35.3492 0.76936 36.4272 0.770274C37.4991 0.77179 35.8177 0.771847 36.0621 0.77221C36.6192 0.773117 48.0352 0.788146 48.5877 0.788617C48.9831 0.788925 46.9175 0.78225 49.2738 0.78379C44.6775 0.780683 23.8071 0.753042 22.7246 0.751988C21.8854 0.751018 28.2099 0.761481 18.2871 0.747178C18.2829 0.747172 18.2787 0.747167 18.2745 0.747161ZM39.1211 0.774442C36.2692 0.769448 44.267 0.779274 46.2022 0.782284C50.5027 0.789155 39.487 0.775118 39.1211 0.774442ZM58.3564 0.800902C59.2698 0.802532 67.5123 0.813763 68.2133 0.811883C64.3116 0.803651 56.2845 0.797299 58.3564 0.800902ZM150.076 0.911529C152.217 0.913185 158.104 0.924387 158.442 0.919551C156.299 0.917892 150.413 0.906935 150.076 0.911529ZM0.695465 54.7696C0.6918 51.2131 0.704705 59.453 0.707378 61.8569C0.706107 61.9873 0.695773 55.0724 0.695465 54.7696ZM107.049 0.885227C108.316 0.888378 134.175 0.921283 137.803 0.923557C134.254 0.915455 108.627 0.881271 107.464 0.880816C107.125 0.880759 106.887 0.884825 107.049 0.885227ZM51.1243 0.803862C48.7533 0.802769 47.2062 0.79728 46.9072 0.796828C43.9753 0.791976 37.8949 0.783043 39.2282 0.783151C44.4021 0.791951 55.8442 0.805669 51.1243 0.803862ZM151.914 0.947079C160.695 0.95577 143.829 0.926158 146.042 0.936536C146.184 0.937161 151.006 0.946149 151.914 0.947079ZM104.16 0.882654C102.223 0.884193 76.3562 0.842387 72.2038 0.836218C75.9236 0.836183 78.9211 0.844737 83.9175 0.851837C85.2655 0.853711 84.9057 0.850509 85.0504 0.850715C87.385 0.853916 85.6377 0.854543 87.0771 0.856679C87.9864 0.858302 106.885 0.88062 104.16 0.882654ZM49.771 0.803554C48.3248 0.802928 32.1739 0.776899 31.524 0.775501C26.6632 0.765962 48.5161 0.801097 49.771 0.803554ZM106.533 0.89312C103.752 0.898083 90.9052 0.872223 99.6972 0.881416C100.537 0.882237 104.092 0.891467 106.533 0.89312ZM150.977 0.957966C151.409 0.958926 160.562 0.974433 160.726 0.970347C159.404 0.966877 146.06 0.947042 150.977 0.957966ZM146.231 0.964604C146.451 0.964815 144.305 0.954138 148.597 0.961319C148.955 0.9619 149.622 0.971644 155.017 0.976374C156.112 0.977325 157.809 0.97374 157.686 0.973178C152.068 0.951646 135.147 0.952633 146.231 0.964604ZM49.4752 0.805556C50.3456 0.808314 48.2464 0.808546 46.3532 0.803438C45.5418 0.801293 47.0558 0.801699 49.4752 0.805556ZM180.006 1.00198C174.685 1.00236 191.391 1.02721 192.242 1.02622C191.705 1.02028 180.538 1.00195 180.006 1.00198ZM0.730115 63.0969C0.730108 63.0927 0.7301 63.0885 0.730093 63.0843C0.737388 67.5609 0.72991 64.7881 0.730231 64.9977C0.742718 74.5331 0.74445 72.0039 0.747865 73.495C0.75518 76.6923 0.746144 76.1772 0.758701 81.5706C0.738543 72.6555 0.754399 80.7704 0.751691 81.0229C0.741187 82.0221 0.738007 69.1532 0.727491 64.7082C0.726208 64.0888 0.730543 68.6616 0.726962 67.0749C0.716593 61.9157 0.701734 45.9193 0.730115 63.0969ZM44.893 0.801263C42.8169 0.799733 27.0641 0.770394 31.2407 0.776608C31.9124 0.777728 47.9452 0.803348 44.893 0.801263ZM494.843 285.865C494.827 282.079 494.806 290.853 494.819 292.48C494.825 293.287 494.85 287.528 494.843 285.865ZM478.953 329.878C474.454 329.881 469.712 329.953 475.308 329.941C475.903 329.94 479.468 329.887 478.953 329.878ZM494.897 51.9826C494.871 56.68 494.913 56.4004 494.915 52.9519C494.916 51.7343 494.898 51.8346 494.897 51.9826ZM494.822 231.269C494.821 231.739 494.822 237.169 494.833 236.971C494.84 234.964 494.834 228.228 494.822 231.269ZM494.892 50.4909C494.898 53.2762 494.931 48.4823 494.904 45.0778C494.905 46.8068 494.891 50.2043 494.892 50.4909ZM116.239 0.934673C118.571 0.933557 125.169 0.945893 128.959 0.951127C129.368 0.959047 118.946 0.938021 116.239 0.934673ZM494.797 328.288C494.814 332.547 494.829 323.423 494.805 324.26C494.804 324.376 494.796 328.121 494.797 328.288ZM395.32 1.31973C398.416 1.31196 388.586 1.28741 391.292 1.30919C391.425 1.31009 395.15 1.32016 395.32 1.31973ZM352.399 1.26725C354.748 1.27333 364.763 1.28342 360.865 1.26912C360.26 1.26694 352.576 1.25829 352.399 1.26725ZM0.751385 73.7594C0.753413 72.4939 0.765875 79.8392 0.766893 80.8908C0.767133 81.3039 0.748533 75.4099 0.751385 73.7594ZM494.874 82.4909C494.876 84.9214 494.866 91.2251 494.878 92.3352C494.877 89.3618 494.899 81.6915 494.874 82.4909ZM494.797 308.871C494.769 312.579 494.771 318.915 494.808 317.349C494.806 310.35 494.775 318.214 494.797 308.871ZM494.877 34.837C494.873 36.7862 494.903 38.2797 494.904 38.0597C494.92 35.9478 494.89 32.9004 494.877 34.837ZM494.823 181.097C494.809 181.209 494.813 187.457 494.823 186.623C494.826 186.35 494.835 181.006 494.823 181.097ZM198.064 1.06848C200.927 1.07871 192.184 1.07071 189.598 1.06012C188.341 1.04888 197.702 1.06725 198.064 1.06848ZM475.679 1.41059C475.388 1.42865 485.154 1.42672 481.306 1.40814C480.343 1.40353 475.781 1.40459 475.679 1.41059ZM382.19 1.3383C388.741 1.32656 361.234 1.28311 368.462 1.31406C368.979 1.31628 381.62 1.33927 382.19 1.3383ZM337.268 1.27435C338.398 1.27764 337.835 1.32566 333.158 1.30084C332.544 1.29765 335.416 1.28855 334.914 1.28497C334.619 1.28292 324.449 1.26345 323.981 1.26397C323.477 1.26458 324.07 1.28046 323.559 1.2815C322.983 1.2826 316.723 1.26126 313.444 1.25688C307.266 1.24859 306.599 1.25972 306.092 1.25907C304.616 1.25714 302.136 1.24528 299.144 1.24127C284.062 1.22153 260.997 1.19665 249.041 1.15742C259.681 1.18157 269.819 1.18656 280.406 1.19756C277.305 1.21704 295.98 1.20009 285.057 1.21293C290.086 1.21469 333.564 1.26451 337.255 1.27434C337.26 1.27434 337.264 1.27435 337.268 1.27435ZM461.197 329.858C463.96 329.832 449.78 329.839 448.577 329.869C450.448 329.873 460.854 329.861 461.197 329.858ZM494.686 299.719C494.682 298.402 494.632 297.152 494.658 290.246C494.658 290.24 494.658 290.233 494.658 290.227C494.665 288.208 494.677 290.508 494.682 290.139C494.684 290.004 494.709 283.707 494.712 288.937C494.718 296.913 494.675 289.688 494.674 293.941C494.674 294.46 494.701 302.509 494.706 302.041C494.707 301.993 494.702 299.571 494.704 299.171C494.714 297.66 494.729 298.396 494.73 298.183C494.732 297.486 494.707 284.758 494.73 282.907C494.737 282.305 494.753 303.197 494.749 304.011C494.746 304.526 494.703 304.309 494.699 304.842C494.697 305.117 494.712 313.52 494.708 314.611C494.707 314.928 494.706 315.17 494.705 315.347C494.718 314.076 494.717 321.686 494.702 321.453C494.696 321.321 494.7 316.082 494.701 315.895C494.701 315.813 494.702 315.741 494.702 315.675C494.686 316.759 494.688 299.025 494.663 302.853C494.65 297.712 494.699 303.583 494.686 299.719ZM494.662 275.007C494.667 275.538 494.671 276.069 494.676 276.6C494.666 267.6 494.69 257.215 494.692 246.847C494.692 244.216 494.664 247.243 494.673 243.794C494.679 241.032 494.706 237.974 494.711 239.476C494.712 239.843 494.694 245.467 494.695 248.282C494.698 256.593 494.723 254.493 494.723 254.979C494.724 255.515 494.706 260.746 494.706 263.602C494.707 270.784 494.721 274.064 494.701 283.876C494.686 278.213 494.651 281.315 494.662 275.007ZM434.433 1.42539C434.09 1.4367 428.201 1.42015 426.061 1.41957C426.398 1.40839 432.292 1.42486 434.433 1.42539ZM9.14857 330.12C7.33951 330.138 20.8981 330.125 17.3248 330.116C16.5342 330.114 10.8522 330.118 9.14857 330.12ZM70.0582 330.056C71.8719 330.049 64.5687 330.044 64.5822 330.058C64.5928 330.062 69.8246 330.057 70.0582 330.056ZM494.723 158.67C494.722 158.327 494.73 153.338 494.731 153.182C494.758 149.876 494.736 166.298 494.723 158.67ZM144.104 329.954C137.782 329.973 156.81 329.961 150.996 329.949C150.706 329.949 144.408 329.953 144.104 329.954ZM170.552 329.925C169.037 329.927 162.307 329.927 162.219 329.933C162.085 329.943 169.788 329.944 170.552 329.925ZM494.796 33.5215C494.772 34.2518 494.797 25.3778 494.797 22.2925C494.821 21.56 494.796 30.4374 494.796 33.5215ZM494.736 89.5342C494.743 52.1233 494.79 60.3705 494.747 91.7624C494.73 91.8075 494.736 91.8953 494.736 89.5342ZM494.775 41.6285C494.789 42.9883 494.781 47.2366 494.778 50.1069C494.767 49.5907 494.776 43.6991 494.775 41.6285ZM1.21996 323.113C1.22936 324.375 1.23302 327.963 1.23287 330.724L0.614258 330.105C2.98635 330.105 4.74671 330.108 3.89286 330.112C3.74749 330.112 2.35748 330.114 0.614258 330.116L1.2215 330.724C1.21783 327.31 1.21401 322.543 1.21996 323.113ZM494.702 155.536C494.675 156.407 494.691 145.173 494.698 144.313C494.722 140.846 494.696 154.626 494.702 155.536ZM475.314 1.51345C473.33 1.52885 467.696 1.51416 464.072 1.51021C465.722 1.49728 472.239 1.51008 475.314 1.51345ZM494.785 6.58206C494.785 6.35461 494.791 1.30068 494.792 1.07459C494.793 0.937913 494.794 0.82134 494.794 0.723511L495.614 1.54355C495.016 1.53977 495.118 1.53752 495.614 1.53642L494.801 0.723511C494.806 2.60361 494.793 10.1388 494.785 6.58206ZM0.745761 56.8907C0.746238 57.0591 0.754679 60.8864 0.754856 61.0198C0.759569 64.4359 0.734689 52.949 0.745761 56.8907Z" fill="#FA4616"/>
</svg>
