<svg width="91" height="46" viewBox="0 0 91 46" fill="none" xmlns="http://www.w3.org/2000/svg">
<path d="M90.2209 2.26829C89.731 2.55272 89.0478 2.8421 88.5172 3.03906C88.3511 3.10095 88.3961 2.99018 88.2798 3.02969C88.0524 3.10706 87.8705 3.23998 87.643 3.31081C87.5674 3.33393 87.599 3.17806 87.521 3.20489C87.0942 3.35274 86.7278 3.56866 86.3084 3.74502C84.2429 4.61348 82.2489 5.54125 80.1918 6.48883C79.5135 6.80137 78.6487 7.09925 77.9788 7.48436C77.9006 7.52942 77.9976 7.60495 77.9862 7.62068C77.8067 7.86438 77.7884 7.6247 77.6179 7.67548C76.9415 7.87758 76.2424 8.21001 75.66 8.54391C75.4124 8.68625 75.7658 8.75721 75.4538 8.77323C75.4323 8.77455 75.4454 8.6373 75.3697 8.66055C75.1982 8.71349 74.9057 8.88071 74.7783 8.93298C74.5326 9.03319 74.4938 9.05358 74.2685 9.16288C73.96 9.31138 73.5689 9.43867 73.251 9.62462C73.1833 9.66462 73.3295 9.72682 73.2264 9.80037C73.1231 9.87394 72.8215 10.0109 72.7088 10.0347C72.5961 10.0584 72.597 9.95259 72.5697 9.94185C72.3431 9.84936 72.1113 10.2458 72.0698 10.2731C71.3108 10.7654 70.5557 10.9758 69.7991 11.3483C69.2248 11.6313 68.6316 11.9762 68.082 12.2391C67.4271 12.5519 66.8464 12.7648 66.2186 13.086C66.1523 13.1198 66.293 13.2083 66.2121 13.2498C65.353 13.6906 64.4857 14.0998 63.5809 14.4383C63.4901 14.4721 63.5467 14.3058 63.4528 14.333C62.8785 14.5016 61.9329 14.6932 61.8572 15.3332C61.4894 15.4905 61.0446 15.6849 60.6758 15.7448C60.438 15.7835 60.5791 15.5633 60.3506 15.74C60.299 15.7797 60.4258 15.8494 60.3444 15.9009C60.0019 16.1177 59.5897 16.2775 59.2589 16.5084C59.1917 16.5556 59.2584 16.6411 59.2462 16.6685C59.1413 16.8927 58.7398 16.8048 58.6686 16.819C58.1285 16.93 57.8028 17.151 57.3551 17.3674C57.2512 17.4175 57.4365 17.4854 57.3388 17.5382C56.831 17.8107 56.2903 18.0629 55.7564 18.2549C55.6375 18.2973 55.6874 18.1373 55.6278 18.152C55.3658 18.2181 55.4145 18.4499 55.1652 18.5172C55.1128 18.5317 55.0939 18.425 55.0801 18.4191C54.8641 18.3255 54.8573 18.612 54.8245 18.6343C54.413 18.9221 54.0112 18.824 53.5976 19.0693C53.5482 19.0989 53.7223 19.1599 53.58 19.2359C52.6321 19.7425 51.5967 20.2113 50.5961 20.586C50.4406 20.6444 50.5028 20.5036 50.4881 20.4973C50.2519 20.4012 50.2661 20.6786 50.222 20.711C49.8709 20.9607 49.42 20.9439 49.2948 21.3442C47.6321 22.0442 46.0987 22.9884 44.3757 23.5322C44.3539 23.5394 44.335 23.4087 44.2918 23.4235C43.7711 23.6009 43.9513 23.7299 43.7328 24.1036C43.6777 24.1975 43.3022 24.0608 43.2709 24.0526C43.1565 24.022 43.157 23.8134 43.1235 23.8131C42.8495 23.8158 43.1585 24.3529 42.8595 24.5002C42.8497 24.5038 42.8387 24.3824 42.8086 24.3846C42.715 24.391 42.6576 24.4696 42.564 24.472C42.3493 24.4766 42.1545 24.2375 41.9649 24.5256C41.9411 24.5626 42.1474 24.852 41.8731 24.9684C41.7636 25.0146 41.295 25.2517 41.1529 25.2963C41.0109 25.3407 41.0516 25.1948 41.0401 25.195C40.6187 25.2357 40.7261 25.1138 40.4504 25.0028C40.1751 24.8925 40.4565 25.3401 40.4098 25.4284C40.3629 25.5167 40.0479 25.5342 39.9649 25.5272C39.882 25.5202 39.9301 25.4165 39.8625 25.4227C39.4151 25.466 39.812 25.7383 39.7245 25.8744C39.5185 26.1958 39.1181 25.9582 38.8329 26.0559C38.7557 26.0823 38.8541 26.1329 38.7931 26.1721C38.551 26.3265 38.3433 26.2931 38.1012 26.5365C38.0615 26.5762 37.9294 26.9024 37.701 26.823C37.6685 26.8113 37.687 26.694 37.5682 26.7281C37.3908 26.779 37.0876 26.9044 36.9266 27.0197C36.8078 27.1049 37.0268 27.1757 36.842 27.2111C36.7598 27.2268 36.8526 27.0768 36.7017 27.1132C36.5514 27.1493 36.2074 27.3231 36.0772 27.3907C35.9472 27.4583 36.0728 27.5319 36.0657 27.5444C36.0222 27.6181 35.7959 27.7946 35.7735 27.8055C34.6562 28.3714 33.5295 28.6973 32.4652 29.2961C32.3815 29.343 32.4953 29.4298 32.4831 29.4381C32.2128 29.6308 32.2943 29.2113 32.0387 29.21C32.183 29.4286 32.041 29.446 31.8465 29.5734C31.7529 29.635 31.8517 29.6985 31.8471 29.7123C31.7666 29.9222 31.5764 29.7957 31.532 29.7725C31.3685 29.6874 31.3393 29.8973 31.2288 29.841C31.1186 29.7853 31.2075 29.5788 31.0098 29.6781C30.9951 29.789 31.2499 29.9347 31.1165 30.0442C30.6133 30.4577 29.4672 30.8087 29.001 31.0158C28.5357 31.2225 28.3959 31.3104 28.115 31.4111C27.6077 31.5928 27.8634 31.6681 27.6015 31.8889C27.3386 32.1101 27.2883 31.6403 27.2032 31.5758C27.1189 31.511 27.1161 31.6218 27.0404 31.6005C26.9649 31.5793 27.0497 31.4653 26.9178 31.5082C26.786 31.5511 26.524 31.869 26.5244 31.98C26.5253 32.215 26.775 32.3395 26.4146 32.4298C26.3938 32.4349 26.4032 32.3002 26.3262 32.325C25.7163 32.5247 25.1215 32.811 24.517 33.0197C24.4338 33.0482 24.4465 32.8973 24.3974 32.9126C23.8861 33.0715 24.1524 33.1845 23.9995 33.5306C23.9151 33.2115 23.6839 33.1046 23.3228 33.28C23.1057 33.3853 23.2054 33.4938 23.1093 33.6521C23.0805 33.6997 22.8845 33.688 22.886 33.7613C22.8903 34.0013 23.142 34.1486 22.7278 34.2443C22.7095 34.2482 22.7089 34.1159 22.6494 34.1371C22.2646 34.2738 22.3214 34.4991 21.9401 34.7173C21.6413 34.8883 21.0317 35.0336 20.6706 35.1861C20.5174 34.8559 20.2225 35.0938 20.1987 35.3851C19.9663 35.4879 19.7264 35.6216 19.4908 35.6988C19.4098 35.7255 19.4131 35.6065 19.3986 35.601C19.1732 35.5128 19.1818 35.7805 19.1369 35.8133C18.6448 36.1589 18.1288 36.2065 17.6998 36.6189C17.6847 36.6336 17.7669 36.8748 17.5495 36.776C17.5351 36.7689 17.6524 36.5831 17.4091 36.6928C17.1658 36.8025 16.6548 36.9028 16.3742 37.1713C16.3062 37.2362 16.1933 37.5203 15.9593 37.4567C15.928 37.4479 15.9198 37.3712 15.8706 37.3504C15.7124 37.285 15.7697 37.5414 15.5547 37.4054C15.3396 37.2693 15.0198 37.2454 14.7507 37.5446C14.742 37.5537 14.752 37.7744 14.6452 37.8234C14.4746 37.9014 14.2171 37.981 14.0421 38.0685C13.9582 38.1105 14.0676 38.1969 14.054 38.2061C13.5195 38.5474 13.0676 38.6448 12.4402 38.899C12.3251 38.9454 12.0816 39.2562 11.8068 39.2403C11.5052 39.2232 11.4755 38.55 10.9977 38.9488C10.8048 39.1092 10.8732 39.9482 10.3009 39.7775C9.58238 40.2428 8.78527 40.4034 8.08364 40.9084C8.05205 40.931 8.03971 41.1806 7.95751 41.2177C7.83532 41.2724 7.72433 41.2131 7.63564 41.2492C7.26284 41.3983 6.97268 41.6383 6.62032 41.7964C6.48665 41.8567 6.48602 41.7393 6.32658 41.8111C6.16728 41.883 6.12413 42.0592 5.88209 42.1033C5.69907 42.1363 5.41327 41.96 5.18572 42.035C5.30132 42.2906 5.15255 42.3573 4.92528 42.5516C4.88165 42.589 4.9783 42.6502 4.95987 42.6725C4.88588 42.7649 4.76118 42.7361 4.69401 42.8302C4.6776 42.8529 4.71879 42.9393 4.70776 42.9627C4.61554 43.1652 4.26606 43.0971 4.2058 43.0849C3.97546 43.0394 3.95215 43.1897 3.79893 43.2025C3.64592 43.2153 3.80678 43.0581 3.64192 43.1012C3.3003 43.1907 2.9081 43.4008 2.59076 43.552C2.46441 43.6128 2.60666 43.6853 2.58988 43.6966C2.34396 43.8537 2.0208 43.8611 1.98886 44.1605C1.51794 43.6585 1.86011 44.295 1.43 44.3596C1.39599 44.3645 1.22135 44.1034 1.31367 44.0071C1.40601 43.9108 1.61953 43.9143 1.74415 43.7736C1.77374 43.7404 1.85673 43.3745 1.87783 43.3445C2.04317 43.1093 2.2805 43.511 2.30376 43.528C2.5612 43.7087 2.68123 43.2995 2.73978 43.2465C3.00757 43.0039 3.30124 42.9324 3.53059 42.7405C3.68084 42.6155 3.56304 42.3338 3.70105 42.2763C4.15972 42.0852 4.50265 42.3903 4.7594 41.8533C4.81465 41.7385 4.5783 41.4836 5.01611 41.5601C5.04361 41.565 5.3886 41.6624 5.45995 41.4584C5.46887 41.4327 5.42548 41.3459 5.44479 41.3273C5.57493 41.2045 5.7114 41.2236 5.8622 41.1082C6.01297 40.9928 6.18959 40.8444 6.39495 40.7801C6.51864 40.7412 6.74599 40.831 6.82059 40.8436C7.0323 40.8817 7.10671 40.612 7.27116 40.7033C7.43678 40.7948 7.35093 41.0998 7.64985 41.0645C7.54801 40.8336 7.45545 40.5907 7.35871 40.3556C7.9207 40.0892 8.50579 39.8923 9.06081 39.607C9.12951 39.5714 8.9987 39.4847 9.0708 39.4434C9.37527 39.2696 9.69216 39.2215 10.0008 39.0269C10.2394 38.8758 10.4525 38.611 10.7001 38.449C10.9884 38.6288 11.3362 38.3486 11.632 38.2326C11.7355 38.1918 11.7629 38.2642 11.8447 38.252C12.1528 38.2042 11.9151 38.0368 11.9706 37.9648C12.2091 37.6567 12.4907 38.1615 12.8546 37.9666C12.874 37.9565 12.978 37.5625 13.0025 37.529C13.1573 37.3137 13.0845 37.6081 13.2259 37.5639C13.484 37.4833 13.683 37.4673 13.9246 37.2481C13.9948 37.1838 14.107 36.915 14.3317 36.9697C14.3613 36.9769 14.3945 37.0738 14.414 37.0709C14.7632 37.0098 14.6302 36.7191 14.7569 36.5362C14.8837 36.3533 15.2505 36.4188 15.3334 36.4488C15.5495 36.5259 15.2545 36.566 15.2538 36.5843C15.2473 36.8015 15.4293 36.6752 15.5866 36.6159C15.7466 36.8864 15.9483 36.7662 15.7492 36.5533C15.7271 36.5302 15.6231 36.6139 15.5866 36.6159C15.5828 36.2752 15.7963 36.1264 16.178 36.2588C16.3567 36.321 16.3132 36.5173 16.6504 36.2875C16.8034 36.1834 16.6447 36.021 16.7639 35.8968C17.0364 35.6133 17.5563 35.5819 17.8843 35.3853C18.0033 35.314 17.8303 35.2674 17.9098 35.215C18.1208 35.0756 18.3584 35.0575 18.5645 34.9056C18.5831 34.8917 18.4785 34.8054 18.5481 34.7694C19.0748 34.4944 19.5738 34.3373 20.1312 34.0656C20.4005 33.9343 20.8511 33.6368 21.1357 33.5121C21.6286 33.2954 22.3018 33.1647 22.6949 32.9228C22.9515 32.7654 22.838 32.6835 22.916 32.5512C23.0664 32.2953 23.5891 32.3642 23.6621 32.3788C23.6644 32.3794 23.4458 32.5193 23.5973 32.5156C23.7275 32.5989 23.6597 32.3806 23.6621 32.3788C23.7098 32.3879 24.1846 32.1858 24.2659 32.1194C24.3101 32.0833 24.2305 31.9919 24.2545 31.9751C24.8265 31.577 25.4327 31.2458 26.0839 30.9866C26.096 30.9833 26.1372 31.109 26.1649 31.0998C26.5536 30.9736 26.7153 30.7155 26.9727 30.4828C27.2301 30.2503 27.4815 30.1621 27.758 30.2769C27.9713 30.1404 28.3393 30.0703 28.5524 30.0328C28.7655 29.9952 28.6789 29.7536 28.6931 29.741C29.1336 29.3445 29.4938 29.3301 30.0348 29.0894C30.2921 28.9754 30.7765 28.696 31.0375 28.5366C31.2436 28.4102 31.4001 28.3999 31.5822 28.2677C31.6069 28.2499 31.5296 28.1613 31.5359 28.1534C31.698 27.9222 31.7138 28.2239 31.7815 28.2458C32.0273 28.3259 32.1724 28.3615 32.4194 28.1456C32.4764 28.0959 32.4912 27.6432 32.6004 27.5634C32.7428 27.4603 32.7474 27.6178 32.8949 27.5066C32.9076 27.4972 32.8656 27.4193 32.9678 27.3733C33.4417 27.1592 33.973 26.9553 34.4537 26.709C34.5196 26.6757 34.3728 26.5916 34.4669 26.5414C34.9084 26.3057 35.4027 26.0685 35.869 25.9123C35.9839 25.8743 35.9598 25.9956 35.996 26.0103C36.2173 26.098 36.3076 25.768 36.339 25.7471C37.0854 25.2429 37.8005 25.1497 38.5678 24.6494C38.6094 24.6217 38.8301 24.207 39.0866 24.3435C39.104 24.3524 39.3613 24.4945 39.422 24.281C39.4257 24.2676 39.2769 24.2025 39.4466 24.1332C39.6163 24.0638 39.8439 23.8595 40.1297 23.871C40.22 23.8744 40.495 24.0072 40.6234 23.7304C40.6314 23.7116 40.7691 23.1609 41.0184 23.3715C41.0592 23.4063 41.1789 23.7001 41.3616 23.4295C41.3963 23.3774 41.2769 23.3574 41.3855 23.2549C41.5516 23.0975 41.8489 23.0458 42.0277 22.8008C42.0588 22.7577 42.1429 22.4769 42.3584 22.5526C42.3922 22.5645 42.3961 22.6803 42.4771 22.6536C42.8627 22.5273 43.209 22.2782 43.6073 22.1638C43.7482 22.1231 43.7573 22.309 43.9127 22.2836C44.068 22.2582 44.3598 22.1638 44.4668 22.0242C44.5738 21.8846 44.2991 21.7163 44.5014 21.5926C45.381 21.0547 46.3641 20.7492 47.2944 20.3178C47.4324 20.2538 47.2762 20.222 47.4765 20.1215C48.2146 19.7505 49.4542 19.0392 50.1888 18.9086C50.7774 18.804 50.1845 19.2361 50.6081 19.103C50.8123 19.0384 50.8783 18.6533 50.9198 18.6218C51.3233 18.3106 51.6967 18.2833 52.0811 18.0463C52.1605 17.9974 52.0222 17.9224 52.0903 17.882C52.3227 17.743 52.6025 17.6692 52.8293 17.546C52.9309 17.4905 52.8685 17.412 52.9674 17.3718C53.2034 17.2746 53.4237 17.2122 53.6871 17.185C53.7111 17.1826 53.6279 17.3593 53.799 17.2802C54.0758 17.1519 54.4555 17.0661 54.7291 16.8273C54.8101 16.7561 54.715 16.5534 54.9841 16.5934C55.0404 16.6017 55.1053 16.8694 55.2368 16.5459C55.2591 16.4919 55.5138 16.0175 55.7958 16.1039C55.8701 16.1265 56.0971 16.2601 56.1942 16.1738C56.207 16.1614 56.0929 16.0835 56.1808 16.0272C56.4916 15.8306 56.8412 15.673 57.1616 15.4735C57.2471 15.42 57.0581 15.3742 57.1873 15.2981C57.5423 15.0884 58.0169 14.8903 58.3949 14.7479C58.5344 14.6956 58.4879 14.8333 58.5025 14.8386C58.7387 14.9258 58.722 14.6596 58.7674 14.6213C59.0507 14.3861 59.3464 14.3697 59.629 14.1966C59.7071 14.1491 59.5974 14.0722 59.609 14.0548C59.7326 13.88 59.7 14.1311 59.817 14.0994C60.1452 14.0114 60.4746 13.839 60.7705 13.6767C60.8791 13.617 60.6941 13.5562 60.7923 13.504C61.3722 13.1927 61.9916 12.9026 62.6008 12.6867C62.7157 12.6463 62.6937 12.774 62.7269 12.7843C62.9566 12.8581 63.0841 12.5407 63.1271 12.4953C63.3221 12.2886 63.4558 12.3262 63.6592 12.2069C64.6518 11.6228 65.9516 11.0522 66.9412 10.6078C68.2306 10.0282 69.2584 9.634 70.456 9.01628C70.5321 8.97714 70.3931 8.89006 70.458 8.85471C71.2983 8.40402 72.1643 8.03896 73.0034 7.58145C73.0724 7.54413 72.9127 7.4753 73.0214 7.41141C73.244 7.27953 73.5405 7.14178 73.7932 7.06458C73.9163 7.0267 73.8132 7.20382 73.9362 7.16362C74.2225 7.07022 74.5135 6.93764 74.779 6.78347C74.8918 6.7176 74.6557 6.68301 74.807 6.60685C75.8367 6.0856 76.8435 5.5646 77.9672 5.20719C78.0443 5.18271 78.2285 5.39842 78.3578 5.27611C78.3356 5.20201 78.2954 5.12179 78.2645 5.04615C79.7526 4.26545 81.2868 3.61726 82.8051 2.88712C82.8691 2.85631 82.6947 2.77977 82.8183 2.71945C83.5334 2.37019 84.2092 1.99295 85.0036 1.76363C85.0824 1.74069 85.1582 1.9889 85.3548 1.84909C85.3893 1.82422 85.696 1.63536 85.7546 1.54454C85.7622 1.53146 85.6507 1.453 85.7529 1.3989C86.3473 1.08636 86.9907 0.800414 87.6244 0.570259C87.7268 0.53332 87.6796 0.698435 87.753 0.673117C88.2732 0.492647 88.7639 0.143477 89.2836 0.0168252C89.6316 -0.0675399 89.6126 0.187119 89.8749 0.299624C89.912 0.315468 90.1083 0.224309 90.174 0.332512C90.3397 0.604339 90.3988 0.962132 90.5865 1.24641C90.6268 1.30772 90.8523 1.10945 90.7759 1.34303C90.7704 1.35889 90.6075 1.50401 90.5874 1.5804C90.5733 1.63332 90.6881 1.71973 90.6454 1.79957C90.6027 1.87936 90.4828 1.81855 90.4008 1.92802C90.3192 2.03816 90.4316 2.14542 90.2209 2.26829ZM29.511 29.862C29.7377 29.887 29.5652 29.4719 29.4258 29.66C29.4193 29.6696 29.4994 29.861 29.511 29.862ZM8.65198 40.1976C8.96502 40.2641 8.99108 39.9271 8.76442 39.8682C8.53785 39.8095 8.55673 40.1776 8.65198 40.1976ZM6.37506 41.4781C6.70772 41.4884 6.46852 40.8971 6.24272 41.1515C6.22949 41.1661 6.35566 41.4776 6.37506 41.4781ZM89.1292 0.735078C89.1342 0.739253 89.2764 0.675809 89.2771 0.66887C89.2886 0.504447 89.0043 0.631396 89.1292 0.735078ZM4.12176 42.7614C4.24208 42.7981 4.43536 42.5924 4.28582 42.5467C4.16546 42.5099 3.97195 42.7158 4.12176 42.7614ZM38.729 25.8629C38.7346 25.8676 38.8374 25.8238 38.8187 25.7908C38.7582 25.685 38.6341 25.7843 38.729 25.8629ZM0.177271 44.7091C0.771094 44.4438 1.35662 44.7415 0.695292 45.0006C0.575539 45.0475 0.869239 44.7283 0.701936 44.7578C0.395983 44.8121 0.363692 45.1956 0.0123118 45.1714C-0.0514467 45.1667 0.142881 44.7232 0.177983 44.7079C0.17776 44.7083 0.177503 44.7087 0.177271 44.7091ZM29.8482 30.2967C29.8543 30.3003 29.9953 30.2372 29.996 30.2303C30.0082 30.0656 29.724 30.1926 29.8482 30.2967ZM44.6923 23.2398C44.7056 23.2474 45.0324 23.0999 45.0377 23.0843C45.1027 22.7928 44.4417 23.0904 44.6923 23.2398ZM20.6608 35.1801C20.5728 35.383 20.3994 35.4871 20.1994 35.3849C20.3539 35.3196 20.5058 35.2465 20.6608 35.1801Z" fill="white"/>
</svg>
