<svg width="41" height="211" viewBox="0 0 41 211" fill="none" xmlns="http://www.w3.org/2000/svg">
<path d="M18.354 208.639C18.1962 207.398 18.082 205.762 18.0206 204.516C18.0012 204.126 18.0991 204.315 18.0893 204.045C18.0699 203.517 17.9844 203.032 17.9716 202.51C17.9677 202.337 18.1135 202.539 18.1066 202.357C18.0676 201.364 17.9465 200.433 17.8776 199.43C17.5384 194.489 17.1229 189.64 16.7036 184.646C16.5653 182.999 16.4881 180.989 16.2761 179.295C16.2512 179.097 16.1525 179.226 16.1398 179.189C15.9444 178.61 16.1854 178.786 16.178 178.397C16.1481 176.852 15.9953 175.145 15.8119 173.673C15.7336 173.047 15.5751 173.697 15.6374 173.053C15.6415 173.009 15.7736 173.157 15.7696 172.983C15.7603 172.59 15.6687 171.851 15.649 171.548C15.6118 170.963 15.6014 170.866 15.55 170.314C15.4808 169.56 15.4532 168.657 15.3495 167.85C15.327 167.678 15.229 167.918 15.1823 167.645C15.1357 167.371 15.0762 166.641 15.0809 166.392C15.0857 166.143 15.1898 166.239 15.2073 166.193C15.3552 165.818 15.0223 164.998 15.0057 164.89C14.7104 162.921 14.692 161.21 14.5142 159.352C14.3789 157.941 14.1874 156.437 14.0657 155.095C14.0213 154.603 13.9845 154.135 13.9502 153.676L13.9973 153.864C13.6161 152.899 13.2675 151.964 12.8638 150.96C12.8024 150.806 12.7415 151.038 12.6663 150.851C11.8656 148.854 11.1451 146.849 10.5338 144.799C10.4727 144.594 10.6806 144.814 10.6267 144.606C10.2915 143.336 9.87694 141.297 9.12623 140.721C8.87471 139.871 8.57295 138.834 8.4456 138.045C8.36353 137.536 8.63738 137.971 8.39998 137.388C8.34671 137.256 8.28659 137.467 8.21511 137.266C7.91395 136.419 7.67586 135.475 7.37192 134.639C7.30981 134.47 7.22137 134.546 7.18887 134.502C6.92101 134.131 6.97344 133.375 6.94976 133.22C6.76485 132.045 6.48352 131.219 6.20466 130.157C6.13954 129.908 6.07954 130.239 6.012 130.001C5.66421 128.766 5.34901 127.482 5.11065 126.252C5.05827 125.979 5.23728 126.197 5.21833 126.066C5.1344 125.488 4.87957 125.411 4.79564 124.851C4.77773 124.733 4.89454 124.774 4.90058 124.75C4.99579 124.379 4.68099 124.153 4.65549 124.069C4.33046 123.028 4.42591 122.261 4.15869 121.244C4.12646 121.122 4.06018 121.428 3.97752 121.083C3.42031 118.76 2.94254 116.281 2.6037 113.947C2.55049 113.582 2.69695 113.822 2.70456 113.796C2.82098 113.39 2.52583 113.2 2.49447 113.085C2.25561 112.187 2.30547 111.254 1.89837 110.692C1.31185 106.72 0.552326 102.831 0.445115 98.8412C0.44339 98.7887 0.577216 98.8705 0.573283 98.766C0.534201 97.5293 0.364314 97.8153 0.0664559 97.0062C-0.00787467 96.8103 0.245069 96.1824 0.263962 96.1193C0.331807 95.9139 0.528845 96.1135 0.540598 96.0454C0.634814 95.491 0.0170769 95.6267 0.000466466 94.8564C0.00112724 94.8333 0.116476 94.9286 0.126796 94.8664C0.159368 94.673 0.112933 94.498 0.153711 94.2875C0.199796 94.0666 0.297334 93.9274 0.367643 93.7724C0.439169 93.5994 0.484089 93.3837 0.439783 93.0991C0.437588 93.0816 0.435108 93.0638 0.432332 93.0455C0.418629 92.9591 0.05605 93.0503 0.142758 92.3864C0.177381 92.1205 0.297138 90.9554 0.355782 90.636C0.414084 90.3154 0.501885 90.5497 0.509297 90.5272C0.754461 89.6758 0.779448 90.0121 1.04809 89.6046C1.3161 89.1986 0.780176 89.2587 0.741953 89.0766C0.703253 88.8992 0.900715 88.2681 0.962307 88.1127C1.02361 87.9587 1.0716 88.1654 1.11234 88.0269C1.38056 87.111 0.901857 87.5859 0.855674 87.2685C0.746394 86.5214 1.20218 86.0106 1.32183 85.3653C1.35422 85.1908 1.24802 85.3231 1.25955 85.1656C1.30602 84.5469 1.47589 84.1794 1.46039 83.4432C1.45784 83.3228 1.30275 82.7108 1.52399 82.3611C1.55575 82.3117 1.63162 82.4746 1.68948 82.2109C1.77599 81.8167 1.89592 81.1076 1.92367 80.682C1.94413 80.3673 1.73467 80.7024 1.84 80.3163C1.88777 80.1394 1.93267 80.4862 2.01472 80.153C2.09634 79.8209 2.21724 78.968 2.2624 78.6465C2.30723 78.3249 2.16082 78.4827 2.1566 78.4555C2.13369 78.291 2.16908 77.669 2.17763 77.6154C2.58332 74.8781 3.2155 72.378 3.65029 69.7186C3.68438 69.5116 3.53249 69.6249 3.5364 69.593C3.61839 68.8784 3.84612 69.4991 4.053 69.0278C3.78377 69.0518 3.88741 68.7608 3.95944 68.2488C3.99401 68.0023 3.86903 68.1155 3.86333 68.0913C3.78514 67.6998 4.02931 67.4886 4.08186 67.4323C4.27544 67.2242 4.15604 66.9318 4.28637 66.7912C4.41594 66.6509 4.48299 67.0486 4.57963 66.5716C4.51625 66.4191 4.20478 66.7236 4.24132 66.3537C4.37517 64.9541 5.13628 62.4364 5.4263 61.3332C5.71119 60.2346 5.78354 59.8824 5.97568 59.2598C6.3282 58.13 6.04778 58.4978 6.15602 57.7614C6.26741 57.0226 6.60328 57.4868 6.72286 57.4085C6.84197 57.3328 6.77676 57.1976 6.86118 57.0867C6.94547 56.9763 6.93509 57.2618 7.03338 56.9754C7.13151 56.6874 7.18712 55.8555 7.12199 55.721C6.98151 55.442 6.66392 55.7449 6.96234 54.9844C6.97967 54.9408 7.05001 55.1185 7.11069 54.9502C7.58807 53.6161 8.01789 52.2266 8.52833 50.9102C8.59834 50.7304 8.66865 50.9343 8.71079 50.8303C9.15239 49.7499 8.81287 50.0842 8.78894 49.3905C9.04943 49.6325 9.34946 49.3534 9.6425 48.5162C9.8195 48.0138 9.65605 48.0538 9.67717 47.6963C9.68337 47.5888 9.90144 47.2685 9.86208 47.1823C9.73491 46.8968 9.38154 47.1514 9.79162 46.3153C9.80997 46.2789 9.87685 46.4411 9.9321 46.3123C10.291 45.4826 10.1162 45.3014 10.4407 44.3878C10.6956 43.6696 11.3371 42.4527 11.6938 41.6699C12.0206 41.8298 12.2649 41.0417 12.1686 40.6361C12.403 40.122 12.6369 39.5607 12.8925 39.0815C12.9804 38.9166 13.0256 39.0718 13.0457 39.0551C13.3572 38.8015 13.2394 38.475 13.2818 38.3606C13.7543 37.1216 14.3862 36.2437 14.7933 35.037C14.8076 34.9944 14.6148 34.8149 14.9323 34.599C14.9535 34.5856 14.8668 35.0072 15.1441 34.4852C15.4209 33.9638 16.06 33.0394 16.3504 32.2637C16.4203 32.0759 16.4826 31.5355 16.8195 31.261C16.8648 31.2247 16.8994 31.3114 16.9724 31.2633C17.2068 31.1075 17.0513 30.8628 17.3853 30.7134C17.7196 30.5639 18.1613 30.1155 18.4505 29.3283C18.46 29.3036 18.3848 29.0317 18.5201 28.8102C18.7361 28.4563 19.0759 27.9738 19.3009 27.6035C19.4086 27.4261 19.2321 27.4738 19.249 27.4418C19.9224 26.2108 20.5448 25.4383 21.4088 24.2104C21.5657 23.9878 21.8577 23.238 22.2682 22.874C22.7188 22.4751 22.8897 23.3151 23.5253 22.1308C23.7799 21.659 23.5281 20.6496 24.4248 20.0917C25.4351 18.5054 26.6418 17.2303 27.673 15.6511C27.7196 15.5798 27.7108 15.233 27.8361 15.0757C28.0226 14.8425 28.204 14.7755 28.3375 14.615C28.9019 13.9407 29.3361 13.2502 29.8852 12.5855C30.0941 12.3325 30.1039 12.489 30.3491 12.1934C30.5941 11.8984 30.6469 11.6115 31.0294 11.2474C31.319 10.9727 31.7899 10.8455 32.1517 10.4579C31.9491 10.2629 32.1812 9.98917 32.5303 9.45252C32.5975 9.34907 32.4385 9.38784 32.4664 9.33567C32.5785 9.1219 32.7809 9.00532 32.8832 8.79732C32.9082 8.74681 32.8363 8.68345 32.8527 8.63867C32.9887 8.25557 33.5608 7.90978 33.6597 7.85072C34.0389 7.62178 34.0653 7.3979 34.3115 7.19415C34.5573 6.9911 34.3071 7.3943 34.5703 7.13675C35.1155 6.60311 35.7457 5.84327 36.2634 5.2503C36.4644 5.01913 36.2311 5.09384 36.2576 5.05881C36.6474 4.55769 37.1746 4.15845 37.2169 3.72244C38.0066 3.81871 37.4221 3.38911 38.1325 2.77841C38.1888 2.7304 38.484 2.86594 38.3334 3.10692C38.183 3.34781 37.8308 3.60258 37.6312 3.9399C37.5835 4.01993 37.4615 4.60451 37.4287 4.66937C37.1694 5.17869 36.7674 4.93278 36.7287 4.93832C36.305 5.00627 36.1242 5.69746 36.0299 5.84065C35.6008 6.49251 35.1284 6.94536 34.7704 7.47712C34.5352 7.82555 34.7463 8.04797 34.5232 8.29777C33.7884 9.12215 33.2164 9.14389 32.8461 10.1682C32.7657 10.3891 33.1669 10.4252 32.4575 10.8748C32.4127 10.903 31.8515 11.2093 31.7542 11.5688C31.7421 11.614 31.8182 11.6743 31.7889 11.7231C31.5918 12.0488 31.3738 12.1949 31.1464 12.5357C30.9205 12.8748 30.6539 13.2955 30.3344 13.6443C30.1423 13.854 29.7754 14.0263 29.6569 14.1051C29.3199 14.3261 29.2331 14.776 28.9669 14.8661C28.6988 14.9576 28.7978 14.4468 28.3365 14.8761C28.5216 15.0489 28.6933 15.2498 28.8705 15.4351C28.0144 16.5241 27.1497 17.5295 26.335 18.6525C26.2351 18.7906 26.4476 18.7308 26.3436 18.8809C25.9042 19.5147 25.4378 19.9932 25.0013 20.6715C24.6662 21.1937 24.395 21.8292 24.0602 22.3768C23.5992 22.5346 23.135 23.3864 22.7285 23.9481C22.5858 24.1453 22.5308 24.089 22.4141 24.2191C21.9763 24.7115 22.3581 24.5973 22.2933 24.7682C22.0146 25.5056 21.494 25.246 21.0158 26.0192C20.9899 26.0603 20.9357 26.7204 20.9096 26.7986C20.7432 27.2986 20.7737 26.8132 20.5842 27.0732C20.2377 27.5504 19.9601 27.8603 19.6806 28.4963C19.5992 28.6822 19.5164 29.1926 19.1911 29.4519C19.1482 29.4862 19.0751 29.41 19.049 29.4426C18.5835 30.0376 18.8508 30.2164 18.7314 30.6392C18.6122 31.0618 18.0969 31.5257 17.976 31.6122C17.6608 31.8381 18.0463 31.343 18.0419 31.3187C17.9847 31.0296 17.776 31.465 17.583 31.7789C17.2831 31.6728 17.0498 32.1338 17.3844 32.105C17.4212 32.1011 17.5344 31.8365 17.583 31.7789C17.6942 32.2109 17.4573 32.7209 16.9085 33.1348C16.6518 33.329 16.6423 33.0096 16.2758 33.8241C16.1105 34.1942 16.374 34.1562 16.2621 34.498C16.0073 35.2774 15.352 36.1304 15.0137 36.8986C14.8915 37.1761 15.1267 36.9623 15.0471 37.1536C14.8366 37.6615 14.5482 38.0617 14.355 38.5834C14.3377 38.6306 14.5015 38.5717 14.4303 38.7285C13.8936 39.9192 13.3643 40.9163 12.8307 42.1741C12.5748 42.7747 12.1939 43.8886 11.9307 44.5229C11.4798 45.5993 10.7967 46.9166 10.5027 47.8742C10.3094 48.501 10.4747 48.4072 10.461 48.7004C10.4356 49.2646 9.84785 50.0908 9.76444 50.2C9.76066 50.2057 9.91605 49.6523 9.75839 49.9218C9.57628 50.0486 9.76582 50.1942 9.76444 50.2C9.70921 50.2691 9.33161 51.3294 9.28639 51.5526C9.2614 51.6729 9.39382 51.6435 9.37872 51.7056C9.01235 53.1968 8.61656 54.6208 8.14104 56.108C8.13142 56.1335 8.01623 56.059 7.99546 56.1184C7.70236 56.9483 7.70851 57.5399 7.61206 58.2757C7.51509 59.0153 7.34128 59.5693 7.0186 59.9297C6.91186 60.4682 6.62641 61.2167 6.46057 61.6522C6.29462 62.0874 6.52837 62.2099 6.52387 62.2505C6.39654 63.5013 6.09745 64.1636 5.7965 65.4482C5.65235 66.0606 5.44391 67.2442 5.33865 67.9149C5.25613 68.4409 5.1352 68.746 5.07829 69.2403C5.07055 69.3072 5.19494 69.2622 5.19534 69.2831C5.22718 69.8358 5.00344 69.5302 4.93379 69.6298C4.68118 69.9917 4.53989 70.2188 4.49639 70.9202C4.48616 71.082 4.79481 71.6162 4.7656 71.9113C4.72686 72.2952 4.61135 72.1267 4.57482 72.5311C4.5716 72.5658 4.65983 72.5739 4.61263 72.8198C4.40049 73.9291 4.14472 75.1429 3.96289 76.3384C3.93776 76.5015 4.10951 76.3146 4.07554 76.5507C3.92086 77.6289 3.73616 78.8103 3.51462 79.8779C3.45972 80.1403 3.38668 79.9603 3.34948 80.0136C3.12303 80.3454 3.30692 80.8728 3.30068 80.9523C3.15331 82.8789 2.71838 84.4043 2.58655 86.3694C2.5795 86.4777 2.75047 87.3448 2.47194 87.6932C2.45331 87.7169 2.16961 88.0604 2.29457 88.4107C2.30241 88.4325 2.45292 88.2136 2.39279 88.6192C2.33231 89.0283 2.34325 89.6594 2.14612 90.1945C2.08402 90.3628 1.79913 90.7463 1.93267 91.2894C1.94212 91.3245 2.2856 92.1788 1.95756 92.4385C1.90366 92.4806 1.59396 92.3966 1.68894 93.0462C1.70676 93.165 1.79264 92.9762 1.80941 93.2417C1.81053 93.2507 1.81154 93.2605 1.81244 93.2712C1.84032 93.6505 1.74144 94.2932 1.89238 94.8346C1.91801 94.9229 2.14345 95.3742 1.99479 95.6954C1.97158 95.7493 1.8615 95.6526 1.85768 95.8326C1.8418 96.7209 1.97902 97.5997 1.98757 98.5028C1.99181 98.8286 1.8067 98.6839 1.79163 99.0072C1.77554 99.3228 1.80397 100.022 1.91858 100.343C2.03384 100.672 2.26243 100.271 2.34198 100.778C2.69311 102.998 2.85104 105.231 3.18434 107.462C3.23425 107.794 3.28561 107.502 3.36735 107.993C3.66088 109.781 4.31013 112.847 4.41588 114.444C4.4951 115.707 4.06596 114.18 4.18574 115.137C4.2445 115.6 4.65583 116.037 4.68829 116.147C5.00499 117.196 5.02731 117.984 5.27654 118.938C5.32813 119.135 5.41143 118.913 5.45401 119.081C5.6004 119.652 5.68069 120.282 5.81501 120.833C5.87524 121.079 5.96059 121.012 6.00456 121.241C6.11118 121.789 6.18232 122.282 6.21815 122.84C6.22135 122.891 6.02596 122.59 6.11622 122.996C6.26094 123.647 6.36617 124.479 6.64196 125.214C6.72345 125.429 6.94254 125.384 6.91011 125.898C6.90366 126.006 6.61047 125.942 6.97476 126.443C7.03478 126.526 7.5763 127.394 7.4972 127.896C7.47657 128.029 7.34284 128.392 7.44582 128.65C7.46058 128.685 7.53922 128.51 7.60815 128.728C7.84978 129.5 8.05401 130.317 8.30757 131.104C8.37562 131.315 8.40907 130.965 8.50675 131.279C8.77672 132.149 9.04885 133.236 9.25744 134.1C9.33394 134.419 9.17232 134.23 9.16811 134.256C9.09926 134.676 9.39838 134.821 9.4477 134.939C9.7508 135.669 9.8116 136.278 10.0516 136.964C10.1174 137.153 10.1886 136.983 10.2102 137.019C10.4282 137.383 10.1369 137.151 10.191 137.408C10.342 138.127 10.5951 138.907 10.8342 139.608C10.9223 139.866 10.9591 139.533 11.0367 139.764C11.4988 141.134 11.9604 142.564 12.3504 143.92C12.4237 144.176 12.27 144.052 12.2655 144.112C12.2322 144.529 12.6339 144.981 12.6973 145.095C12.9864 145.613 12.9757 145.857 13.1677 146.337C14.0111 148.442 14.9649 151.015 15.8045 153.106L15.9008 153.49C15.9211 153.746 15.9409 153.996 15.9601 154.238C16.2088 157.355 16.3401 159.78 16.6494 162.746C16.6689 162.935 16.7896 162.731 16.8082 162.894C17.0422 164.99 17.1854 167.062 17.4264 169.163C17.4459 169.335 17.5538 169.074 17.5896 169.35C17.6639 169.916 17.7255 170.637 17.7383 171.216C17.7448 171.498 17.596 171.133 17.6048 171.417C17.6252 172.078 17.6831 172.783 17.7686 173.455C17.8053 173.742 17.8986 173.296 17.9358 173.669C18.192 176.21 18.4536 178.705 18.5246 181.291C18.5295 181.468 18.2706 181.649 18.3588 182.019C18.4375 182.04 18.5267 182.029 18.609 182.034C19.0062 185.731 19.2612 189.404 19.601 193.117C19.6154 193.274 19.7345 192.989 19.763 193.292C19.9284 195.046 20.1311 196.745 20.1583 198.553C20.1612 198.732 19.8975 198.665 19.9861 199.186C20.002 199.278 20.1114 200.064 20.1863 200.263C20.1973 200.29 20.3026 200.135 20.3304 200.389C20.4897 201.867 20.6106 203.419 20.6788 204.903C20.6896 205.142 20.5386 204.901 20.5452 205.071C20.5929 206.282 20.8143 207.582 20.8091 208.744C20.8051 209.521 20.5587 209.257 20.3821 209.687C20.3572 209.748 20.3979 210.225 20.2748 210.262C19.9652 210.355 19.5976 210.157 19.2702 210.284C19.1997 210.311 19.3387 210.942 19.1275 210.581C19.1132 210.556 19.0109 210.098 18.9406 209.99C18.892 209.914 18.778 210.069 18.7099 209.912C18.642 209.756 18.732 209.567 18.6445 209.305C18.5564 209.042 18.4224 209.174 18.354 208.639ZM5.73164 63.596C5.51907 63.9822 5.94329 64.141 5.93893 63.6714C5.93822 63.6486 5.74231 63.576 5.73164 63.596ZM26.8829 17.331C26.3918 17.6555 26.3959 18.1388 26.7538 17.9139C27.1123 17.6885 27.0314 17.2335 26.8829 17.331ZM30.3037 12.6929C29.7722 13.1075 30.2061 13.5839 30.5427 12.9569C30.5625 12.9205 30.3348 12.6686 30.3037 12.6929ZM20.1394 207.795C20.1341 207.801 20.161 208.145 20.1677 208.152C20.327 208.321 20.273 207.635 20.1394 207.795ZM33.8134 8.17651C33.6154 8.27786 33.3148 8.79129 33.5594 8.66601C33.7558 8.56544 34.0593 8.05056 33.8134 8.17651ZM1.54131 85.3751C1.53384 85.3808 1.49742 85.6226 1.53554 85.6225C1.65835 85.621 1.66667 85.2795 1.54131 85.3751ZM40.1801 0.820078C39.2025 1.8858 38.238 2.18653 39.3174 1.05429C39.5135 0.848772 39.0376 1.62346 39.3123 1.38436C39.8147 0.946762 39.8612 0.397336 40.4479 0.00426696C40.554 -0.0663102 40.2362 0.760512 40.179 0.822488C40.1794 0.821685 40.1797 0.820881 40.1801 0.820078ZM5.15229 63.7157C5.14459 63.7226 5.06459 64.0549 5.0686 64.0643C5.16734 64.2758 5.3284 63.6067 5.15229 63.7157ZM0.656013 99.7315C0.644616 99.7516 0.719195 100.556 0.733358 100.572C1.00933 100.959 0.861316 99.3555 0.656013 99.7315ZM11.708 41.6612C11.7198 41.2643 11.884 40.8389 12.1678 40.6376C12.011 40.9745 11.8599 41.3238 11.708 41.6612Z" fill="white"/>
</svg>
