<svg width="66" height="141" viewBox="0 0 66 141" fill="none" xmlns="http://www.w3.org/2000/svg">
<path d="M55.4081 1.19276C55.8126 2.04472 56.2314 3.18516 56.5233 4.08484C56.6105 4.35514 56.4838 4.25019 56.5415 4.44112C56.6568 4.82083 56.8274 5.15457 56.9282 5.5219C56.9622 5.64627 56.7876 5.54178 56.8259 5.67139C57.0464 6.40711 57.3093 7.02147 57.5425 7.73957C58.6804 11.2548 59.7466 14.6847 60.7161 18.2924C61.0329 19.4707 61.3118 20.9378 61.6748 22.1624C61.7169 22.3036 61.8024 22.1913 61.8181 22.2161C62.0609 22.6064 61.8088 22.5201 61.8497 22.8054C62.0146 23.9463 62.2945 25.1778 62.5757 26.2497C62.6941 26.7003 62.8081 26.1968 62.7884 26.6822C62.7872 26.7159 62.6472 26.6252 62.6623 26.7529C62.6968 27.0422 62.8324 27.5789 62.8694 27.8032C62.9407 28.2365 62.9554 28.3028 63.0353 28.7056C63.143 29.2545 63.2142 29.929 63.3494 30.514C63.3786 30.6391 63.4661 30.45 63.5234 30.6478C63.5809 30.8457 63.667 31.3834 63.6704 31.5696C63.6742 31.7557 63.5675 31.6947 63.5517 31.7305C63.4179 32.0257 63.7719 32.603 63.7909 32.6816C64.136 34.1214 64.1749 35.3975 64.3483 36.7738C64.4797 37.816 64.6484 38.933 64.7326 39.9313C64.8324 41.1232 64.8401 42.1359 64.9129 43.2944C64.9203 43.4167 65.0542 43.2659 65.0634 43.4154C65.1437 44.7281 65.1707 46.0397 65.1136 47.3479C65.1016 47.6222 65.0843 47.8969 65.0615 48.1721C65.048 48.3308 64.9287 48.1232 64.9077 48.2812C64.7888 49.2484 64.424 50.7732 64.8959 51.3999C64.8076 52.0488 64.6815 52.8416 64.4833 53.4116C64.3553 53.7789 64.2797 53.3908 64.2624 53.8634C64.2579 53.9702 64.3973 53.8531 64.3816 54.0121C64.3136 54.6882 64.1417 55.3891 64.0674 56.0405C64.0525 56.1734 64.1638 56.1599 64.1747 56.2009C64.2607 56.5452 63.893 57.01 63.8483 57.1181C63.5141 57.9418 63.3984 58.609 63.1833 59.3771C63.1321 59.5583 63.3292 59.3819 63.2847 59.5579C63.0512 60.4709 62.7505 61.4124 62.3955 62.2867C62.3161 62.481 62.2612 62.26 62.2173 62.3508C62.0238 62.7535 62.2122 62.9119 62.03 63.2873C61.9918 63.3663 61.9097 63.2857 61.8937 63.297C61.6429 63.4721 61.81 63.7602 61.7936 63.8228C61.5916 64.6145 61.1597 65.0114 60.9079 65.7639C60.8778 65.8542 61.0785 65.7021 60.986 65.9533C60.3713 67.6231 59.6042 69.3038 58.7608 70.8586C58.6323 71.0949 58.6241 70.8793 58.6059 70.8895C58.3168 71.0574 58.471 71.3274 58.4419 71.411C58.2066 72.067 57.7278 72.5564 57.7877 73.1172C56.3685 75.7272 55.0878 78.3883 53.3589 80.7523C53.3371 80.7826 53.2634 80.661 53.2204 80.7217C52.6999 81.4522 52.9552 81.4052 52.8499 82.0377C52.823 82.1972 52.338 82.4351 52.2988 82.4581C52.1552 82.5423 52.0763 82.3143 52.0376 82.3482C51.725 82.628 52.2858 82.8977 51.9972 83.3597C51.9873 83.3736 51.9288 83.2526 51.895 83.2853C51.7896 83.3866 51.753 83.5298 51.6458 83.6265C51.3993 83.8472 51.0856 83.7815 50.9717 84.2851C50.9575 84.3492 51.3044 84.4588 51.0265 84.8607C50.9161 85.0208 50.4514 85.748 50.2989 85.9379C50.1473 86.1277 50.1439 85.9268 50.1303 85.9386C49.6477 86.4006 49.7311 86.1607 49.3674 86.3096C49.0054 86.4565 49.4927 86.6729 49.4685 86.8152C49.4441 86.9578 49.0779 87.2832 48.9772 87.3558C48.8766 87.4285 48.8981 87.2679 48.8202 87.3402C48.3051 87.8202 48.8679 87.736 48.8101 87.9704C48.6734 88.5241 48.1157 88.6485 47.8065 89.0295C47.7227 89.1327 47.8572 89.0942 47.7969 89.1961C47.5568 89.5989 47.2963 89.7602 47.0816 90.2605C47.0461 90.3429 46.9912 90.8281 46.6899 90.9555C46.6469 90.9733 46.6323 90.826 46.4996 90.9754C46.3013 91.1987 45.9731 91.6215 45.8129 91.8997C45.6947 92.1051 45.9826 91.9793 45.7686 92.1912C45.6734 92.2852 45.7405 92.0321 45.568 92.2132C45.3964 92.3933 45.0291 92.9057 44.8898 93.1012C44.751 93.2965 44.9264 93.2624 44.9216 93.2829C44.8903 93.4052 44.6648 93.8108 44.6404 93.8434C43.4339 95.5044 42.128 96.8821 40.953 98.4963C40.8605 98.623 41.0257 98.6197 41.0126 98.6398C40.7237 99.0957 40.7168 98.5526 40.3959 98.7769C40.6337 98.8948 40.4602 99.0399 40.2486 99.354C40.1467 99.5055 40.2871 99.4901 40.2849 99.5095C40.2373 99.8162 39.9656 99.8409 39.904 99.8536C39.6766 99.9011 39.6929 100.162 39.5395 100.196C39.3868 100.229 39.4467 99.9197 39.2228 100.203C39.2322 100.341 39.5897 100.282 39.4491 100.522C38.9218 101.423 37.5463 102.811 36.9992 103.439C36.4539 104.068 36.2952 104.285 35.9596 104.634C35.3527 105.264 35.6982 105.133 35.4099 105.603C35.1187 106.076 34.9519 105.586 34.8282 105.585C34.7054 105.582 34.7259 105.71 34.6237 105.749C34.5219 105.788 34.6063 105.588 34.4458 105.747C34.2853 105.907 34.016 106.485 34.04 106.61C34.0913 106.875 34.44 106.809 33.994 107.21C33.9682 107.233 33.9518 107.073 33.8577 107.165C33.1107 107.898 32.4151 108.692 31.6599 109.432C31.5569 109.533 31.544 109.351 31.4829 109.408C30.8473 110.006 31.2167 109.917 31.0844 110.434C30.9125 110.14 30.5903 110.207 30.1546 110.694C29.8925 110.987 30.0431 111.03 29.9485 111.286C29.9202 111.363 29.6631 111.505 29.6792 111.586C29.7308 111.855 30.0859 111.823 29.5658 112.258C29.5428 112.276 29.5168 112.127 29.4436 112.198C28.9642 112.661 29.0758 112.876 28.612 113.429C28.2477 113.863 27.4713 114.508 27.0252 114.959C26.7663 114.703 26.4225 115.199 26.4425 115.546C26.1523 115.845 25.8507 116.191 25.5502 116.462C25.4466 116.556 25.4319 116.417 25.4117 116.422C25.0977 116.497 25.1524 116.795 25.0979 116.868C24.4986 117.644 23.8308 118.082 23.3267 118.874C23.3083 118.903 23.4538 119.116 23.1464 119.172C23.126 119.174 23.2572 118.87 22.9453 119.184C22.6331 119.499 21.9626 120.003 21.6286 120.517C21.5476 120.642 21.4391 121.05 21.1195 121.149C21.0766 121.162 21.0544 121.081 20.9861 121.093C20.7669 121.135 20.8809 121.384 20.5765 121.386C20.2776 121.382 19.8345 121.604 19.5101 122.149C19.4994 122.166 19.5417 122.412 19.4038 122.548C19.1836 122.765 18.8479 123.046 18.6253 123.273C18.5188 123.382 18.6767 123.401 18.6598 123.421C17.9947 124.194 17.4012 124.632 16.5713 125.39C16.4202 125.527 16.1277 126.06 15.7573 126.235C15.3517 126.427 15.2249 125.686 14.6414 126.467C14.4101 126.777 14.5712 127.716 13.7743 127.927C12.8532 128.965 11.7867 129.704 10.8707 130.776C10.8301 130.823 10.8389 131.117 10.7321 131.214C10.5733 131.358 10.4184 131.365 10.304 131.464C9.8378 131.863 9.40808 132.389 8.9474 132.802C8.76965 132.962 8.75796 132.828 8.54789 133.017C8.33889 133.204 8.2977 133.433 7.98086 133.636C7.75245 133.779 7.30969 133.803 7.00098 134.043C7.18077 134.259 6.97411 134.442 6.67884 134.815C6.62229 134.887 6.75948 134.893 6.73614 134.931C6.64269 135.085 6.47128 135.133 6.38991 135.282C6.37002 135.318 6.43343 135.39 6.42086 135.423C6.32142 135.706 5.83609 135.858 5.74176 135.893C5.40853 136.005 5.38451 136.195 5.17108 136.313C4.95906 136.43 5.17216 136.142 4.94624 136.301C4.47597 136.633 3.99614 137.087 3.52267 137.506C3.34721 137.662 3.55168 137.65 3.52855 137.674C3.18685 138.024 2.77335 138.21 2.75162 138.57C2.04651 138.315 2.54336 138.841 1.95422 139.185C1.90886 139.21 1.65338 139.02 1.77205 138.855C1.8912 138.689 2.19435 138.551 2.38295 138.289C2.44773 138.209 2.50191 137.77 2.5317 137.72C2.73043 137.358 3.08842 137.661 3.1205 137.667C3.48445 137.712 3.64033 137.15 3.72609 137.043C4.1062 136.567 4.45187 136.342 4.7675 135.96C4.96885 135.715 4.78738 135.468 4.98068 135.304C5.6471 134.737 6.0716 134.924 6.39508 134.125C6.46331 133.955 6.11349 133.825 6.73117 133.61C6.7683 133.598 7.26745 133.462 7.35236 133.176C7.36131 133.142 7.29449 133.072 7.31793 133.039C7.47663 132.819 7.66051 132.753 7.8523 132.523C8.04419 132.293 8.27141 132.005 8.55015 131.788C8.71773 131.657 9.0423 131.6 9.14804 131.561C9.44884 131.453 9.5343 131.084 9.75764 131.085C9.98836 131.08 9.90761 131.482 10.3026 131.245C10.1412 131.051 9.99076 130.837 9.83561 130.634C10.5502 129.968 11.3722 129.294 12.0835 128.592C12.1706 128.505 11.9861 128.495 12.0772 128.4C12.4624 127.997 12.8843 127.722 13.2845 127.278C13.5918 126.936 13.8677 126.465 14.1821 126.105C14.5865 126.113 15.0138 125.554 15.398 125.21C15.5324 125.089 15.5782 125.152 15.6872 125.079C16.0979 124.802 15.7565 124.782 15.8229 124.659C16.1098 124.132 16.5522 124.506 17.0296 124.007C17.0604 123.976 17.1389 123.461 17.1677 123.405C17.3426 123.051 17.2871 123.436 17.4685 123.286C17.8001 123.011 18.0633 122.849 18.3577 122.422C18.4433 122.297 18.5579 121.907 18.8684 121.803C18.9092 121.789 18.9669 121.875 18.9928 121.857C19.4567 121.526 19.2392 121.291 19.3873 120.984C19.5423 120.671 20.024 120.491 20.1408 120.462C20.4378 120.392 20.0542 120.652 20.0562 120.673C20.0803 120.924 20.3012 120.649 20.5006 120.467C20.7527 120.657 21.0024 120.372 20.7066 120.277C20.6738 120.267 20.5486 120.438 20.5006 120.467C20.4447 120.083 20.7047 119.758 21.2328 119.623C21.4804 119.56 21.4506 119.818 21.8679 119.3C22.0576 119.065 21.8212 119 21.9629 118.767C22.2897 118.231 22.9758 117.801 23.3725 117.335C23.5176 117.165 23.2823 117.242 23.3785 117.123C23.6336 116.806 23.9444 116.604 24.1925 116.273C24.2149 116.243 24.0624 116.225 24.1487 116.131C24.7986 115.416 25.4501 114.831 26.1216 114.104C26.45 113.749 26.9875 113.061 27.3391 112.694C27.9483 112.059 28.811 111.369 29.2698 110.789C29.5724 110.408 29.4091 110.405 29.4847 110.193C29.6298 109.785 30.3224 109.443 30.4204 109.4C30.4235 109.399 30.1666 109.734 30.3629 109.607C30.5486 109.597 30.4177 109.404 30.4204 109.4C30.4842 109.372 31.0623 108.757 31.1551 108.614C31.2055 108.537 31.0837 108.499 31.1117 108.46C31.7764 107.54 32.4765 106.685 33.2598 105.851C33.2746 105.838 33.3547 105.946 33.3883 105.912C33.8611 105.448 34.013 105.02 34.2924 104.541C34.5686 104.065 34.8668 103.758 35.2451 103.656C35.4851 103.324 35.9364 102.936 36.1985 102.713C36.4605 102.49 36.2935 102.291 36.3085 102.265C36.7727 101.445 37.2299 101.115 37.8485 100.385C38.1439 100.036 38.6814 99.3049 38.967 98.899C39.1925 98.5781 39.3857 98.4298 39.5788 98.1222C39.6049 98.0806 39.4851 98.0493 39.4909 98.0349C39.6327 97.6341 39.7316 97.9576 39.822 97.9227C40.1499 97.7963 40.3415 97.7076 40.5911 97.2478C40.6488 97.1419 40.5445 96.6235 40.658 96.438C40.8062 96.1971 40.855 96.3686 41.007 96.1137C41.0201 96.092 40.9468 96.0424 41.0605 95.9004C41.5873 95.2407 42.1839 94.5374 42.7015 93.8286C42.7724 93.732 42.5682 93.7714 42.6687 93.6305C43.1405 92.9696 43.6724 92.2547 44.1897 91.6529C44.3174 91.505 44.3253 91.6614 44.3737 91.6442C44.6691 91.5373 44.6764 91.0884 44.7077 91.0364C45.4503 89.7905 46.2788 89.0151 47.0235 87.734C47.064 87.6639 47.1846 86.9994 47.5335 86.9035C47.557 86.8968 47.9095 86.8057 47.9069 86.5138C47.9067 86.4957 47.7093 86.5672 47.8845 86.3287C48.0603 86.0892 48.2524 85.6515 48.5927 85.3831C48.6998 85.2986 49.0698 85.1742 49.1204 84.7457C49.1235 84.7169 49.0838 83.9824 49.4495 83.9663C49.5093 83.9641 49.7565 84.1656 49.8681 83.6909C49.8888 83.6 49.7437 83.6961 49.8309 83.4777C49.9641 83.143 50.2864 82.7926 50.3968 82.3506C50.4159 82.2732 50.4037 81.8875 50.6775 81.755C50.7204 81.7342 50.7699 81.855 50.8515 81.7456C51.2439 81.2196 51.5402 80.5973 51.9422 80.0681C52.0844 79.8803 52.1697 80.0707 52.3341 79.8843C52.4985 79.6978 52.7863 79.2966 52.8472 79.0374C52.9081 78.7782 52.5333 78.8808 52.7056 78.5414C53.4501 77.0718 54.4008 75.687 55.1825 74.2482C55.2986 74.0342 55.119 74.1677 55.2829 73.8494C55.9069 72.6478 56.8254 70.5599 57.4889 69.5958C58.0281 68.8137 57.6546 69.9378 58.0124 69.3141C58.1846 69.0122 58.046 68.5439 58.0701 68.4646C58.3028 67.6857 58.6492 67.229 58.8832 66.5496C58.9312 66.4095 58.7574 66.4948 58.7994 66.3762C58.9393 65.9767 59.1668 65.5621 59.3082 65.1706C59.3715 64.9942 59.2676 64.991 59.3365 64.8335C59.4999 64.456 59.6656 64.1321 59.8887 63.7903C59.9091 63.7591 59.9393 64.031 60.0475 63.7486C60.2219 63.2918 60.5087 62.7518 60.5977 62.195C60.6252 62.0249 60.4155 61.948 60.676 61.6517C60.7301 61.5896 60.9567 61.7648 60.8656 61.2911C60.8518 61.2105 60.7649 60.4458 61.0558 60.1765C61.1328 60.1052 61.4101 59.9459 61.433 59.7438C61.4353 59.7163 61.2895 59.7867 61.3245 59.6247C61.4504 59.0501 61.6179 58.4888 61.7351 57.8802C61.7652 57.7207 61.5851 57.9234 61.6334 57.6871C61.7662 57.0377 61.9812 56.249 62.1486 55.6358C62.2106 55.4098 62.2786 55.589 62.293 55.5746C62.5275 55.3425 62.3172 55.1349 62.3205 55.0438C62.3424 54.4839 62.5357 54.0596 62.5898 53.5363C62.6049 53.3913 62.4725 53.4746 62.4668 53.4444C62.4126 53.133 62.5862 53.386 62.6383 53.2022C62.7846 52.6872 62.854 52.1021 62.8989 51.5751C62.9151 51.3816 62.7554 51.5829 62.7712 51.4099C62.8617 50.3876 62.9522 49.2893 63.0536 48.2933C63.0728 48.1048 63.1746 48.2262 63.1995 48.1874C63.3743 47.9179 63.1489 47.5164 63.1269 47.4264C63.1204 47.3992 63.1147 47.373 63.1097 47.3479C63.039 46.9798 63.1177 46.8117 63.0975 46.4593C62.993 44.6174 62.9321 42.3411 62.8167 40.5979C62.6672 38.3299 62.5487 36.5551 62.2012 34.4083C62.1789 34.2713 62.062 34.4305 62.041 34.3129C61.7757 32.7967 61.5691 31.298 61.234 29.7881C61.2067 29.6644 61.1119 29.8688 61.0637 29.6713C60.9637 29.2652 60.8676 28.7535 60.8224 28.3296C60.8002 28.1232 60.9678 28.3713 60.9431 28.164C60.8856 27.6812 60.7859 27.1738 60.6587 26.6979C60.6042 26.4956 60.5407 26.833 60.4801 26.5681C60.0586 24.7422 59.6011 22.9805 59.2822 21.1085C59.2605 20.9808 59.4979 20.8041 59.3736 20.547C59.2944 20.5468 59.2081 20.5714 59.1271 20.5839C58.3715 17.9701 57.6813 15.3578 56.8384 12.7658C56.8032 12.6579 56.7267 12.8897 56.6579 12.6813C56.2491 11.445 55.8074 10.2919 55.4934 8.99358C55.4623 8.86594 55.7256 8.83972 55.559 8.49464C55.5315 8.43891 55.2971 7.89867 55.1914 7.77437C55.1765 7.75806 55.1013 7.8995 55.0326 7.72409C54.6452 6.73095 54.2515 5.62789 53.9218 4.60272C53.8671 4.43276 54.0555 4.56159 54.0177 4.44054C53.7591 3.60921 53.2962 2.73774 53.0722 1.91982C52.9199 1.36723 53.2004 1.46343 53.2877 1.12051C53.2853 1.03832 53.1717 0.768808 53.2643 0.667471C53.5317 0.48836 53.9296 0.528862 54.2071 0.320998C54.2352 0.294636 54.172 0.156246 54.1599 0.101917C54.1332 0.0287449 54.1378 0.0174602 54.1552 0.0109625C54.174 0.00762534 54.1881 -0.0296143 54.2748 0.0554135C54.283 0.0593917 54.3261 0.111902 54.4009 0.222345C54.4605 0.298371 54.5271 0.376451 54.5739 0.40866C54.6375 0.450971 54.7076 0.29157 54.8099 0.393423C54.9157 0.503681 54.8537 0.630163 54.9985 0.80941C55.1474 0.996899 55.232 0.822923 55.4081 1.19276ZM37.3757 101.702C37.6696 101.535 37.3507 101.216 37.2192 101.548C37.2132 101.564 37.3608 101.711 37.3757 101.702ZM11.5839 129.558C12.0251 129.409 12.0348 128.995 11.7121 129.094C11.3903 129.191 11.45 129.603 11.5839 129.558ZM8.58326 132.604C9.04038 132.389 8.66043 131.873 8.37298 132.319C8.35623 132.345 8.55667 132.616 8.58326 132.604ZM53.89 2.37412C53.893 2.36571 53.807 2.14577 53.7981 2.14014C53.6171 2.07712 53.7928 2.52539 53.89 2.37412ZM5.60695 135.573C5.79634 135.517 6.01805 135.179 5.81833 135.217C5.66853 135.237 5.38626 135.63 5.60695 135.573ZM47.6187 88.916C47.6271 88.9157 47.7356 88.769 47.7024 88.7506C47.5951 88.6917 47.4794 88.92 47.6187 88.916ZM0.215298 140.383C1.06233 139.684 1.84588 139.694 0.973226 140.376C0.823529 140.491 1.17476 139.979 0.958284 140.104C0.858365 140.162 0.787938 140.229 0.732205 140.299C0.653828 140.388 0.566682 140.499 0.503469 140.587C0.437402 140.676 0.379209 140.755 0.318091 140.814C0.306546 140.83 0.0542771 141.029 0.0366157 140.985C0.0343814 140.966 -0.0754681 140.947 0.0984657 140.691C0.12431 140.561 0.190392 140.402 0.216231 140.381C0.21592 140.381 0.215598 140.382 0.215298 140.383ZM37.9082 101.902C37.9169 101.901 38.081 101.707 38.0803 101.699C38.0561 101.503 37.7256 101.892 37.9082 101.902ZM53.5987 80.1082C53.617 80.1027 53.9234 79.6042 53.9226 79.5818C53.8757 79.2017 53.257 80.2072 53.5987 80.1082ZM27.0113 114.959C26.9316 115.258 26.7227 115.509 26.4435 115.546C26.6339 115.354 26.8199 115.154 27.0113 114.959Z" fill="white"/>
</svg>
