<svg width="62" height="117" viewBox="0 0 62 117" fill="none" xmlns="http://www.w3.org/2000/svg">
<path d="M2.36605 0.942351C2.66352 1.62096 2.96642 2.5433 3.17266 3.25329C3.23747 3.47574 3.12182 3.39431 3.16321 3.54913C3.24426 3.85189 3.3832 4.11004 3.45742 4.41145C3.48165 4.51147 3.31896 4.4369 3.34707 4.54076C3.50194 5.10961 3.72774 5.61788 3.91233 6.18369C4.82138 8.97077 5.79221 11.6813 6.78379 14.4755C7.11084 15.3968 7.42286 16.549 7.82563 17.4762C7.87275 17.5844 7.95142 17.4796 7.96786 17.4974C8.2224 17.7773 7.97232 17.7466 8.02555 17.9719C8.23736 18.8661 8.5852 19.8181 8.93441 20.6238C9.08328 20.9665 9.15683 20.539 9.17398 20.934C9.17539 20.9614 9.03215 20.9142 9.05651 21.0143C9.11199 21.2414 9.28688 21.6461 9.3416 21.8176C9.4465 22.1486 9.46783 22.2018 9.58219 22.5091C9.73756 22.9295 9.87093 23.449 10.0654 23.8896C10.1072 23.9835 10.1719 23.8139 10.2488 23.9599C10.3257 24.106 10.469 24.5152 10.494 24.662C10.519 24.8088 10.4085 24.7839 10.3973 24.8157C10.3011 25.0794 10.7151 25.4592 10.7437 25.5174C11.2584 26.5804 11.479 27.5752 11.8687 28.6083C12.1648 29.3925 12.5255 30.2144 12.8006 30.963C13.1279 31.8551 13.3509 32.6317 13.6868 33.4915C13.7222 33.5823 13.8143 33.4256 13.8577 33.5364C14.3189 34.7136 14.7471 35.8937 15.1016 37.1052C15.137 37.2268 14.9634 37.1184 14.9918 37.2424C15.1685 38.0009 15.3698 39.2307 16.0377 39.4691C16.2023 39.966 16.4058 40.5679 16.4688 41.0442C16.5095 41.3512 16.2795 41.1248 16.4642 41.4512C16.5058 41.5249 16.5783 41.3814 16.6322 41.495C16.8589 41.9736 17.0262 42.5267 17.2676 42.9937C17.3169 43.0886 17.4061 43.024 17.4346 43.0454C17.6687 43.2274 17.5775 43.7116 17.5925 43.804C17.7091 44.5069 17.9401 44.9652 18.1665 45.5756C18.219 45.7172 18.2895 45.4998 18.3448 45.6343C18.6297 46.3326 18.8937 47.0678 19.0947 47.7809C19.1391 47.9397 18.9722 47.8412 18.9876 47.9192C19.0569 48.2629 19.2987 48.2537 19.3693 48.5817C19.3844 48.6508 19.2732 48.6506 19.267 48.6666C19.1696 48.9167 19.4686 48.9895 19.492 49.0356C19.7928 49.6166 19.691 50.0988 19.9475 50.673C19.9785 50.7416 20.0419 50.5367 20.1214 50.7324C20.6513 52.0356 21.1419 53.4402 21.5343 54.78C21.5954 54.9883 21.4484 54.8786 21.4418 54.8956C21.3419 55.1705 21.6313 55.2149 21.6652 55.2776C21.9262 55.7742 21.9094 56.3363 22.3272 56.5832C23.0599 58.8269 24.0473 60.9631 24.617 63.2474C24.6246 63.2763 24.4882 63.2708 24.5037 63.3283C24.6895 64.0216 24.8239 63.8243 25.2141 64.1824C25.3122 64.2726 25.1701 64.7132 25.1616 64.7507C25.1298 64.8874 24.9122 64.84 24.9118 64.8819C24.915 65.2264 25.4751 64.959 25.6291 65.3673C25.633 65.3805 25.5063 65.367 25.5086 65.4052C25.5155 65.5242 25.5976 65.6139 25.6002 65.7319C25.6052 66.0023 25.3561 66.1932 25.6569 66.4958C25.6956 66.5339 25.9972 66.3398 26.1191 66.7103C26.1674 66.8581 26.4155 67.4994 26.4622 67.6877C26.5088 67.8758 26.3564 67.792 26.3567 67.8066C26.3997 68.3445 26.2724 68.1824 26.1569 68.5035C26.0423 68.8244 26.5089 68.5715 26.6011 68.65C26.6915 68.7271 26.7112 69.1126 26.7052 69.2242L26.6814 69.1802C26.6818 69.1824 26.6823 69.1844 26.6827 69.1864C26.7034 69.287 26.5765 69.2356 26.6061 69.3169C26.8041 69.8546 26.9595 69.3573 27.1341 69.4542C27.5465 69.6821 27.4293 70.1813 27.6302 70.5196C27.6846 70.6111 27.705 70.4889 27.7675 70.56C28.0142 70.8425 28.0491 71.0956 28.3906 71.3723C28.4464 71.4176 28.8387 71.5559 28.8317 71.8371C28.8303 71.8771 28.699 71.8625 28.7757 72.0037C28.8902 72.2148 29.1267 72.5729 29.3042 72.7599C29.4353 72.8978 29.4363 72.6287 29.5368 72.8497C29.5814 72.9479 29.3901 72.8456 29.4802 73.0256C29.5696 73.2048 29.8716 73.6091 29.9878 73.762C30.1039 73.9146 30.1397 73.7581 30.1555 73.7658C30.2487 73.8136 30.5136 74.0755 30.5327 74.1018C31.515 75.4149 32.2447 76.7549 33.244 78.0018C33.3223 78.0998 33.3761 77.9567 33.3892 77.9709C33.6862 78.2849 33.2116 78.2138 33.297 78.5228C33.4809 78.3341 33.5476 78.5045 33.7494 78.7312C33.8468 78.8403 33.881 78.7168 33.8972 78.7214C34.1481 78.805 34.0779 79.0431 34.0683 79.0982C34.0331 79.3013 34.2667 79.3229 34.2443 79.4601C34.2223 79.5968 33.9721 79.5029 34.1451 79.7353C34.2682 79.7458 34.3369 79.4285 34.4988 79.5825C35.1101 80.1635 35.8732 81.5254 36.2521 82.0751C36.6303 82.6237 36.7714 82.787 36.974 83.1198C37.3398 83.7209 37.3332 83.407 37.6573 83.7091C37.9822 84.0122 37.4989 84.1037 37.4591 84.2108C37.4187 84.3168 37.5376 84.313 37.5407 84.4058C37.5437 84.4984 37.3935 84.4035 37.4839 84.5599C37.5745 84.7165 38.002 85.0122 38.1201 85.0045C38.3702 84.9881 38.418 84.6783 38.6366 85.1078C38.649 85.1326 38.5024 85.1301 38.5549 85.2215C38.9748 85.9453 39.4817 86.6453 39.9093 87.3621C39.9679 87.4608 39.8028 87.4552 39.8358 87.5135C40.1786 88.1209 40.2086 87.7918 40.6292 87.9539C40.3179 88.0767 40.2825 88.3631 40.592 88.7879C40.7779 89.0433 40.8597 88.9159 41.0609 89.0217C41.1214 89.0533 41.1755 89.291 41.253 89.2843C41.5072 89.2634 41.5787 88.9497 41.8213 89.4439C41.8316 89.4658 41.6909 89.4751 41.7337 89.5456C42.01 90.0016 42.2308 89.9183 42.5926 90.3647C42.8763 90.7147 43.238 91.4417 43.523 91.868C43.2234 92.0746 43.5768 92.4154 43.8952 92.4252C44.0837 92.6993 44.3076 92.9804 44.4698 93.26C44.5257 93.3561 44.3978 93.3599 44.3969 93.3779C44.3795 93.6559 44.6618 93.628 44.7119 93.6802C45.2472 94.2522 45.473 94.8725 46.058 95.3639C46.0788 95.3813 46.3078 95.2661 46.2765 95.5353C46.2738 95.5531 46.0361 95.4236 46.2355 95.7103C46.435 95.9971 46.7153 96.608 47.0966 96.9296C47.1888 97.0075 47.5298 97.1253 47.5415 97.4121C47.5427 97.4506 47.4638 97.4655 47.4584 97.5263C47.4424 97.7217 47.6961 97.6357 47.6242 97.9044C47.5522 98.1731 47.6354 98.5611 48.0455 98.8667C48.0582 98.8767 48.2899 98.8502 48.3783 98.976C48.5193 99.177 48.6915 99.4829 48.8442 99.6887C48.9174 99.7872 48.9723 99.6495 48.9867 99.6654C49.5318 100.289 49.7889 100.829 50.2728 101.57C50.3613 101.706 50.775 101.98 50.8514 102.313C50.9356 102.678 50.2286 102.758 50.8156 103.31C51.052 103.532 51.9225 103.395 51.935 104.097C52.6747 104.935 53.1163 105.888 53.8925 106.703C53.9273 106.739 54.1974 106.738 54.2648 106.835C54.3646 106.979 54.3391 107.117 54.4077 107.222C54.6931 107.662 55.0473 107.997 55.3354 108.413C55.4449 108.57 55.3201 108.579 55.4507 108.767C55.5814 108.954 55.7837 108.995 55.9129 109.285C56.0102 109.504 55.9195 109.86 56.0766 110.13C56.3096 109.974 56.4312 110.149 56.7153 110.411C56.77 110.462 56.8024 110.341 56.8324 110.362C56.956 110.445 56.9676 110.598 57.0906 110.673C57.1204 110.691 57.1985 110.636 57.2272 110.647C57.4742 110.746 57.5202 111.172 57.5277 111.246C57.5575 111.527 57.7255 111.545 57.7912 111.73C57.8567 111.914 57.6346 111.73 57.7365 111.926C57.9479 112.333 58.3049 112.793 58.5736 113.167C58.6814 113.315 58.7103 113.139 58.7281 113.158C58.9789 113.445 59.0965 113.835 59.4263 113.854C59.0514 114.456 59.6132 114.001 59.8281 114.516C59.8448 114.557 59.626 114.785 59.4921 114.68C59.3582 114.575 59.2894 114.317 59.0972 114.175C59.0518 114.142 58.6338 114.065 58.5947 114.042C58.288 113.857 58.6353 113.544 58.6456 113.515C58.7507 113.192 58.2739 113.074 58.1976 113.007C57.8483 112.699 57.6724 112.349 57.3901 112.084C57.2059 111.911 56.9459 112.071 56.8378 111.909C56.4784 111.367 56.687 110.933 56.0278 110.657C55.8867 110.598 55.6954 110.9 55.6283 110.366C55.6242 110.333 55.6108 109.91 55.3693 109.837C55.3389 109.828 55.2611 109.886 55.2348 109.864C55.0598 109.714 55.0338 109.548 54.8596 109.374C54.6855 109.199 54.4675 108.995 54.3292 108.751C54.2458 108.604 54.2642 108.324 54.2524 108.233C54.221 107.975 53.9085 107.902 53.9499 107.698C53.9912 107.492 54.3451 107.575 54.2061 107.216C53.9947 107.355 53.7673 107.482 53.5498 107.615C53.0751 106.953 52.6668 106.259 52.1744 105.607C52.1132 105.526 52.0652 105.69 51.9967 105.605C51.7083 105.249 51.5494 104.869 51.2373 104.509C50.9952 104.231 50.6409 103.99 50.3842 103.702C50.4779 103.342 50.0613 102.94 49.8373 102.59C49.7587 102.468 49.8266 102.43 49.7857 102.332C49.6302 101.963 49.5326 102.261 49.4371 102.198C49.0279 101.93 49.47 101.557 49.1388 101.13C49.1215 101.107 48.6664 101.007 48.6225 100.98C48.3406 100.807 48.6788 100.876 48.5838 100.708C48.4102 100.401 48.3256 100.162 48.0101 99.8842C47.9178 99.8036 47.5933 99.6856 47.5754 99.4105C47.5729 99.3743 47.6649 99.3278 47.6551 99.3044C47.4716 98.8866 47.2071 99.0662 46.9692 98.9251C46.7313 98.7838 46.6765 98.3363 46.6804 98.2342C46.6891 97.9681 46.8319 98.3219 46.8517 98.3215C47.0853 98.3152 46.889 98.1036 46.7724 97.9174C47.0062 97.7064 46.8097 97.4705 46.6505 97.725C46.6334 97.7533 46.7579 97.8734 46.7724 97.9174C46.4107 97.9442 46.1797 97.696 46.1912 97.2262C46.1967 97.0062 46.4206 97.0459 46.0614 96.6535C45.8984 96.4754 45.7794 96.6778 45.6066 96.5418C45.2121 96.2311 45.0021 95.605 44.6813 95.2216C44.5649 95.0824 44.5741 95.2945 44.4912 95.2018C44.2711 94.956 44.1711 94.6701 43.9393 94.431C43.9182 94.4095 43.8617 94.5415 43.7998 94.4597C43.3281 93.8414 42.9912 93.2487 42.5126 92.5929C42.2813 92.2761 41.8113 91.751 41.5819 91.4153C41.1837 90.8339 40.8159 90.0291 40.4247 89.5699C40.1699 89.2701 40.1212 89.4127 39.9538 89.327C39.6301 89.162 39.5261 88.526 39.5168 88.4368C39.5166 88.434 39.7399 88.689 39.6845 88.5062C39.7291 88.3435 39.5195 88.4396 39.5168 88.4368C39.5103 88.3786 39.1338 87.8182 39.0355 87.7242C38.982 87.6731 38.9117 87.7753 38.8856 87.7474C38.2673 87.0823 37.7086 86.3715 37.2114 85.6016C37.2038 85.5872 37.3238 85.5292 37.3046 85.4964C37.0381 85.0349 36.7082 84.8564 36.373 84.5606C36.0379 84.2648 35.8587 83.9668 35.887 83.6252C35.6692 83.3764 35.4696 82.9364 35.3573 82.6814C35.2449 82.4263 35.0168 82.5467 34.9986 82.5304C34.4267 82.024 34.289 81.5897 33.849 80.9518C33.6401 80.6483 33.178 80.0813 32.9196 79.7764C32.715 79.5357 32.6509 79.3473 32.4482 79.1358C32.4209 79.1071 32.3528 79.2063 32.3422 79.1993C32.0409 79.0184 32.3569 78.9797 32.3573 78.8964C32.3591 78.5942 32.3478 78.4165 32.0339 78.1322C31.9616 78.0665 31.4743 78.0783 31.3522 77.9515C31.1941 77.7862 31.3603 77.7704 31.1917 77.5995C31.1774 77.5848 31.1086 77.6405 31.025 77.52C30.636 76.9614 30.2385 76.3329 29.8129 75.768C29.755 75.6907 29.7152 75.8735 29.6298 75.7631C29.2289 75.245 28.8083 74.6633 28.4836 74.1101C28.4041 73.9737 28.5415 73.9949 28.5448 73.9502C28.5632 73.6771 28.1809 73.5895 28.148 73.5529C27.3575 72.6841 27.0154 71.8262 26.2219 70.9317C26.1783 70.8833 25.6616 70.6437 25.7199 70.3248C25.723 70.3061 25.772 70.061 25.6209 69.9587L25.4742 69.688C25.4566 69.6673 25.434 69.6485 25.4052 69.6324C25.3912 69.6247 25.3235 69.7969 25.2509 69.5684C25.1783 69.3398 24.9648 69.0084 24.9764 68.6523C24.9798 68.5397 25.118 68.2244 24.829 68.0011C24.8093 67.9869 24.2346 67.6907 24.454 67.4249C24.4903 67.3816 24.7966 67.2972 24.514 67.0072C24.4596 66.952 24.4389 67.0973 24.3318 66.9381C24.1673 66.6943 24.113 66.3097 23.857 66.0302C23.8121 65.9816 23.519 65.813 23.5977 65.5596C23.61 65.5199 23.7309 65.5409 23.7029 65.4333C23.5705 64.921 23.3102 64.4306 23.1903 63.9051C23.1476 63.719 23.3415 63.7493 23.3148 63.5486C23.2881 63.3479 23.1892 62.9606 23.0434 62.7951C22.8976 62.6295 22.7224 62.9364 22.5929 62.6548C22.0304 61.4303 21.7104 60.1279 21.2589 58.8637C21.192 58.6762 21.1591 58.865 21.0539 58.5911C20.6657 57.5815 19.9218 55.8663 19.7846 54.9151C19.6745 54.153 20.1263 54.994 19.9868 54.4325C19.9192 54.1617 19.5172 53.9925 19.4843 53.9334C19.159 53.3572 19.13 52.8825 18.8822 52.3469C18.831 52.2363 18.753 52.3931 18.7107 52.2985C18.5653 51.9757 18.488 51.608 18.3591 51.2957C18.301 51.1558 18.2192 51.2164 18.1771 51.0833C18.0754 50.7653 18.01 50.4748 17.9813 50.1382C17.9786 50.1075 18.1631 50.2515 18.0804 50.0191C17.9461 49.6429 17.8561 49.1472 17.6066 48.7502C17.5322 48.6326 17.3208 48.7065 17.3621 48.3778C17.3707 48.3089 17.6499 48.2875 17.3122 48.05C17.2558 48.0099 16.7604 47.5838 16.8502 47.2493C16.8738 47.161 17.0128 46.9062 16.9227 46.765C16.9097 46.7461 16.8285 46.8718 16.7697 46.7489C16.5641 46.3147 16.3992 45.8407 16.1905 45.3938C16.1346 45.2745 16.0871 45.5014 16.0075 45.3223C15.7882 44.8296 15.5809 44.1896 15.4317 43.6833C15.377 43.4965 15.5207 43.5857 15.5263 43.5685C15.6169 43.2917 15.3391 43.2529 15.2991 43.1874C15.0534 42.7791 15.0358 42.4043 14.8548 42.0108C14.8051 41.9021 14.725 42.0227 14.7069 42.0041C14.5243 41.8099 14.7863 41.9071 14.7532 41.7531C14.6608 41.3214 14.4804 40.8694 14.3107 40.4616C14.2482 40.3119 14.1851 40.5305 14.1305 40.3955C13.8048 39.5979 13.5013 38.7555 13.2752 37.9425C13.2329 37.7894 13.3661 37.8456 13.3769 37.8063C13.4535 37.5344 13.1222 37.3033 13.0748 37.2392C12.8588 36.9481 12.8979 36.7887 12.7731 36.5067C12.1622 35.1299 11.565 33.3707 11.1 32.0291C10.4934 30.2809 10.0807 28.9026 9.43446 27.2611C9.39351 27.1567 9.30284 27.3117 9.26587 27.2224C8.79444 26.0666 8.41232 24.8979 7.93378 23.7422C7.89474 23.6473 7.82314 23.8323 7.75632 23.6815C7.6184 23.3726 7.47426 22.9697 7.39336 22.6352C7.35367 22.4722 7.53863 22.6412 7.4965 22.4779C7.39866 22.0976 7.25992 21.7027 7.09868 21.3349C7.0298 21.1785 6.99402 21.4671 6.91435 21.2601C6.36903 19.851 5.82401 18.4706 5.44952 16.9801C5.42387 16.8779 5.6487 16.695 5.5209 16.5054C5.4436 16.5166 5.35995 16.5491 5.28107 16.571C4.46441 14.5282 3.78593 12.4574 3.02197 10.3882C2.98973 10.301 2.91012 10.5027 2.84701 10.3341C2.48158 9.35824 2.08702 8.42556 1.84664 7.37707C1.8226 7.27312 2.08149 7.23354 1.93533 6.95556C1.90934 6.90662 1.71184 6.47942 1.617 6.38546C1.60334 6.373 1.52162 6.4953 1.46503 6.35499C1.13809 5.53885 0.838837 4.66725 0.597809 3.82037C0.559124 3.68361 0.731479 3.77982 0.704959 3.68203C0.515932 2.98865 0.150914 2.29451 0.0180435 1.61396C-0.0704664 1.15826 0.195285 1.23918 0.312318 0.935204C0.328799 0.892236 0.233409 0.625345 0.346224 0.567174C0.629635 0.420176 1.00289 0.426212 1.29926 0.254348C1.36318 0.217547 1.156 -0.109958 1.39983 0.03829C1.41638 0.0488287 1.56803 0.285729 1.64777 0.328107C1.70301 0.357714 1.79301 0.232934 1.87638 0.304401C1.9597 0.375878 1.89641 0.512765 2.01075 0.640239C2.12579 0.767376 2.23755 0.650299 2.36605 0.942351ZM34.8498 81.5343C34.7995 81.2587 34.4158 81.4942 34.6636 81.6503C34.676 81.6576 34.8527 81.5483 34.8498 81.5343ZM52.9423 106.062C52.907 105.68 52.5391 105.67 52.5533 105.948C52.5677 106.226 52.9533 106.179 52.9423 106.062ZM55.0796 108.73C54.9776 108.327 54.4289 108.655 54.7765 108.911C54.7965 108.926 55.0856 108.753 55.0796 108.73ZM0.76772 1.96877C0.772069 1.96342 0.705674 1.77075 0.698431 1.76827C0.526848 1.71701 0.659704 2.10224 0.76772 1.96877ZM57.2117 111.369C57.2099 111.221 56.9251 111.001 56.9272 111.184C56.9289 111.332 57.2139 111.552 57.2117 111.369ZM27.4599 70.6577C27.463 70.6506 27.3814 70.5293 27.3527 70.554C27.2604 70.634 27.4084 70.7775 27.4599 70.6577ZM60.6258 116.007C60.1415 115.307 60.2599 114.58 60.7604 115.362C60.8511 115.504 60.4113 115.17 60.4995 115.37C60.6612 115.736 61.0808 115.75 61.1742 116.176C61.1909 116.254 60.6525 116.048 60.6243 116.006C60.6248 116.007 60.6253 116.007 60.6258 116.007ZM35.1984 81.0984C35.2002 81.0909 35.0851 80.9246 35.0775 80.9241C34.8979 80.9202 35.1297 81.2552 35.1984 81.0984ZM24.3115 62.7844C24.3194 62.7695 24.165 62.3263 24.1487 62.3161C23.8445 62.1692 24.1559 63.0655 24.3115 62.7844ZM43.52 91.8803C43.766 91.9733 43.9358 92.1761 43.8948 92.4243C43.7727 92.2419 43.6433 92.0632 43.52 91.8803Z" fill="white"/>
</svg>
