<svg width="136" height="81" viewBox="0 0 136 81" fill="none" xmlns="http://www.w3.org/2000/svg">
<path d="M16.8785 2.30915C16.2368 3.14842 15.3978 4.15324 14.7187 4.96509C14.5135 5.20947 14.5467 5.03232 14.4004 5.20224C14.109 5.54272 13.8989 5.89653 13.6203 6.22069C13.5263 6.32982 13.5284 6.11106 13.432 6.22763C12.8874 6.89209 12.4898 7.51978 11.9869 8.21738C9.57414 11.5694 7.49248 15.0848 5.75152 18.8747C5.17616 20.1248 4.45356 21.6398 4.04705 23.0026C3.99955 23.1615 4.136 23.1032 4.13454 23.1359C4.11087 23.6472 3.95106 23.4214 3.82341 23.7192C3.31924 24.901 2.93635 26.2806 2.72327 27.4917C2.63406 28.0077 2.95487 27.5388 2.72984 28.0287C2.71457 28.0629 2.62518 27.9099 2.58507 28.0482C2.49306 28.3622 2.40685 28.9716 2.35911 29.2198C2.26558 29.6974 2.25557 29.7774 2.1949 30.2322C2.11257 30.8521 1.98344 31.5923 1.97332 32.2656C1.9716 32.409 2.10164 32.2265 2.11043 32.4548C2.11781 32.683 2.09007 33.2832 2.06144 33.4867C2.03135 33.6897 1.93763 33.6028 1.91568 33.6388C1.72849 33.9378 1.99909 34.6357 2.01097 34.7225C2.18537 36.348 2.23719 37.7501 2.60341 39.2425C2.88245 40.3721 3.33104 41.526 3.77689 42.542C4.29993 43.7334 4.79846 44.7506 5.52683 45.8018C5.60484 45.9135 5.63098 45.7021 5.72648 45.8375C6.26969 46.6031 6.81693 47.291 7.43987 48.0087C7.96865 48.6177 8.52302 49.2251 9.10144 49.8378C9.22459 49.9681 8.9714 49.8992 9.08992 50.0351C9.83636 50.893 10.9639 52.1532 11.8265 52.137C12.3919 52.6122 13.1223 53.1819 13.5765 53.6373C13.8792 53.9374 13.4662 53.8125 13.925 54.0631C14.0287 54.1195 13.971 53.9352 14.1214 54.0269C14.7543 54.4125 15.4194 54.8973 16.0913 55.2484C16.2281 55.3196 16.2491 55.2072 16.2961 55.2142C16.6876 55.2778 17.0394 55.792 17.1434 55.8758C17.9079 56.4974 18.566 56.8116 19.3839 57.2669C19.5742 57.3724 19.4174 57.1236 19.603 57.2205C20.578 57.7306 21.5016 58.2225 22.4238 58.7497C22.627 58.8661 22.3804 58.8799 22.4749 58.9412C22.8939 59.2097 23.0931 59.0512 23.5019 59.3019C23.5884 59.3545 23.4924 59.4239 23.5041 59.4422C23.6874 59.7282 24.0242 59.6054 24.0938 59.6318C24.9551 59.9493 25.3702 60.4279 26.204 60.7534C26.3037 60.7919 26.136 60.5749 26.413 60.6902C28.2848 61.4677 30.1952 62.2729 32.0329 63.073C32.3186 63.197 32.0761 63.2119 32.0901 63.2302C32.323 63.5204 32.6067 63.3529 32.7055 63.379C33.4906 63.5942 34.0892 64.0344 34.7006 63.9269C37.8435 65.1412 41.0754 65.9708 44.2123 67.1464C44.252 67.1609 44.1449 67.2612 44.2243 67.2897C45.1817 67.6338 45.048 67.3925 45.76 67.3421C45.9391 67.3295 46.3617 67.7441 46.4007 67.7764C46.5414 67.8954 46.3252 68.0304 46.3752 68.0596C46.7918 68.2953 46.8799 67.679 47.4838 67.8403C47.5025 67.8463 47.3937 67.9351 47.4415 67.9596C47.5901 68.0359 47.7583 68.0338 47.903 68.1126C48.2347 68.2938 48.283 68.6174 48.8617 68.587C48.9352 68.5825 48.9195 68.2166 49.4507 68.3703C49.6621 68.4323 50.6114 68.6666 50.8728 68.7547C51.1335 68.8432 50.9235 68.9072 50.9412 68.9167C51.6235 69.2402 51.3364 69.2326 51.6445 69.5364C51.9535 69.8391 51.9782 69.3038 52.1393 69.2827C52.3005 69.2619 52.8009 69.5097 52.9214 69.5826C53.0417 69.6555 52.8624 69.6864 52.9726 69.7378C53.7049 70.0757 53.371 69.5645 53.643 69.5435C54.2791 69.4911 54.6513 69.9782 55.1869 70.1408C55.3317 70.1847 55.2316 70.0705 55.3644 70.0926C55.8905 70.1806 56.1765 70.3703 56.7934 70.3942C56.8944 70.3982 57.4241 70.276 57.6976 70.5123C57.7363 70.5462 57.5903 70.6136 57.8082 70.6838C58.1333 70.7888 58.7296 70.94 59.0936 70.9847C59.3616 71.0176 59.0937 70.7965 59.4143 70.9159C59.5568 70.969 59.2644 71.0024 59.5339 71.0946C59.8019 71.1865 60.5072 71.3308 60.7762 71.3833C61.0447 71.4358 60.9228 71.2864 60.9461 71.2829C61.0866 71.2643 61.6124 71.313 61.6578 71.3223C63.9523 71.7777 66.0361 72.3885 68.2895 72.7325C68.4663 72.7596 68.3722 72.6122 68.3994 72.615C69.0108 72.6719 68.4752 72.9205 68.8756 73.109C68.8612 72.8423 69.1011 72.9338 69.5301 72.9817C69.7369 73.0046 69.6434 72.8856 69.6638 72.8788C69.9932 72.7824 70.1706 73.0143 70.2182 73.0637C70.3939 73.2457 70.6438 73.1115 70.7637 73.2333C70.8838 73.3544 70.5429 73.4431 70.9519 73.5128C71.0825 73.4412 70.8212 73.1487 71.1379 73.164C72.3331 73.223 74.4798 73.7758 75.4128 73.9457C76.3524 74.1179 76.6601 74.1488 77.2034 74.2686C78.1847 74.484 77.8495 74.2488 78.476 74.2623C79.1037 74.2753 78.7374 74.6679 78.8114 74.7758C78.8839 74.8834 78.9935 74.8008 79.0936 74.8691C79.1934 74.9373 78.9506 74.966 79.2008 75.024C79.4514 75.0821 80.1681 75.0183 80.2721 74.9329C80.4925 74.752 80.2146 74.4866 80.8702 74.6627C80.9078 74.6729 80.7663 74.7699 80.9114 74.8033C82.0836 75.0676 83.3088 75.2488 84.4694 75.4905C84.6289 75.5239 84.467 75.6325 84.5597 75.6534C85.5241 75.8707 85.2052 75.6054 85.7712 75.4374C85.6106 75.742 85.8668 75.9773 86.6212 76.0805C87.073 76.1423 87.0138 75.9917 87.3186 75.9317C87.41 75.9136 87.7159 76.0518 87.7822 75.9935C88.0004 75.8029 87.7333 75.5229 88.4901 75.7193C88.5232 75.7282 88.4004 75.8322 88.5161 75.8545C89.2628 75.9987 89.3818 75.7849 90.1937 75.86C90.8279 75.9185 91.9362 76.1954 92.6733 76.3068C92.6144 76.6663 93.3161 76.6668 93.6244 76.4506C94.0961 76.517 94.6062 76.5625 95.0552 76.6494C95.2097 76.6792 95.0952 76.772 95.1136 76.7856C95.3946 76.9978 95.6255 76.7785 95.7273 76.7806C96.8115 76.8109 97.734 77.0995 98.8042 77.0335C98.8424 77.0311 98.9304 76.7864 99.1924 77.0002C99.2092 77.0148 98.849 77.0918 99.3436 77.1538C99.8383 77.2159 100.752 77.4483 101.439 77.4011C101.597 77.3891 102.059 77.2302 102.384 77.4241C102.428 77.4504 102.37 77.5174 102.433 77.5642C102.633 77.7137 102.775 77.4712 103.003 77.7121C103.231 77.9529 103.735 78.1664 104.442 78.0846C104.464 78.0824 104.648 77.8968 104.864 77.9208C105.21 77.9594 105.694 78.0478 106.05 78.0799C106.221 78.0953 106.124 77.9598 106.153 77.9603C107.347 78.0012 108.196 78.1909 109.435 78.3486C109.663 78.3779 110.33 78.2636 110.751 78.4354C111.234 78.6252 110.674 79.1979 111.838 79.1475C112.305 79.1273 112.951 78.3949 113.726 78.8636C115.238 78.8832 116.827 79.2112 118.361 79.1762C118.431 79.1748 118.665 78.9723 118.826 78.9866C119.059 79.0078 119.215 79.121 119.395 79.1402C120.168 79.2244 120.862 79.1833 121.567 79.2428C121.833 79.265 121.734 79.3644 122.049 79.3906C122.362 79.4165 122.574 79.2906 123.04 79.3869C123.384 79.4596 123.71 79.7644 124.153 79.8242C124.186 79.5452 124.494 79.5697 125.022 79.5264C125.124 79.5179 125.022 79.4142 125.07 79.4052C125.266 79.3662 125.438 79.4571 125.621 79.4127C125.665 79.4021 125.673 79.3066 125.709 79.2925C126.046 79.1705 126.598 79.4168 126.685 79.4591C127.035 79.6209 127.204 79.5053 127.466 79.5754C127.726 79.6454 127.33 79.6946 127.634 79.7448C127.953 79.7969 128.283 79.8278 128.654 79.8521C129.057 79.878 129.444 79.8943 129.773 79.9123C130.035 79.926 129.863 79.7898 129.9 79.7888C130.457 79.7829 130.88 79.9383 131.272 79.7009C131.641 80.376 131.647 79.6539 132.386 79.8167C132.442 79.8297 132.503 80.1438 132.28 80.1803C132.056 80.2166 131.705 80.1043 131.351 80.16C131.268 80.1732 130.768 80.4426 130.735 80.4587C130.292 80.5767 130.242 80.1084 130.221 80.0818C129.964 79.7938 129.402 80.0812 129.25 80.0954C128.526 80.1593 128.05 80.0691 127.506 80.1113C127.153 80.1385 127.1 80.4408 126.817 80.4161C125.854 80.3323 125.555 79.8893 124.692 80.208C124.502 80.2755 124.671 80.6194 124.015 80.3178C123.974 80.2988 123.485 80.0292 123.176 80.1618C123.137 80.1786 123.132 80.2755 123.082 80.2806C122.75 80.3129 122.51 80.2203 122.187 80.2368C121.851 80.2525 121.44 80.2813 121.048 80.2224C120.812 80.1871 120.515 79.9861 120.402 79.9341C120.084 79.7849 119.714 79.9693 119.517 79.8009C119.318 79.6316 119.744 79.4248 119.201 79.2866C119.163 79.5368 119.098 79.7917 119.047 80.0424C117.911 79.9543 116.8 79.7918 115.597 79.7115C115.448 79.7018 115.59 79.8486 115.43 79.8416C114.732 79.8098 114.232 79.6739 113.548 79.6579C113.027 79.6467 112.439 79.743 111.878 79.7328C111.568 79.4176 110.7 79.443 110.144 79.3685C109.942 79.3419 109.962 79.2663 109.82 79.2287C109.281 79.0885 109.515 79.3648 109.361 79.3916C108.698 79.5053 108.694 78.9256 107.919 78.8702C107.878 78.8671 107.346 79.1277 107.274 79.1403C106.819 79.224 107.211 79.027 106.935 78.9788C106.427 78.8902 106.087 78.7846 105.507 78.8203C105.337 78.831 104.916 78.9834 104.601 78.804C104.56 78.7805 104.593 78.6816 104.559 78.6723C103.938 78.5123 103.889 78.8284 103.515 78.9004C103.141 78.9723 102.596 78.6961 102.487 78.6211C102.201 78.427 102.725 78.5745 102.743 78.56C102.954 78.388 102.538 78.3797 102.223 78.3315C102.209 78.0152 101.762 77.9887 101.895 78.2826C101.91 78.3148 102.161 78.3108 102.223 78.3315C101.914 78.6092 101.415 78.598 100.931 78.2589C100.701 78.0996 100.949 77.9679 100.199 77.947C99.8577 77.9371 99.966 78.1655 99.6601 78.1922C98.961 78.253 98.0843 77.9556 97.3617 77.9073C97.0995 77.8898 97.3407 78.0354 97.1609 78.0274C96.6797 78.0061 96.2814 77.8721 95.8142 77.8646C95.7718 77.864 95.8604 77.9985 95.716 77.9837C94.6205 77.8729 93.668 77.6816 92.5046 77.5389C91.9392 77.4698 90.9313 77.4144 90.3647 77.3293C89.3755 77.1822 88.1677 76.8449 87.3021 76.7742C86.7375 76.7275 86.844 76.8662 86.592 76.9176C86.0983 77.0164 85.3376 76.6176 85.2329 76.5574C85.2299 76.5555 85.7092 76.5915 85.4641 76.494C85.3346 76.3428 85.2384 76.5575 85.2329 76.5574C85.1657 76.5189 84.2176 76.3595 84.0244 76.356C83.9196 76.3544 83.961 76.4784 83.9067 76.4754C82.6189 76.4008 81.3105 76.2415 80.0322 75.9949C80.0099 75.9891 80.0634 75.8647 80.0107 75.8528C79.2732 75.6833 78.7702 75.7687 78.1374 75.7674C77.5048 75.766 77.0179 75.6571 76.6863 75.3769C76.2148 75.331 75.557 75.1247 75.1824 75.0026C74.8093 74.8808 74.7146 75.1236 74.68 75.1231C73.6016 75.1096 73.0159 74.8637 71.9255 74.6541C71.4071 74.5542 70.3678 74.4105 69.7985 74.3373C69.3502 74.2804 69.0937 74.1736 68.6778 74.1372C68.6215 74.1322 68.6572 74.2541 68.6395 74.2553C68.1585 74.3061 68.4276 74.0728 68.3423 74.0069C68.0329 73.7671 67.8395 73.6343 67.2398 73.6094C67.1016 73.6035 66.6355 73.9232 66.3851 73.8998C66.0598 73.8687 66.2071 73.7507 65.8659 73.7214C65.8368 73.7187 65.8262 73.8067 65.6203 73.7635C64.6645 73.5642 63.6292 73.3095 62.6325 73.1184C62.4964 73.092 62.6431 73.2645 62.4459 73.2284C61.5209 73.0593 60.5129 72.8461 59.6319 72.5926C59.4152 72.5298 59.5735 72.4629 59.5318 72.4243C59.2752 72.1897 58.8065 72.3514 58.7368 72.3413C57.0664 72.1076 55.8626 71.6012 54.1784 71.3228C54.0861 71.3082 53.3305 71.4131 53.0718 71.1091C53.0539 71.0888 52.8007 70.7807 52.4894 70.8753C52.47 70.8812 52.6334 71.0483 52.3006 70.9551C51.9678 70.8619 51.4084 70.811 50.9817 70.5649C50.8464 70.4872 50.5613 70.1689 50.0826 70.2461C50.0513 70.2523 49.2773 70.5035 49.1139 70.1527C49.0876 70.095 49.2062 69.7992 48.6527 69.8239C48.5468 69.829 48.707 69.9435 48.4377 69.9192C48.0273 69.8829 47.5181 69.6617 46.99 69.6667C46.8979 69.668 46.4772 69.7778 46.2278 69.5414C46.1887 69.5044 46.3031 69.4259 46.1522 69.3728C45.4351 69.1196 44.6535 68.9763 43.9382 68.6975C43.685 68.5989 43.8646 68.4725 43.6065 68.3512C43.3469 68.2296 42.8222 68.0322 42.5103 68.0222C42.2009 68.0129 42.4383 68.3663 42.0014 68.2605C40.0928 67.7962 38.3536 67.0868 36.5028 66.448C36.2297 66.3534 36.426 66.5217 36.0218 66.3884C34.5271 65.9006 31.9918 65.0901 30.7759 64.3994C29.8201 63.856 31.141 64.2273 30.3917 63.8673C30.0312 63.6939 29.5158 63.8313 29.4227 63.8052C28.5109 63.5536 27.9795 63.1859 27.1576 62.8888C26.9902 62.8283 27.1014 63.0141 26.9594 62.9611C26.474 62.7811 26.0003 62.5153 25.5491 62.3291C25.3467 62.2457 25.3441 62.3516 25.1631 62.2634C24.73 62.0532 24.361 61.8416 23.9781 61.5649C23.9434 61.5398 24.2525 61.5476 23.9354 61.397C23.4366 61.16 22.7915 60.756 22.1541 60.5493C21.9634 60.4875 21.8567 60.6853 21.5433 60.3577C21.4778 60.2889 21.6987 60.0996 21.1537 60.0862C21.0622 60.0843 20.1809 59.9879 19.9186 59.6213C19.8489 59.5249 19.7127 59.2047 19.4918 59.126C19.4613 59.116 19.5162 59.2816 19.3407 59.2012C18.6976 58.9018 18.0543 58.5314 17.4148 58.2077C17.2438 58.1212 17.4289 58.3714 17.1759 58.2387C16.4745 57.8707 15.6842 57.3574 15.0422 56.9053C14.8052 56.738 15.0297 56.7581 15.0178 56.7373C14.8304 56.4025 14.5315 56.5019 14.4297 56.453C13.8007 56.1466 13.4314 55.7578 12.8999 55.4251C12.7536 55.3327 12.7867 55.4991 12.7525 55.488C12.4013 55.3663 12.7401 55.3469 12.5696 55.1979C12.1003 54.7849 11.5147 54.365 10.9825 53.9723C10.7884 53.8291 10.9192 54.103 10.7459 53.9727C9.70812 53.1931 8.76861 52.3794 7.87173 51.4335C7.70888 51.2601 7.88968 51.2865 7.87023 51.2352C7.73905 50.8812 7.2295 50.6997 7.13364 50.6338C6.69917 50.3382 6.62743 50.1293 6.307 49.8132C6.17089 49.6784 6.03449 49.5392 5.89849 49.3962C4.38492 47.8231 3.03481 45.6942 2.22988 43.8861C1.08369 41.3151 0.630363 39.1611 0.300237 36.5418C0.280906 36.3746 0.160007 36.5583 0.141837 36.4137C-0.0828919 34.5405 -0.00758159 32.6918 0.137174 30.8306C0.149564 30.6782 -0.00458884 30.8844 0.0114789 30.6386C0.043661 30.1342 0.134518 29.4991 0.256011 29.0014C0.315011 28.7588 0.374735 29.1058 0.432063 28.862C0.566239 28.2968 0.689368 27.6917 0.792634 27.1063C0.836663 26.8571 0.623858 27.2021 0.692071 26.8797C1.15839 24.6891 1.79366 22.5746 2.75589 20.5488C2.82234 20.4093 3.12659 20.383 3.19692 20.062C3.13503 20.0111 3.05115 19.9792 2.97932 19.9392C4.13042 16.9268 5.65073 14.1229 7.27059 11.3719C7.34036 11.2537 7.09479 11.3851 7.22941 11.1558C8.00543 9.83758 8.73818 8.59034 9.7258 7.36398C9.82195 7.24529 9.99254 7.44995 10.2071 7.06103C10.2378 7.00141 10.605 6.40061 10.6576 6.22767C10.6643 6.20325 10.4952 6.23757 10.6171 6.05499C11.3137 5.01439 12.1441 3.91549 12.9589 2.96535C13.097 2.8037 13.0617 3.06036 13.1605 2.94655C13.8255 2.18488 14.4772 1.20747 15.1918 0.529293C15.6788 0.0676916 15.6713 0.420184 16.0838 0.268899C16.1121 0.259302 16.1937 0.177546 16.2706 0.12028C16.3505 0.0594523 16.4727 -0.0307582 16.5205 0.010414C16.7964 0.176466 16.9211 0.561562 17.233 0.718099C17.3154 0.732865 17.5486 0.352804 17.5058 0.665467C17.4837 0.699367 17.4693 0.741843 17.4037 0.852833C17.3283 0.975166 17.2906 1.06445 17.2829 1.11907C17.2738 1.193 17.4447 1.19074 17.401 1.32279C17.3593 1.45259 17.1521 1.53046 17.0774 1.71613C16.9869 1.92235 17.1603 1.94061 16.8785 2.30915ZM73.5011 74.4522C73.1663 74.2719 73.0395 74.7055 73.4416 74.6641C73.4611 74.6615 73.5184 74.4612 73.5011 74.4522ZM116.814 79.4522C116.357 79.22 116.006 79.4853 116.332 79.663C116.656 79.8403 116.953 79.5226 116.814 79.4522ZM121.686 79.6452C121.159 79.4546 121.032 80.0838 121.617 79.993C121.651 79.988 121.717 79.6563 121.686 79.6452ZM15.0915 1.56083C15.1006 1.55885 15.2907 1.33418 15.2892 1.3269C15.2776 1.11538 14.8978 1.56399 15.0915 1.56083ZM126.538 79.7789C126.367 79.6833 125.838 79.7531 126.058 79.8726C126.236 79.969 126.753 79.898 126.538 79.7789ZM55.1525 70.3576C55.1484 70.3498 54.9468 70.2972 54.9424 70.3349C54.9288 70.4567 55.2192 70.4883 55.1525 70.3576ZM134.786 80.1457C133.498 80.0785 132.916 79.5283 134.131 79.6329C134.34 79.6512 133.666 79.7838 133.937 79.841C134.069 79.8674 134.15 79.8658 134.289 79.8547C134.447 79.8441 134.582 79.8211 134.703 79.8002C134.824 79.7794 134.93 79.7608 135.024 79.759C135.048 79.7585 135.071 79.7591 135.093 79.761C135.109 79.7627 135.201 79.768 135.241 79.7732C135.336 79.784 135.392 79.7997 135.397 79.8219C135.384 79.8377 135.46 79.9264 135.135 79.9987C134.972 80.0757 134.828 80.1487 134.784 80.1464C134.785 80.1461 134.786 80.1459 134.786 80.1457ZM73.3858 73.8865C73.3797 73.8795 73.096 73.826 73.0882 73.8307C72.9103 73.9452 73.482 74.0529 73.3858 73.8865ZM43.4418 67.0532C43.4309 67.0372 42.7939 66.8397 42.767 66.8436C42.3661 66.9696 43.6597 67.3715 43.4418 67.0532ZM92.6836 76.3178C93.0163 76.2137 93.3941 76.2419 93.623 76.4503C93.3123 76.4038 92.9978 76.3647 92.6836 76.3178Z" fill="white"/>
</svg>
