<svg width="291" height="76" viewBox="0 0 291 76" fill="none" xmlns="http://www.w3.org/2000/svg">
<path d="M2.10512 72.5728C3.53535 71.5801 5.44931 70.3723 6.90868 69.4881C7.36602 69.2108 7.18286 69.4253 7.50026 69.2372C8.12078 68.8694 8.66067 68.4715 9.27475 68.1168C9.47842 67.9996 9.30202 68.2643 9.51397 68.139C10.7092 67.4299 11.7913 66.6928 12.9773 65.9624C18.7672 62.3988 24.5117 58.8512 30.4362 55.3208C32.4114 54.1428 34.842 52.8177 36.8175 51.5902C37.0481 51.4467 36.8525 51.4341 36.8923 51.3999C37.5197 50.8667 37.3953 51.1996 37.8783 50.949C39.7932 49.9553 41.8478 48.7704 43.591 47.7185C44.3323 47.2711 43.4706 47.5128 44.2873 47.1862C44.3439 47.1633 44.2121 47.3742 44.4239 47.2672C44.9042 47.024 45.7766 46.502 46.1411 46.3056C46.839 45.9303 46.9726 45.8532 47.6422 45.4763C48.5632 44.9593 49.6822 44.3985 50.65 43.8295C50.8564 43.7078 50.5207 43.7568 50.8446 43.5532C51.169 43.3492 52.0567 42.8694 52.3674 42.7307C52.6783 42.5917 52.5974 42.7443 52.6605 42.7343C53.1814 42.6558 54.0763 41.8764 54.2039 41.7998C56.5374 40.4034 58.7329 39.3899 60.9931 38.1988C62.7137 37.2919 64.5312 36.296 66.2127 35.4455C68.2017 34.4404 69.9062 33.6591 71.8149 32.7062C72.0164 32.6058 71.7172 32.5953 71.9632 32.4726C74.6124 31.1516 77.2827 29.891 79.9613 28.7513C80.2303 28.637 79.9413 28.9083 80.213 28.8009C81.8771 28.1379 84.6033 27.1732 85.3537 26.249C86.4766 25.7711 87.8358 25.1981 88.8723 24.8681C89.5426 24.6546 88.9654 25.0513 89.742 24.6535C89.9174 24.564 89.6358 24.556 89.9025 24.4302C91.0252 23.9004 92.2835 23.4097 93.3845 22.8846C93.6083 22.7776 93.5051 22.7056 93.5626 22.6609C94.0483 22.2907 95.0525 22.1543 95.2567 22.091C96.812 21.6042 97.8863 21.1137 99.3123 20.5538C99.6419 20.4247 99.2003 20.4455 99.5156 20.3166C101.152 19.6501 102.858 19.008 104.486 18.4655C104.848 18.3452 104.562 18.582 104.737 18.5304C105.511 18.3016 105.59 18.0276 106.341 17.8037C106.498 17.7566 106.447 17.8862 106.48 17.8866C106.981 17.8934 107.275 17.5158 107.387 17.4694C108.791 16.8777 109.794 16.8021 111.161 16.2838C111.325 16.2216 110.909 16.2273 111.372 16.0603C114.436 14.9531 117.779 13.8888 120.897 13.0302C121.383 12.8963 121.069 13.0973 121.103 13.0996C121.652 13.1285 121.895 12.787 122.05 12.7296C123.271 12.2828 124.499 12.14 125.26 11.5998C130.563 10.1518 135.827 8.59352 141.201 7.62931C141.269 7.61674 141.176 7.76719 141.312 7.74164C142.951 7.43778 142.596 7.31987 143.62 6.84608C143.879 6.7269 144.766 6.8278 144.843 6.83291C145.126 6.85126 144.89 7.0939 144.982 7.0893C145.744 7.0459 145.493 6.46653 146.49 6.25513C146.522 6.24955 146.414 6.38855 146.5 6.38197C146.767 6.36191 147.016 6.26365 147.278 6.24908C147.878 6.21728 148.145 6.4685 148.998 6.11752C149.106 6.07282 148.865 5.76261 149.759 5.60133C150.116 5.53641 151.689 5.22455 152.136 5.16435C152.581 5.10316 152.299 5.27156 152.332 5.2704C153.548 5.19392 153.109 5.33978 153.745 5.44713C154.38 5.55474 154.121 5.06798 154.353 4.96595C154.587 4.86378 155.483 4.82881 155.705 4.8335C155.926 4.83808 155.672 4.95576 155.866 4.94621C157.154 4.88217 156.375 4.59253 156.777 4.43816C157.725 4.07452 158.555 4.33118 159.461 4.22238C159.706 4.19301 159.493 4.13759 159.709 4.09426C160.564 3.92435 161.101 3.96263 162.065 3.70175C162.222 3.65904 162.982 3.3067 163.522 3.40108C163.599 3.41488 163.406 3.54148 163.778 3.50876C164.335 3.45948 165.318 3.34008 165.904 3.22609C166.335 3.14192 165.815 3.05234 166.369 3.02596C166.616 3.01452 166.177 3.16921 166.639 3.1401C167.098 3.11089 168.262 2.95183 168.706 2.89174C169.149 2.83123 168.891 2.74212 168.926 2.72937C169.136 2.65464 169.981 2.48893 170.057 2.47995C173.88 1.98995 177.355 1.83065 181.088 1.4342C181.38 1.4035 181.174 1.29295 181.218 1.28695C182.211 1.14746 181.455 1.55413 182.156 1.60888C182.035 1.35844 182.446 1.37031 183.143 1.28526C183.478 1.24418 183.287 1.15869 183.317 1.14594C183.804 0.953424 184.169 1.12335 184.261 1.15666C184.604 1.27911 184.952 1.07683 185.185 1.15906C185.418 1.24062 184.91 1.42468 185.582 1.37321C185.764 1.26662 185.246 1.06069 185.755 0.984062C187.672 0.690045 191.316 0.661754 192.851 0.608429C194.397 0.550717 194.898 0.512836 195.805 0.507609C197.444 0.501453 196.837 0.345854 197.854 0.225291C198.876 0.106551 198.393 0.567906 198.543 0.658047C198.691 0.748429 198.846 0.645015 199.027 0.69152C199.208 0.738065 198.822 0.815505 199.245 0.821508C199.665 0.827136 200.79 0.624745 200.936 0.521375C201.243 0.301879 200.723 0.0930205 201.828 0.142814C201.892 0.145871 201.689 0.267614 201.932 0.273415C203.864 0.315805 205.882 0.288411 207.835 0.351642C208.104 0.360546 207.865 0.49232 208.021 0.498999C209.642 0.570922 209.053 0.356379 209.933 0.109715C209.738 0.434245 210.222 0.62905 211.44 0.631882C212.172 0.634252 212.047 0.492877 212.522 0.394865C212.665 0.365288 213.184 0.464896 213.279 0.399065C213.592 0.183943 213.102 -0.0635276 214.367 0.0431954C214.422 0.0482735 214.244 0.165684 214.436 0.174536C215.678 0.233473 215.829 0.00774059 217.18 0.000144005C218.254 -0.00560662 220.072 0.169664 221.268 0.223394C221.234 0.586197 222.359 0.532392 222.824 0.295395C223.599 0.328091 224.439 0.340653 225.191 0.401325C225.449 0.422114 225.275 0.521491 225.308 0.533997C225.803 0.729866 226.151 0.498545 226.32 0.495216C228.175 0.471417 229.582 0.717253 231.323 0.619443C231.385 0.615917 231.496 0.368072 231.948 0.575095C231.977 0.589297 231.402 0.675919 232.213 0.725021C233.025 0.774029 234.553 0.990483 235.698 0.939275C235.975 0.926798 236.684 0.762556 237.236 0.956582C237.309 0.982831 237.223 1.05022 237.329 1.09702C237.669 1.24646 237.864 1.00252 238.252 1.24414C238.639 1.48577 239.46 1.70015 240.6 1.62666C240.636 1.62474 240.918 1.44067 241.274 1.46826C241.842 1.51235 242.648 1.61132 243.245 1.65325C243.531 1.67324 243.357 1.53461 243.407 1.53591C245.324 1.60509 246.74 1.82706 248.753 2.04121C249.124 2.08081 250.209 1.99972 250.923 2.19763C251.706 2.41491 250.832 2.95672 252.678 2.97296C253.423 2.98072 254.435 2.28604 255.739 2.81692C258.389 2.9674 260.666 3.40633 263.279 3.54065C263.396 3.54673 263.787 3.36884 264.06 3.40142C264.466 3.45018 264.679 3.57612 264.969 3.61461C266.186 3.77869 267.316 3.8176 268.502 3.96715C268.948 4.02341 268.776 4.10989 269.299 4.17632C269.821 4.24264 270.186 4.14509 270.888 4.29561C271.419 4.40989 271.922 4.75605 272.633 4.87519C272.694 4.60018 273.184 4.66476 274.07 4.69869C274.24 4.7051 274.071 4.58607 274.153 4.58411C274.483 4.574 274.774 4.69138 275.09 4.67532C275.166 4.67159 275.182 4.577 275.245 4.5686C275.785 4.49338 276.622 4.81567 276.766 4.87172C277.317 5.08491 277.6 4.99534 278.03 5.10692C278.461 5.21853 277.798 5.20432 278.304 5.30353C279.368 5.51083 280.689 5.66765 281.741 5.81188C282.161 5.86881 281.891 5.70406 281.952 5.70926C282.825 5.79254 283.689 6.04634 284.207 5.85987C284.725 6.59472 284.742 5.86761 285.978 6.17074C286.076 6.19495 286.159 6.52062 285.773 6.51364C285.388 6.50662 284.827 6.33152 284.293 6.33092C284.167 6.3305 283.418 6.52354 283.319 6.52813C282.543 6.56306 282.498 6.08801 282.462 6.05726C282.044 5.72314 281.14 5.92049 280.911 5.91232C279.868 5.8754 278.975 5.69367 278.076 5.65008C277.489 5.62133 277.394 5.91651 276.94 5.8496C275.434 5.62841 274.961 5.1414 273.503 5.33447C273.192 5.37581 273.451 5.74236 272.401 5.35175C272.335 5.32709 271.561 4.99293 271.081 5.08879C271.021 5.10089 271.011 5.1975 270.934 5.19654C270.415 5.1883 270.082 5.0714 269.522 5.0434C268.963 5.01568 268.284 4.99306 267.631 4.88585C267.241 4.82164 266.758 4.58541 266.575 4.52044C266.06 4.33435 265.471 4.47965 265.161 4.29027C264.848 4.09986 265.518 3.93596 264.665 3.74182C264.606 3.98904 264.504 4.23836 264.426 4.48491C262.537 4.27067 260.7 3.99688 258.831 3.82128C258.599 3.79979 258.822 3.95831 258.573 3.93881C257.537 3.85743 256.579 3.66721 255.473 3.60146C254.612 3.5506 253.661 3.6071 252.768 3.5632C252.249 3.22661 250.921 3.20789 249.971 3.10117C249.638 3.06381 249.666 2.98893 249.431 2.94395C248.545 2.77661 248.943 3.06583 248.694 3.08549C247.631 3.17014 247.592 2.58749 246.32 2.50178C246.253 2.49692 245.41 2.74038 245.297 2.75109C244.572 2.82136 245.186 2.63523 244.741 2.57877C243.928 2.47612 243.367 2.36119 242.408 2.38348C242.128 2.39037 241.45 2.53516 240.923 2.35081C240.854 2.32664 240.9 2.22782 240.843 2.21803C239.821 2.04971 239.774 2.3674 239.181 2.43734C238.589 2.50732 237.701 2.23131 237.522 2.15681C237.049 1.9632 237.895 2.10916 237.921 2.09476C238.235 1.92185 237.589 1.91464 237.068 1.86713C237.012 1.54974 236.291 1.52587 236.535 1.81977C236.563 1.8519 236.965 1.84656 237.068 1.86713C236.597 2.14673 235.805 2.1393 234.952 1.80399C234.553 1.64718 234.945 1.51064 233.708 1.50161C233.147 1.49791 233.352 1.72469 232.856 1.75792C231.724 1.83374 230.278 1.56354 229.128 1.54569C228.71 1.5392 229.111 1.67467 228.826 1.67437C228.07 1.67419 227.409 1.5588 226.628 1.57462C226.557 1.57624 226.724 1.70621 226.483 1.69873C224.66 1.64511 223.085 1.51583 221.205 1.46566C220.295 1.44093 218.685 1.47489 217.742 1.44591C216.087 1.39404 214.067 1.19431 212.671 1.23281C211.76 1.25737 211.96 1.3821 211.57 1.46554C210.819 1.6271 209.495 1.33852 209.317 1.29447C209.311 1.29283 210.09 1.26096 209.674 1.19892C209.432 1.06754 209.326 1.29387 209.317 1.29447C209.206 1.26492 207.631 1.24739 207.316 1.27504C207.145 1.28965 207.242 1.40584 207.153 1.41126C205.044 1.53772 202.947 1.60677 200.836 1.61036C200.799 1.60902 200.851 1.47648 200.764 1.47499C199.546 1.451 198.754 1.63767 197.738 1.7697C196.722 1.90207 195.917 1.90395 195.306 1.7054C194.542 1.76674 193.443 1.71978 192.811 1.69198C192.179 1.66403 192.105 1.92388 192.05 1.93176C190.347 2.18564 189.319 2.10074 187.52 2.1979C186.663 2.2433 184.974 2.40299 184.057 2.50392C183.332 2.58347 182.89 2.55958 182.226 2.65374C182.136 2.66644 182.237 2.77191 182.209 2.7786C181.477 2.97718 181.811 2.67029 181.653 2.634C181.074 2.50314 180.715 2.43764 179.759 2.61062C179.538 2.65035 178.929 3.10894 178.528 3.17131C178.006 3.25172 178.19 3.08971 177.644 3.17853C177.598 3.18605 177.616 3.2729 177.277 3.30301C175.703 3.44428 174.001 3.57735 172.37 3.77779C172.146 3.80494 172.449 3.91044 172.127 3.95206C170.614 4.14729 168.961 4.35118 167.488 4.48331C167.125 4.51543 167.338 4.3877 167.256 4.36937C166.751 4.25936 166.106 4.6077 165.994 4.62831C163.344 5.12507 161.236 5.21225 158.537 5.77239C158.389 5.80306 157.297 6.26613 156.75 6.12259C156.712 6.11316 156.17 5.96267 155.753 6.20397C155.727 6.21907 156.063 6.28549 155.513 6.37032C154.963 6.45528 154.098 6.69626 153.322 6.7023C153.076 6.70433 152.469 6.57304 151.797 6.89733C151.753 6.91898 150.744 7.55592 150.297 7.34012C150.225 7.30453 150.229 6.98005 149.417 7.30817C149.262 7.37143 149.568 7.38168 149.153 7.51044C148.517 7.70824 147.641 7.80193 146.87 8.10859C146.736 8.16233 146.189 8.49778 145.68 8.44086C145.601 8.43194 145.72 8.29814 145.466 8.34076C144.262 8.5432 143.031 8.89042 141.808 9.09734C141.375 9.17104 141.555 8.95398 141.099 9.01304C140.643 9.07198 139.735 9.24147 139.287 9.42955C138.84 9.61751 139.412 9.75943 138.721 9.94901C135.72 10.7744 132.686 11.3999 129.685 12.2104C129.24 12.3309 129.634 12.3217 128.981 12.5068C126.572 13.183 122.437 14.518 120.314 14.9785C118.603 15.3468 120.655 14.5632 119.365 14.9023C118.742 15.0669 118.176 15.5827 118.031 15.6401C116.62 16.2049 115.567 16.4076 114.289 16.8858C114.026 16.9845 114.328 17.0175 114.104 17.1001C113.339 17.3836 112.508 17.6093 111.774 17.877C111.444 17.9974 111.538 18.0686 111.23 18.1683C110.496 18.4086 109.837 18.599 109.095 18.7682C109.027 18.7837 109.424 18.5117 108.882 18.7017C108.008 19.0089 106.881 19.3241 105.921 19.7808C105.636 19.917 105.703 20.1305 105.015 20.2232C104.871 20.243 104.946 19.9269 104.289 20.4231C104.178 20.5057 103.05 21.2698 102.368 21.317C102.189 21.3293 101.699 21.2828 101.356 21.4534C101.31 21.4773 101.546 21.5142 101.256 21.6398C100.234 22.0801 99.1374 22.5004 98.0906 22.9617C97.8138 23.0841 98.2781 23.0314 97.8642 23.2102C96.7263 23.7021 95.2772 24.262 94.1346 24.6965C93.7133 24.8565 93.9609 24.6415 93.9264 24.6437C93.3693 24.6786 93.1764 25.027 93.0205 25.1082C92.049 25.6106 91.2378 25.8307 90.3214 26.2586C90.0684 26.3765 90.2966 26.4061 90.2497 26.4377C89.7657 26.7581 90.0725 26.3958 89.7336 26.5171C88.7857 26.8556 87.7604 27.3151 86.8318 27.7434C86.4907 27.901 86.9318 27.8542 86.6252 27.9942C84.8159 28.8235 82.8905 29.6843 81.0974 30.4336C80.761 30.5738 80.9247 30.3823 80.8457 30.3925C80.3002 30.4609 79.7 30.9941 79.549 31.0891C78.8622 31.5214 78.5393 31.5715 77.9017 31.8931C74.7684 33.4728 70.8953 35.3129 67.9342 36.7767C64.0249 38.7105 61.1205 40.1245 57.4769 42.1163C57.2462 42.2425 57.5458 42.2393 57.3478 42.3497C54.7966 43.7663 52.323 45.0677 49.7839 46.5395C49.5761 46.6597 49.9425 46.6055 49.6113 46.8024C48.9346 47.2058 48.0463 47.6997 47.3406 48.0524C46.9984 48.2236 47.3879 47.8715 47.0445 48.046C46.2445 48.4521 45.4027 48.9229 44.6091 49.4039C44.2716 49.6089 44.8554 49.4289 44.4113 49.6864C41.3916 51.4412 38.3726 53.243 35.2809 54.8893C35.0666 55.0035 34.7428 54.877 34.3266 55.1883C34.3325 55.2738 34.3805 55.3496 34.4079 55.4282C30.0013 58.1266 25.7246 60.6489 21.3163 63.4036C21.1307 63.5196 21.5285 63.4415 21.1696 63.6668C19.1023 64.9657 17.1896 66.229 15.0125 67.4529C14.7972 67.5742 14.7657 67.2898 14.1742 67.7158C14.0702 67.7909 13.1648 68.4142 12.9553 68.6156C12.9274 68.6437 13.1611 68.6352 12.8647 68.8306C11.1213 69.977 9.34644 71.0982 7.60563 72.1501C7.32473 72.3196 7.54713 72.0218 7.34641 72.1416C5.923 72.9925 4.4599 74.0717 3.05686 74.8615C2.11703 75.3904 2.3274 74.9871 1.73017 75.1231C1.64579 75.1423 1.08583 75.5082 0.987116 75.4225C0.737594 75.2076 0.815769 74.7389 0.517898 74.5311C0.454339 74.4858 -0.25055 75.0486 0.0951165 74.6076C0.119628 74.5771 0.629454 74.1683 0.729758 74.0302C0.799819 73.9342 0.56156 73.9384 0.721855 73.7687C0.882148 73.599 1.14965 73.5506 1.42896 73.2912C1.70758 73.0314 1.48958 73.0006 2.10512 72.5728ZM189.965 1.57947C189.369 1.49265 189.309 1.94578 189.939 1.80022C189.97 1.79266 189.996 1.58366 189.965 1.57947ZM260.75 3.66458C260.012 3.38983 259.467 3.6274 259.984 3.83344C260.501 4.03952 260.974 3.74806 260.75 3.66458ZM268.699 4.38625C267.819 4.12825 267.602 4.74387 268.583 4.72681C268.639 4.72585 268.749 4.40115 268.699 4.38625ZM3.90579 73.6098C3.89576 73.6092 3.49431 73.8673 3.488 73.8785C3.35448 74.1374 4.15709 73.6214 3.90579 73.6098ZM276.52 5.17068C276.251 5.04993 275.435 5.0482 275.769 5.19768C276.037 5.31781 276.855 5.32074 276.52 5.17068ZM159.521 4.43459C159.51 4.42942 159.174 4.47822 159.187 4.51445C159.229 4.63075 159.69 4.52088 159.521 4.43459ZM289.835 6.9529C287.853 6.64693 286.729 5.96039 288.877 6.32187C289.266 6.38764 288.011 6.36904 288.502 6.48607C289.4 6.69984 290.052 6.45939 290.962 6.76858C291.126 6.82475 289.947 6.97129 289.831 6.95313C289.833 6.95304 289.834 6.95297 289.835 6.9529ZM189.593 1.06201C189.581 1.05672 189.108 1.08019 189.097 1.08685C188.85 1.24477 189.803 1.19752 189.593 1.06201ZM140.001 8.03595C139.972 8.02912 138.905 8.27129 138.874 8.29143C138.374 8.65015 140.528 8.16138 140.001 8.03595ZM221.287 0.23357C221.802 0.103272 222.417 0.103332 222.822 0.295144C222.311 0.270772 221.798 0.255388 221.287 0.23357Z" fill="white"/>
</svg>
