<svg width="305" height="93" viewBox="0 0 305 93" fill="none" xmlns="http://www.w3.org/2000/svg">
<path d="M1.80331 89.036C3.10909 87.7336 4.88393 86.1202 6.2492 84.9336C6.67882 84.5597 6.52276 84.8126 6.82566 84.5541C7.42027 84.0466 7.92829 83.5268 8.52004 83.036C8.71638 82.8737 8.56751 83.1802 8.77139 83.008C9.88789 82.0645 10.8871 81.1194 11.9985 80.1636C17.5118 75.4238 23.0042 70.8645 28.8204 66.3891C30.7524 64.901 33.143 63.2239 35.1315 61.6924C35.3639 61.5132 35.1575 61.5283 35.197 61.4877C35.8188 60.8557 35.717 61.2082 36.1947 60.8944C38.0926 59.6478 40.1287 58.2074 41.891 56.9311C42.6428 56.3868 41.7531 56.7362 42.5916 56.306C42.6497 56.276 42.5228 56.5063 42.7391 56.3721C43.2295 56.0673 44.1196 55.4336 44.494 55.1914C45.2158 54.7249 45.3329 54.6447 46.0079 54.1942C46.933 53.5788 48.0584 52.9064 49.0481 52.2325C49.2587 52.0887 48.9099 52.1713 49.2401 51.933C49.5704 51.694 50.4815 51.121 50.8027 50.9506C51.1238 50.7797 51.0443 50.9425 51.1101 50.9263C51.6528 50.7969 52.5685 49.9214 52.7012 49.8318C55.1133 48.198 57.3332 47.0287 59.6958 45.6507C61.4898 44.6043 63.3991 43.4702 65.1346 42.5241C67.2018 41.3982 68.9982 40.516 71.0229 39.4574C71.2367 39.346 70.9207 39.3497 71.1818 39.2134C73.9525 37.7685 76.7735 36.3997 79.626 35.1677C79.9128 35.0441 79.6012 35.3272 79.8908 35.2105C81.6615 34.4897 84.5214 33.4731 85.3512 32.5219C86.5435 32.0205 87.9915 31.4225 89.1025 31.0737C89.8185 30.8491 89.2014 31.2543 90.0259 30.847C90.2122 30.7555 89.9178 30.7496 90.2008 30.6207C91.3906 30.0787 92.7409 29.5711 93.9171 29.0372C94.1553 28.9287 94.0498 28.8564 94.1117 28.8112C94.6336 28.4368 95.6957 28.2962 95.9138 28.2318C97.5735 27.7362 98.737 27.2376 100.258 26.6782C100.611 26.5487 100.144 26.5688 100.482 26.4395C102.249 25.7669 104.04 25.1409 105.795 24.6006C106.184 24.4813 105.87 24.7184 106.058 24.6673C106.887 24.4414 106.993 24.1628 107.791 23.945C107.959 23.8989 107.9 24.0289 107.933 24.0295C108.461 24.0407 108.79 23.6629 108.91 23.617C110.437 23.0283 111.464 22.9735 112.933 22.4659C113.108 22.4053 112.67 22.4063 113.165 22.2436C116.472 21.1564 120.028 20.1366 123.361 19.3135C123.881 19.1847 123.539 19.383 123.575 19.3857C124.156 19.4211 124.431 19.0804 124.598 19.0245C125.909 18.5907 127.238 18.4561 128.051 17.9269C133.681 16.5474 139.302 15.0382 145.05 14.0847C145.123 14.0722 145.02 14.223 145.166 14.1975C146.936 13.8926 146.535 13.779 147.627 13.3072C147.9 13.189 148.83 13.2925 148.912 13.2977C149.209 13.3166 148.954 13.5593 149.051 13.5549C149.855 13.5125 149.604 12.9318 150.661 12.7198C150.695 12.7142 150.578 12.8535 150.669 12.8469C150.952 12.8266 151.217 12.7279 151.495 12.7128C152.133 12.6795 152.411 12.9307 153.328 12.5749C153.445 12.5294 153.193 12.22 154.151 12.0532C154.531 11.9867 156.232 11.6605 156.685 11.6007C157.152 11.5375 156.854 11.7074 156.888 11.7061C158.163 11.6235 157.701 11.7716 158.367 11.8752C159.034 11.9785 158.767 11.4927 159.012 11.3888C159.258 11.2848 160.203 11.2418 160.438 11.2441C160.672 11.2462 160.402 11.367 160.608 11.3552C161.976 11.276 161.151 10.9949 161.579 10.8353C162.591 10.4589 163.475 10.7036 164.445 10.5793C164.708 10.5456 164.48 10.4938 164.712 10.4466C165.63 10.2611 166.206 10.2894 167.208 10.0138C167.372 9.96858 168.165 9.60321 168.732 9.68752C168.813 9.6999 168.611 9.83028 169 9.79052C169.582 9.73118 170.629 9.58913 171.25 9.461C171.708 9.36632 171.154 9.28928 171.743 9.24933C172.005 9.23176 171.54 9.39756 172.031 9.3569C172.519 9.31643 173.76 9.12593 174.234 9.05282C174.707 8.97955 174.43 8.89773 174.467 8.88398C174.691 8.80325 175.594 8.61203 175.675 8.60058C179.668 8.0062 183.365 7.71599 187.343 7.15002C187.645 7.10717 187.427 7.00523 187.473 6.99738C188.503 6.8153 187.728 7.25463 188.467 7.27817C188.33 7.0332 188.763 7.02687 189.494 6.90936C189.847 6.85258 189.642 6.77607 189.673 6.76192C190.18 6.54657 190.57 6.69874 190.669 6.72754C191.036 6.83333 191.396 6.61392 191.645 6.68442C191.895 6.75425 191.364 6.96386 192.073 6.87851C192.262 6.76275 191.706 6.58316 192.241 6.48077C194.239 6.0937 198.174 5.85003 199.764 5.70407C201.384 5.55283 201.91 5.48231 202.863 5.41875C204.589 5.30533 203.941 5.18964 205.005 5.00089C206.075 4.81262 205.595 5.30598 205.759 5.38568C205.921 5.4657 206.077 5.35177 206.272 5.38552C206.466 5.41933 206.063 5.52362 206.51 5.50007C206.956 5.47631 208.161 5.19099 208.311 5.07684C208.627 4.83485 208.053 4.66568 209.248 4.6321C209.317 4.63033 209.106 4.76721 209.369 4.75455C211.437 4.65215 213.509 4.47294 215.568 4.37653C215.85 4.36357 215.61 4.5144 215.774 4.50834C217.488 4.44629 216.859 4.28006 217.778 3.95935C217.594 4.2995 218.128 4.45297 219.435 4.34868C220.222 4.28631 220.075 4.15645 220.577 4.01633C220.727 3.97414 221.294 4.02656 221.39 3.95233C221.703 3.70987 221.176 3.50677 222.513 3.4997C222.571 3.49981 222.396 3.63264 222.596 3.62435C223.889 3.57178 224.026 3.3333 225.428 3.20079C226.526 3.09686 228.505 3.09239 229.777 3.02629C229.776 3.39099 230.969 3.2243 231.441 2.94077C232.27 2.89438 233.166 2.81998 233.974 2.80144C234.252 2.79496 234.077 2.91208 234.113 2.92113C234.667 3.06355 234.99 2.79805 235.167 2.77702C237.05 2.56188 238.612 2.64993 240.43 2.35953C240.495 2.34915 240.585 2.09049 241.086 2.24553C241.118 2.25636 240.52 2.40709 241.383 2.36477C242.246 2.3224 243.887 2.36304 245.091 2.17853C245.383 2.13394 246.113 1.88783 246.72 2.01528C246.8 2.03266 246.717 2.1098 246.834 2.1438C247.211 2.25199 247.409 1.9854 247.839 2.17963C248.273 2.37363 249.16 2.48881 250.347 2.27748C250.385 2.27117 250.658 2.05433 251.034 2.03826C251.636 2.01274 252.493 2.01175 253.125 1.9792C253.427 1.96354 253.227 1.84755 253.279 1.84265C255.31 1.67209 256.773 1.71487 258.985 1.66323C259.385 1.65423 260.569 1.4298 261.33 1.53246C262.174 1.64452 261.338 2.29775 263.261 2.06878C264.038 1.97717 264.994 1.15348 266.423 1.5022C269.16 1.29209 271.727 1.4037 274.527 1.1621C274.657 1.15119 275.035 0.919374 275.321 0.912477C275.747 0.902648 275.985 0.996761 276.29 0.993151C277.568 0.980646 278.739 0.854828 279.982 0.828935C280.455 0.818928 280.293 0.929677 280.857 0.917907C281.42 0.906121 281.792 0.755443 282.561 0.799295C283.142 0.832922 283.731 1.09968 284.504 1.11019C284.526 0.82908 285.056 0.81919 286 0.718247C286.182 0.69872 285.984 0.606714 286.07 0.592445C286.419 0.532212 286.746 0.603923 287.078 0.539892C287.159 0.524483 287.16 0.428661 287.226 0.410666C287.786 0.253954 288.724 0.443935 288.886 0.477141C289.502 0.603045 289.763 0.471564 290.224 0.515549C290.681 0.559669 290.002 0.647591 290.535 0.667683C291.64 0.709175 293.063 0.657818 294.195 0.634793C294.646 0.625013 294.335 0.504698 294.4 0.500331C295.332 0.445301 296.283 0.559073 296.798 0.292549C297.465 0.93577 297.362 0.215504 298.713 0.317203C298.819 0.32551 298.961 0.633738 298.554 0.688484C298.148 0.743189 297.529 0.659801 296.967 0.743984C296.834 0.763732 296.077 1.0731 295.974 1.09324C295.163 1.25046 295.038 0.788242 294.994 0.763704C294.499 0.499648 293.58 0.836484 293.337 0.864258C292.224 0.991312 291.28 0.950048 290.356 1.0453C289.751 1.10708 289.701 1.4133 289.226 1.41664C287.597 1.42968 287.015 1.02064 285.5 1.43266C285.176 1.5207 285.509 1.84404 284.332 1.61641C284.258 1.60203 283.385 1.38814 282.89 1.55472C282.828 1.57571 282.833 1.67268 282.75 1.68332C282.198 1.7528 281.827 1.6868 281.227 1.74247C280.626 1.79816 279.907 1.87611 279.223 1.86521C278.811 1.85877 278.278 1.69524 278.08 1.65745C277.521 1.54819 276.934 1.77705 276.587 1.63424C276.236 1.49078 276.903 1.23228 275.995 1.16276C275.97 1.41593 275.902 1.67725 275.857 1.93256C273.886 1.99098 271.822 1.9835 269.808 2.071C269.557 2.08217 269.819 2.20789 269.55 2.22337C268.415 2.28816 267.423 2.23021 266.256 2.31558C265.353 2.3822 264.371 2.56624 263.434 2.64189C262.843 2.37785 261.482 2.53408 260.442 2.55376C260.078 2.56078 260.099 2.48271 259.839 2.46912C258.859 2.4199 259.328 2.65422 259.062 2.70633C257.926 2.92938 257.801 2.35716 256.459 2.43429C256.388 2.43815 255.535 2.78661 255.417 2.81152C254.665 2.97267 255.286 2.71054 254.811 2.71066C253.944 2.71099 253.341 2.66699 252.338 2.80751C252.045 2.8489 251.351 3.07599 250.775 2.95711C250.699 2.94155 250.735 2.83787 250.675 2.83502C249.581 2.7921 249.57 3.11292 248.957 3.25362C248.341 3.3944 247.384 3.22514 247.168 3.17327C246.633 3.03763 247.569 3.08109 247.592 3.06373C247.909 2.85434 247.203 2.9254 246.65 2.93947C246.553 2.63092 245.787 2.692 246.08 2.9552C246.113 2.98386 246.539 2.93119 246.65 2.93947C246.185 3.27279 245.345 3.35855 244.403 3.1242C243.962 3.01445 244.361 2.83406 243.051 2.96694C242.457 3.0273 242.7 3.22932 242.179 3.31866C240.989 3.5226 239.429 3.41495 238.211 3.52252C237.768 3.56154 238.207 3.65257 237.905 3.68333C237.104 3.7654 236.393 3.72173 235.595 3.81868C235.523 3.82761 235.708 3.93953 235.459 3.95718C233.567 4.09401 231.83 4.13123 229.83 4.26908C228.859 4.33585 227.138 4.52802 226.143 4.58812C224.405 4.69314 222.339 4.67185 220.807 4.83799C219.83 4.94403 220.056 5.05026 219.644 5.16797C218.85 5.39577 217.406 5.22215 217.211 5.19319C217.205 5.19212 218.037 5.09357 217.587 5.0674C217.317 4.95718 217.221 5.19184 217.211 5.19319C217.082 5.17423 215.419 5.28707 215.094 5.3393C214.916 5.36757 215.026 5.47567 214.934 5.48821C212.716 5.78518 210.593 6.00661 208.273 6.17111C208.233 6.17255 208.281 6.03638 208.186 6.04139C206.864 6.10834 206.042 6.34954 204.976 6.55052C203.91 6.75161 203.06 6.80598 202.406 6.64688C201.604 6.75737 200.444 6.77859 199.779 6.78867C199.114 6.7987 199.05 7.06235 198.992 7.07352C197.172 7.4318 196.068 7.40697 194.161 7.60148C193.252 7.69356 191.469 7.93965 190.503 8.08426C189.74 8.19868 189.272 8.19541 188.575 8.31972C188.481 8.33648 188.59 8.43738 188.562 8.44529C187.796 8.67681 188.138 8.35486 187.971 8.32564C187.371 8.21857 186.973 8.17117 185.957 8.38589C185.722 8.43534 185.083 8.92029 184.656 8.99934C184.1 9.10143 184.293 8.93182 183.713 9.0428C183.663 9.05218 183.685 9.13841 183.325 9.18201C181.651 9.38563 179.838 9.58104 178.132 9.83097C177.899 9.86479 178.217 9.96135 177.881 10.0125C176.332 10.2484 174.505 10.5104 172.945 10.6799C172.558 10.7216 172.785 10.5881 172.697 10.5719C172.157 10.475 171.472 10.8396 171.354 10.8628C168.521 11.4256 166.375 11.5374 163.445 12.1473C163.287 12.1806 162.116 12.6606 161.535 12.5233C161.495 12.5144 160.918 12.3706 160.475 12.6165C160.448 12.6318 160.801 12.6951 160.219 12.7855C159.637 12.876 158.723 13.1246 157.908 13.1352C157.65 13.1387 157.015 13.0107 156.307 13.3378C156.265 13.359 155.164 14.0069 154.691 13.7932C154.614 13.7579 154.624 13.4329 153.75 13.7665C153.583 13.8307 153.91 13.8394 153.463 13.9707C152.779 14.1721 151.843 14.2694 151.021 14.5773C150.878 14.6314 150.29 14.968 149.755 14.9105C149.671 14.9015 149.8 14.7675 149.532 14.8099C148.249 15.0131 146.983 15.349 145.652 15.5584C145.186 15.6318 145.386 15.4143 144.896 15.4728C144.406 15.5312 143.433 15.6984 142.952 15.8849C142.47 16.0714 143.073 16.2165 142.332 16.4034C139.125 17.2149 135.916 17.8085 132.682 18.5962C132.206 18.7125 132.623 18.7075 131.924 18.8862C129.367 19.5341 124.924 20.8258 122.653 21.2638C120.832 21.6112 123.032 20.8513 121.656 21.1747C120.993 21.3316 120.377 21.841 120.224 21.8965C118.736 22.4379 117.583 22.6382 116.212 23.1037C115.928 23.2005 116.247 23.2365 116.005 23.3176C115.178 23.5956 114.289 23.814 113.503 24.0749C113.15 24.1923 113.245 24.2648 112.918 24.3616C112.135 24.5945 111.437 24.7777 110.655 24.9379C110.583 24.9529 111.012 24.6836 110.433 24.8691C109.489 25.1727 108.295 25.4771 107.253 25.933C106.944 26.0687 107.004 26.2842 106.272 26.3739C106.119 26.393 106.212 26.0752 105.496 26.5711C105.375 26.6538 104.153 27.4162 103.438 27.459C103.249 27.4702 102.739 27.4201 102.374 27.5893C102.325 27.613 102.57 27.6518 102.262 27.7761C101.16 28.2186 99.9924 28.6378 98.8724 29.1021C98.5736 29.2263 99.0681 29.1719 98.6216 29.3535C97.3939 29.8528 95.8471 30.4207 94.6378 30.861C94.1919 31.023 94.4582 30.8059 94.422 30.8082C93.8381 30.8448 93.6175 31.1995 93.4512 31.282C92.4094 31.7956 91.5518 32.0231 90.5819 32.4608C90.3142 32.5814 90.5515 32.6095 90.5017 32.6417C89.9829 32.9698 90.3172 32.6011 89.955 32.728C88.9399 33.0831 87.8457 33.5617 86.861 34.0073C86.4994 34.1712 86.9627 34.1176 86.6378 34.2633C84.7026 35.1344 82.6869 36.032 80.787 36.8373C80.429 36.9888 80.606 36.7903 80.5225 36.8029C79.9454 36.8878 79.3041 37.4446 79.1441 37.5452C78.4176 38.0015 78.0722 38.065 77.3981 38.4109C74.1002 40.1012 70.0256 42.1348 66.9407 43.7783C62.9265 45.9159 59.821 47.5995 56.1236 49.8798C55.8894 50.0246 56.199 49.9989 55.9981 50.1253C53.4055 51.7503 50.8152 53.3341 48.2779 55.0595C48.0696 55.201 48.4451 55.111 48.1135 55.3418C47.4339 55.8159 46.5573 56.3946 45.8384 56.8309C45.4879 57.044 45.8791 56.6415 45.5275 56.8581C44.7086 57.3626 43.8526 57.939 43.0516 58.5217C42.711 58.77 43.31 58.5179 42.8615 58.8321C39.8376 60.9561 36.8734 63.1407 33.7886 65.2563C33.5767 65.4017 33.2308 65.3187 32.8274 65.6925C32.8409 65.7781 32.8971 65.8481 32.9323 65.9238C28.6435 69.2517 24.4255 72.5341 20.2686 76.0379C20.0944 76.1848 20.4889 76.0411 20.1523 76.3263C18.209 77.9737 16.3269 79.6614 14.2751 81.2886C14.0725 81.4497 14.0015 81.1694 13.4573 81.7062C13.3614 81.8005 12.526 82.5941 12.3414 82.8357C12.3169 82.869 12.5533 82.8171 12.2793 83.0684C10.6916 84.5221 8.96371 86.0688 7.34921 87.4738C7.08779 87.701 7.27062 87.3565 7.08363 87.5176C5.75755 88.6617 4.43151 90.0489 3.12711 91.1379C2.25343 91.8674 2.40449 91.4179 1.81806 91.6812C1.73516 91.7184 1.22329 92.2056 1.10932 92.1406C0.821327 91.9781 0.826791 91.49 0.490728 91.3448C0.41877 91.3128 -0.209792 92.0306 0.0722939 91.5126C0.0923642 91.4766 0.547092 90.9559 0.627685 90.7955C0.684008 90.6839 0.441895 90.7392 0.578631 90.5341C0.715424 90.329 0.980428 90.2231 1.22482 89.9026C1.4686 89.5819 1.24136 89.597 1.80331 89.036ZM196.734 6.84709C196.096 6.79458 196.053 7.25073 196.717 7.06914C196.749 7.05984 196.767 6.8495 196.734 6.84709ZM271.84 1.64555C271.011 1.47791 270.461 1.78973 271.045 1.92091C271.629 2.052 272.093 1.69635 271.84 1.64555ZM280.251 1.21447C279.3 1.08858 279.172 1.72922 280.181 1.56844C280.239 1.55932 280.307 1.22178 280.251 1.21447ZM3.79795 89.7013C3.78762 89.7028 3.41836 90.0463 3.4137 90.059C3.31757 90.3472 4.05562 89.6606 3.79795 89.7013ZM288.673 0.810397C288.369 0.732491 287.504 0.855647 287.881 0.952334C288.185 1.03006 289.052 0.90724 288.673 0.810397ZM164.508 10.7909C164.497 10.7859 164.136 10.8404 164.15 10.8765C164.194 10.9924 164.689 10.8744 164.508 10.7909ZM302.897 0.467568C300.763 0.487213 299.467 -0.0102011 301.784 0.000162184C302.204 0.00212929 300.882 0.186618 301.418 0.222812C302.397 0.288679 303.041 -0.0544871 304.048 0.102381C304.23 0.131093 303.018 0.467554 302.893 0.468377C302.895 0.468106 302.896 0.467838 302.897 0.467568ZM196.315 6.35138C196.302 6.34684 195.8 6.39711 195.788 6.40433C195.533 6.57614 196.544 6.47493 196.315 6.35138ZM143.757 14.4897C143.726 14.4829 142.585 14.7214 142.551 14.7413C142.007 15.0991 144.314 14.6177 143.757 14.4897ZM229.798 3.03458C230.334 2.85332 230.989 2.79118 231.439 2.94076C230.893 2.96857 230.344 3.00511 229.798 3.03458Z" fill="white"/>
</svg>
