<svg width="103" height="11" viewBox="0 0 103 11" fill="none" xmlns="http://www.w3.org/2000/svg">
<path d="M1.15106 0.00332522C1.74277 0.0686721 2.4966 0.244343 3.06103 0.40189C3.23798 0.451092 3.13305 0.513362 3.25449 0.550824C3.49194 0.623968 3.72433 0.625173 3.95673 0.703302C4.03368 0.729574 3.91345 0.836371 3.99463 0.861076C4.4395 0.99554 4.87301 1.03871 5.32452 1.14451C7.64784 1.683 9.79446 2.09874 12.1607 2.55384C12.9275 2.70153 13.8357 2.96852 14.6236 3.04776C14.7156 3.05691 14.6793 2.93888 14.6981 2.93274C14.9922 2.83985 14.8657 3.04518 15.0378 3.10355C15.7132 3.33334 16.5402 3.47861 17.2314 3.54719C17.5277 3.57641 17.2688 3.31212 17.5442 3.48146C17.5633 3.49299 17.4703 3.59689 17.5486 3.62222C17.7264 3.67946 18.0743 3.7142 18.2131 3.7459C18.4807 3.8076 18.5255 3.81358 18.7803 3.85567C19.1282 3.91418 19.5316 4.03746 19.906 4.06981C19.986 4.07637 19.9002 3.94095 20.0294 3.94066C20.1547 3.9398 20.5004 4.00467 20.6121 4.05095C20.724 4.09729 20.6598 4.18293 20.677 4.20759C20.8181 4.41506 21.2551 4.22698 21.3069 4.22872C22.2542 4.26872 23.0213 4.53323 23.8772 4.66344C24.5208 4.76102 25.2363 4.82085 25.87 4.92208C26.6213 5.04259 27.2439 5.20034 27.9639 5.29399C28.0399 5.304 27.9715 5.15105 28.0642 5.16297C29.0361 5.28784 30.0414 5.44716 31.0193 5.68048C31.1173 5.704 30.972 5.80911 31.0689 5.83996C31.6635 6.02644 32.5823 6.40019 33.009 5.9121C33.4036 5.98708 33.914 6.07773 34.2707 6.23516C34.5012 6.3366 34.2507 6.43987 34.5525 6.42164C34.6205 6.41766 34.5499 6.28875 34.6506 6.29166C35.0746 6.30398 35.5237 6.40157 35.9403 6.39367C36.025 6.39178 36.0159 6.28352 36.0419 6.26759C36.2596 6.13956 36.5548 6.43549 36.6238 6.46303C37.1511 6.67014 37.5438 6.66453 38.0703 6.73332C38.1907 6.74911 38.0658 6.58988 38.1823 6.59997C38.7859 6.65412 39.4012 6.74119 39.972 6.87288C40.0989 6.90251 39.9663 7.0091 40.0262 7.02943C40.2904 7.11752 40.3772 6.89665 40.6298 6.97624C40.683 6.99271 40.6403 7.09243 40.6489 7.10494C40.7835 7.30129 40.9477 7.06455 40.9881 7.0636C41.4943 7.04519 41.8052 7.34775 42.3084 7.36657C42.3688 7.36855 42.2487 7.22262 42.4173 7.23617C43.5472 7.32626 44.6762 7.48343 45.7784 7.701C45.9498 7.73463 45.8164 7.8205 45.826 7.83373C45.9844 8.04118 46.1244 7.79872 46.1816 7.79478C46.6318 7.7703 47.0221 8.0233 47.3488 7.74931C49.1619 8.02948 51.0763 8.02308 52.8824 8.42954C52.906 8.43445 52.854 8.55663 52.9011 8.56588C53.4678 8.67815 53.372 8.47516 53.7642 8.26344C53.8628 8.21028 54.1293 8.51775 54.1532 8.54053C54.2402 8.62454 54.1318 8.80456 54.1617 8.82172C54.4093 8.95724 54.4096 8.33763 54.752 8.36001C54.7626 8.36174 54.7102 8.47236 54.7382 8.48553C54.8252 8.52684 54.9165 8.48745 55.0011 8.53215C55.1945 8.63537 55.247 8.93985 55.5609 8.78406C55.6016 8.76379 55.5605 8.41002 55.8681 8.44523C55.9932 8.45987 56.5444 8.48595 56.6963 8.51701C56.8484 8.54824 56.7368 8.65521 56.7474 8.66071C57.1523 8.83275 56.9922 8.8859 57.187 9.118C57.3817 9.34909 57.3521 8.82098 57.439 8.76677C57.5261 8.71278 57.8197 8.8512 57.8911 8.89761C57.9625 8.94409 57.8672 9.01127 57.9314 9.03875C58.3568 9.21832 58.1341 8.78736 58.2804 8.71088C58.6263 8.52952 58.8591 8.93032 59.1741 8.98207C59.259 8.99602 59.1932 8.90434 59.2695 8.89925C59.5712 8.88017 59.7466 9.00902 60.0899 8.91037C60.1462 8.89433 60.4277 8.67011 60.5976 8.84807C60.6217 8.87372 60.5475 8.9684 60.6728 8.99448C60.8601 9.03363 61.1975 9.0657 61.399 9.03913C61.5478 9.01948 61.3829 8.85448 61.5676 8.90961C61.6496 8.93417 61.4937 9.02342 61.6481 9.06174C61.8027 9.10014 62.1917 9.10618 62.3516 9.10664C62.506 9.10699 62.4243 8.98357 62.437 8.97569C62.5137 8.93068 62.8097 8.87856 62.8356 8.87918C64.1475 8.89127 65.3159 9.10584 66.5985 9.03178C66.6977 9.0261 66.6309 8.89839 66.646 8.8962C66.9847 8.84042 66.7196 9.18269 66.9575 9.29492C66.9212 9.03528 67.0615 9.08141 67.2986 9.05043C67.4129 9.03525 67.3494 8.93529 67.3598 8.92488C67.5273 8.77018 67.6471 8.96598 67.678 9.00596C67.7919 9.153 67.9108 8.97566 67.9881 9.07374C68.0659 9.17105 67.8919 9.32004 68.1205 9.3144C68.1844 9.22027 68.007 8.98014 68.1835 8.93772C68.8503 8.77862 70.0791 8.93447 70.5993 8.9333C71.1166 8.9334 71.3014 8.90763 71.6095 8.92724C72.1705 8.96135 71.9572 8.79089 72.297 8.69074C72.6365 8.58989 72.4935 9.04192 72.5482 9.13453C72.6021 9.22708 72.6498 9.12611 72.7132 9.17505C72.7764 9.22396 72.6496 9.29613 72.7925 9.30773C72.9359 9.31944 73.3115 9.1267 73.3546 9.02388C73.4469 8.80623 73.2587 8.59621 73.6361 8.64989C73.6584 8.65307 73.5948 8.77419 73.6796 8.78044C74.3527 8.82618 75.0377 8.77976 75.6948 8.8028C75.7852 8.80613 75.7164 8.94239 75.7691 8.94578C76.3195 8.98058 76.101 8.77999 76.3822 8.50986C76.344 8.83828 76.5314 9.02045 76.951 8.98086C77.2027 8.95694 77.1451 8.82058 77.2967 8.70486C77.3422 8.67002 77.5289 8.74797 77.5538 8.67844C77.6358 8.45104 77.4451 8.22745 77.8796 8.27732C77.8987 8.27984 77.8526 8.4046 77.9177 8.40465C78.3388 8.40491 78.3596 8.17387 78.8041 8.09273C79.1588 8.02842 79.8066 8.08455 80.2096 8.05105C80.2508 8.41279 80.619 8.27719 80.735 8.00666C80.9946 7.97948 81.2692 7.92398 81.5302 7.91863C81.6191 7.91678 81.5781 8.02975 81.5908 8.03929C81.7873 8.18942 81.8632 7.93015 81.9178 7.91173C82.513 7.72212 83.0371 7.81977 83.5764 7.53786C83.5954 7.52775 83.5837 7.27312 83.7725 7.42583C83.7849 7.43644 83.6135 7.58524 83.889 7.54308C84.1643 7.50109 84.7046 7.53469 85.0563 7.34327C85.1418 7.29718 85.3286 7.04937 85.5443 7.16765C85.5731 7.18381 85.5614 7.26036 85.6049 7.29239C85.7456 7.394 85.7542 7.131 85.9333 7.3144C86.1139 7.49739 86.4349 7.59416 86.7822 7.3615C86.7935 7.35448 86.8383 7.13665 86.9579 7.11229C87.149 7.07363 87.4274 7.05122 87.6241 7.00232C87.7182 6.97885 87.6282 6.87124 87.6441 6.86505C88.2553 6.64392 88.7417 6.63579 89.4304 6.5007C89.5572 6.4761 89.8664 6.21358 90.1408 6.27669C90.4439 6.3446 90.3387 7.01796 90.9103 6.69923C91.1417 6.57022 91.2242 5.72936 91.7773 5.98315C92.5875 5.62726 93.4354 5.56575 94.2238 5.13603C94.2594 5.11677 94.3049 4.86887 94.3936 4.84037C94.5255 4.7984 94.6315 4.86873 94.727 4.84136C95.1295 4.72823 95.4558 4.51327 95.8346 4.38291C95.9783 4.33306 95.9666 4.45078 96.1382 4.39076C96.3096 4.33042 96.3714 4.15707 96.6243 4.12903C96.8152 4.10827 97.0942 4.30269 97.3365 4.2397C97.2394 3.97641 97.3989 3.91808 97.6485 3.73413C97.6964 3.69864 97.6016 3.63239 97.6223 3.61096C97.7055 3.52181 97.8316 3.5566 97.9077 3.46509C97.9262 3.44299 97.89 3.35431 97.903 3.33128C98.0119 3.13231 98.3659 3.21462 98.4274 3.22878C98.6617 3.28263 98.6952 3.13205 98.8536 3.12375C99.0118 3.11537 98.8371 3.26892 99.0095 3.23015C99.367 3.14955 99.7827 2.94493 100.117 2.7953C100.25 2.73505 100.106 2.66088 100.123 2.64957C100.383 2.49373 100.718 2.486 100.759 2.18412C101.231 2.688 100.895 2.04906 101.339 1.98053C101.374 1.97532 101.549 2.2362 101.452 2.33442C101.354 2.43264 101.134 2.43087 101.001 2.5731C100.97 2.60675 100.871 2.97625 100.848 3.00666C100.667 3.24456 100.436 2.8385 100.413 2.82126C100.153 2.63808 100.013 3.04876 99.9492 3.10154C99.6605 3.34284 99.3523 3.40897 99.1034 3.59618C98.9402 3.71804 99.0439 4.00517 98.8963 4.05914C98.4044 4.23811 98.074 3.91613 97.7629 4.4443C97.6957 4.55693 97.9191 4.82583 97.4698 4.72634C97.4414 4.72019 97.0922 4.60315 96.9985 4.80347C96.9867 4.82873 97.0233 4.91866 97.0014 4.93616C96.8537 5.05163 96.7138 5.02369 96.5447 5.12935C96.3757 5.23498 96.175 5.3713 95.9536 5.41984C95.8202 5.44933 95.5946 5.3406 95.5188 5.32151C95.304 5.26537 95.1928 5.52885 95.0337 5.42232C94.8742 5.31504 95.001 5.01846 94.6892 5.02457C94.7645 5.2655 94.8285 5.51758 94.8976 5.76224C94.2797 5.97496 93.6444 6.10684 93.0221 6.32205C92.945 6.34896 93.0665 6.45192 92.9848 6.48409C92.6408 6.6186 92.3067 6.62314 91.953 6.77246C91.6796 6.88844 91.4093 7.11964 91.1203 7.24197C90.8557 7.01912 90.4442 7.23947 90.1167 7.30257C90.0021 7.32488 89.9891 7.24848 89.9026 7.24616C89.577 7.23876 89.785 7.44619 89.7126 7.50746C89.4002 7.76884 89.2215 7.21938 88.8053 7.34193C88.7836 7.34827 88.586 7.71619 88.5524 7.74427C88.3432 7.9257 88.4863 7.65056 88.3322 7.66567C88.0515 7.69271 87.8463 7.66728 87.5475 7.83099C87.4606 7.87909 87.2795 8.11867 87.0636 8.01598C87.0353 8.00255 87.0258 7.90039 87.0052 7.89901C86.6342 7.88185 86.695 8.19519 86.5169 8.34561C86.3372 8.49629 85.9819 8.3469 85.9071 8.29767C85.7099 8.17139 86.0174 8.20239 86.0228 8.1846C86.0859 7.97459 85.8704 8.05486 85.6965 8.07474C85.6074 7.77342 85.3735 7.84126 85.5164 8.09647C85.5325 8.12428 85.6594 8.06796 85.6965 8.07474C85.6103 8.40701 85.3527 8.50076 85.0041 8.27748C84.8409 8.17256 84.9402 7.99355 84.5358 8.13105C84.3518 8.19301 84.4656 8.3908 84.309 8.48057C83.9472 8.68614 83.4192 8.57732 83.0334 8.67589C82.893 8.71175 83.0518 8.80426 82.9563 8.83276C82.7027 8.90869 82.4589 8.85941 82.2041 8.94656C82.181 8.9546 82.2589 9.06727 82.1774 9.08198C81.5558 9.19619 81.0119 9.19743 80.3691 9.28429C80.0585 9.3266 79.5071 9.46762 79.1777 9.49414C78.6075 9.54187 77.9133 9.439 77.4352 9.53233C77.1247 9.59251 77.2057 9.70827 77.0792 9.8057C76.835 9.99455 76.3401 9.74709 76.2765 9.7072C76.2722 9.70617 76.5437 9.6517 76.3919 9.60205C76.2946 9.47825 76.2796 9.70633 76.2765 9.7072C76.2342 9.68204 75.7001 9.70111 75.5955 9.73323C75.5389 9.75096 75.581 9.86498 75.5513 9.87201C74.8473 10.0363 74.1066 10.12 73.3779 10.1104C73.365 10.1088 73.376 9.97681 73.3459 9.97474C72.9243 9.94234 72.6641 10.1174 72.3193 10.2309C71.9745 10.3441 71.6927 10.3254 71.4738 10.11C71.2086 10.1503 70.8209 10.0665 70.6077 10.0139C70.391 9.96149 70.3697 10.2173 70.351 10.223C69.7642 10.4046 69.4141 10.2686 68.7893 10.2601C68.491 10.2558 67.9013 10.303 67.5907 10.3345C67.3417 10.3601 67.1903 10.3018 66.9593 10.3419C66.9281 10.3473 66.9606 10.4606 66.9511 10.465C66.6933 10.6028 66.8157 10.3242 66.762 10.275C66.567 10.0959 66.4476 10.0006 66.1146 10.0861C66.0379 10.1057 65.8133 10.5056 65.6716 10.5287C65.4876 10.558 65.5575 10.4149 65.3644 10.449C65.3479 10.4518 65.3511 10.5402 65.2317 10.5358C64.692 10.5164 64.1081 10.459 63.5408 10.4587C63.4633 10.4583 63.5604 10.6002 63.4483 10.6019C62.9262 10.6099 62.329 10.5915 61.8316 10.5124C61.7084 10.4925 61.7886 10.3964 61.7626 10.3666C61.6028 10.1858 61.3609 10.4351 61.3218 10.4387C60.3947 10.5338 59.6718 10.2745 58.7166 10.3425C58.6658 10.3468 58.2599 10.6031 58.0948 10.3592C58.0834 10.3429 57.9212 10.0937 57.7585 10.2506C57.7484 10.2604 57.8512 10.3898 57.6616 10.3676C57.472 10.3454 57.1601 10.4122 56.9036 10.2616C56.8223 10.2142 56.6385 9.9633 56.3772 10.1404C56.3605 10.1529 55.9472 10.5631 55.8256 10.2561C55.8078 10.2057 55.8426 9.89092 55.5433 10.0352C55.4859 10.0632 55.5823 10.1399 55.4333 10.1748C55.2048 10.2288 54.9121 10.1253 54.6246 10.2477C54.5746 10.2695 54.3534 10.4702 54.1977 10.2962C54.1733 10.269 54.23 10.1669 54.1428 10.1492C53.7286 10.0643 53.2826 10.1036 52.8574 9.99897C52.7067 9.96209 52.7973 9.79755 52.6416 9.74007C52.4845 9.68252 52.1703 9.6145 52.0053 9.67997C51.8378 9.74529 51.9934 10.0304 51.7492 10.0332C50.689 10.0451 49.6283 9.79482 48.5574 9.67393C48.4023 9.65629 48.5224 9.7651 48.2928 9.74591C47.4488 9.67655 45.9525 9.62185 45.2131 9.33699C44.6351 9.11072 45.3908 9.06187 44.9495 8.94844C44.7374 8.8941 44.47 9.18421 44.4165 9.18858C43.894 9.23525 43.5507 9.05726 43.0797 9.04902C42.9823 9.04733 43.0629 9.1852 42.9802 9.18234C42.6973 9.17367 42.4075 9.08388 42.1361 9.06393C42.0143 9.05526 42.0257 9.15512 41.9147 9.135C41.6505 9.08809 41.4114 9.01935 41.1683 8.89895C41.1463 8.88799 41.3153 8.78479 41.1243 8.75822C40.815 8.71554 40.4389 8.5805 40.0674 8.63074C39.9571 8.64601 39.9266 8.86791 39.7142 8.6869C39.6695 8.64904 39.7634 8.38955 39.4666 8.58797C39.417 8.62096 38.9257 8.8774 38.726 8.64953C38.6734 8.58958 38.5493 8.35281 38.4144 8.37109C38.396 8.37439 38.4524 8.50248 38.3427 8.50082C37.9581 8.49315 37.5476 8.42919 37.1598 8.41837C37.0566 8.41576 37.1929 8.55835 37.0395 8.55049C36.6177 8.52908 36.0964 8.43055 35.6872 8.33833C35.5364 8.3041 35.6552 8.21552 35.6455 8.20295C35.4904 7.99887 35.3527 8.22932 35.2914 8.23581C34.9102 8.27286 34.642 8.12091 34.294 8.10569C34.1979 8.10117 34.2498 8.22652 34.2295 8.23439C34.0198 8.30976 34.1938 8.12011 34.0725 8.08054C33.7358 7.96937 33.3315 7.92463 32.9924 7.89384C32.8659 7.88246 32.9889 8.03653 32.8756 8.02474C32.2045 7.95745 31.5052 7.84797 30.8517 7.68081C30.7286 7.64909 30.8218 7.55624 30.7991 7.52888C30.6428 7.33784 30.347 7.52703 30.283 7.53999C29.9923 7.59939 29.8974 7.49229 29.6493 7.47455C28.4263 7.38799 27.0251 7.12156 25.8952 6.91486C24.413 6.6446 23.346 6.38104 21.9477 6.1907C21.8591 6.1785 21.9268 6.33016 21.8502 6.32141C20.8652 6.20262 19.8741 5.99148 18.9135 5.87929C18.8334 5.86963 18.9275 6.01852 18.7981 6.00737C18.5325 5.98543 18.2 5.92497 17.9395 5.84038C17.8124 5.79937 18.0052 5.7154 17.8769 5.6764C17.578 5.58532 17.2508 5.52304 16.9312 5.49279C16.7951 5.48019 16.9766 5.64658 16.8013 5.61979C15.5969 5.43831 14.4352 5.27119 13.278 4.9015C13.1983 4.87606 13.1717 4.59301 12.9891 4.61604C12.9634 4.68911 12.9494 4.77775 12.9303 4.85723C11.1949 4.61286 9.49252 4.22802 7.78458 3.91995C7.71193 3.90688 7.81305 4.07201 7.67222 4.04743C6.85685 3.90523 6.05096 3.80692 5.22667 3.51667C5.1458 3.48823 5.22876 3.24261 4.9798 3.23861C4.93647 3.23825 4.56944 3.20897 4.46616 3.24739C4.45201 3.25343 4.4975 3.38278 4.38023 3.36584C3.69904 3.26536 2.98789 3.11288 2.3137 2.91986C2.20492 2.88848 2.34509 2.78386 2.2678 2.76042C1.71941 2.5951 1.08939 2.58193 0.567826 2.37186C0.218662 2.23075 0.391452 2.03785 0.23636 1.79017C0.214441 1.75523 -0.0100105 1.71036 0.000394255 1.58414C0.0260585 1.26668 0.196063 0.944335 0.210514 0.603659C0.213879 0.530332 -0.101844 0.553717 0.107796 0.412399C0.122387 0.403044 0.351345 0.384516 0.415551 0.335327C0.460232 0.301374 0.415208 0.163126 0.500863 0.124726C0.586482 0.0863674 0.651571 0.207115 0.788836 0.168488C0.926105 0.129075 0.896231 -0.0243709 1.15106 0.00332522ZM69.6285 9.7764C69.4246 9.65968 69.4071 10.109 69.6216 9.9955C69.632 9.98948 69.639 9.78211 69.6285 9.7764ZM93.538 5.78222C93.2256 5.67884 93.146 6.01141 93.3712 6.09763C93.5971 6.18322 93.6335 5.81322 93.538 5.78222ZM96.053 4.72097C95.7111 4.68478 95.891 5.29694 96.1542 5.0587C96.1696 5.04501 96.073 4.72299 96.053 4.72097ZM1.14014 1.88797C1.13845 1.88163 0.978569 1.84738 0.97367 1.85251C0.863099 1.97761 1.18287 2.046 1.14014 1.88797ZM98.4929 3.55711C98.3712 3.516 98.1571 3.71522 98.3083 3.76708C98.4304 3.80879 98.6448 3.60821 98.4929 3.55711ZM59.1733 9.20123C59.1704 9.19443 59.0528 9.18334 59.0535 9.22119C59.0563 9.34315 59.2219 9.31586 59.1733 9.20123ZM102.635 1.60186C102.018 1.88822 101.42 1.59647 102.102 1.3225C102.225 1.2724 101.921 1.60077 102.094 1.56725C102.41 1.50503 102.444 1.11778 102.806 1.13015C102.872 1.13264 102.671 1.58664 102.634 1.60306C102.635 1.60266 102.635 1.60226 102.635 1.60186ZM69.4979 9.24103C69.4938 9.23524 69.3331 9.23401 69.3293 9.23996C69.2461 9.38472 69.5703 9.3873 69.4979 9.24103ZM52.4385 8.5193C52.4268 8.50581 52.0663 8.46629 52.0526 8.47685C51.8439 8.69443 52.581 8.77568 52.4385 8.5193ZM80.2172 8.05979C80.3699 7.89405 80.5719 7.84831 80.7342 8.00659C80.5627 8.02177 80.3906 8.04471 80.2172 8.05979Z" fill="white"/>
</svg>
